<?xml version="1.0" encoding="utf-8"?>
<!-- Generator: Adobe Illustrator 18.1.1, SVG Export Plug-In . SVG Version: 6.00 Build 0)  -->
<svg version="1.1" xmlns="http://www.w3.org/2000/svg" xmlns:xlink="http://www.w3.org/1999/xlink" x="0px" y="0px"
	 viewBox="0 0 500 500" enable-background="new 0 0 500 500" xml:space="preserve">
<g id="Layer_2">
	<rect fill="#F7F7F7" width="500" height="500"/>
</g>
<g id="Layer_1">
	<path fill="#D6D6D6" d="M243.1,35c2.9,0,5.8,0.1,8.7,0.1c17.9-0.2,88,4.2,91.5,87.3c1.9,44.2-8.9,75.2-20.9,95.9
		c-16.8,28.8-38.1,46.5-76,46.5c-28,0-65.6-22.2-81.1-79C132.3,64.7,206.3,34.5,243.1,35z"/>
	<path fill="#D6D6D6" d="M176,253.3c0,0-22.7,11-38.7,15.7s-32.3,13.3-44,48.7c-8.7,26.4-13.2,75.9-14.8,99c-0.5,7.4,4,14.3,11,16.7
		l22.9,7.9c84.7,29.2,176.4,30.6,261.9,4l32.2-10c10.1-2.8,16.8-12.5,15.7-23l-3.3-32c-2.2-21.2-6.4-42.2-12.6-62.6l-2-6.7
		c0,0-6.7-30.7-42.3-42c-30.5-9.7-38.3-15.7-38.3-15.7s-21.3,33-73.7,33C197.3,286.3,176,253.3,176,253.3z"/>
</g>
</svg>
