<?xml version="1.0" encoding="utf-8"?>
<!-- Generator: Adobe Illustrator 18.1.1, SVG Export Plug-In . SVG Version: 6.00 Build 0)  -->
<svg version="1.1" id="Layer_1" xmlns="http://www.w3.org/2000/svg" xmlns:xlink="http://www.w3.org/1999/xlink" x="0px" y="0px"
	 viewBox="0 0 900 300" enable-background="new 0 0 900 300" xml:space="preserve">
<rect fill-rule="evenodd" clip-rule="evenodd" fill="#F9F9FA" width="900" height="300"/>
<g>
	<g>
		<path fill-rule="evenodd" clip-rule="evenodd" fill="#7F7F7F" d="M456.1,135.5c-1.9-1.9-4.1-3.3-6.5-4.4c-2.3-1-4.9-1.5-7.7-1.5
			c-2.7,0-5.3,0.5-7.6,1.5c-2.5,1-4.6,2.5-6.5,4.4c-1.9,1.9-3.4,4.1-4.4,6.5c-1,2.3-1.5,4.9-1.5,7.7c0,2.8,0.5,5.3,1.5,7.7
			c1,2.4,2.5,4.6,4.4,6.5c1.9,1.9,4,3.4,6.5,4.4c2.3,1,4.9,1.5,7.6,1.5c2.8,0,5.3-0.5,7.7-1.5c2.4-1,4.6-2.5,6.5-4.4
			c1.9-1.9,3.3-4,4.4-6.5c1-2.4,1.5-4.9,1.5-7.7c0-2.7-0.5-5.3-1.5-7.7C459.5,139.6,458,137.4,456.1,135.5z"/>
		<path fill-rule="evenodd" clip-rule="evenodd" fill="#7F7F7F" d="M506.9,114.6c-0.9-3.1-3.7-5.4-7.1-5.7h-30.2l-2.1-10.7
			c-0.6-3-3.2-5.2-6.2-5.2h-19.5h-19.3c-3,0-5.6,2.2-6.2,5.2l-2.1,10.7h-30.2c-4.2,0.4-7.4,3.8-7.4,8.1v65.3c0,4.5,3.6,8.2,8.2,8.2
			h114.3c4.5,0,8.1-3.7,8.1-8.2v-15v-3.4v-18.2v-2.6v-12.3L506.9,114.6z M394.9,126.6c-3.1,0-5.6-2.5-5.6-5.6c0-3.1,2.5-5.6,5.6-5.6
			c3.1,0,5.6,2.5,5.6,5.6C400.4,124.2,398,126.6,394.9,126.6z M469.4,161L469.4,161c-1.5,3.6-3.7,6.9-6.5,9.6v0
			c-2.7,2.7-6,4.9-9.6,6.4h0c-3.5,1.5-7.4,2.2-11.4,2.2c-4,0-7.9-0.8-11.4-2.2c-3.6-1.5-6.9-3.7-9.6-6.4v0c-2.7-2.7-4.9-6-6.4-9.6h0
			c-1.4-3.5-2.2-7.4-2.2-11.4c0-4,0.8-7.8,2.2-11.3h0c1.5-3.6,3.7-6.9,6.4-9.6c2.7-2.7,6-4.9,9.6-6.4c3.5-1.5,7.4-2.3,11.4-2.3
			c4,0,7.9,0.8,11.4,2.3h0c3.6,1.5,6.9,3.7,9.6,6.4c2.8,2.7,4.9,6,6.4,9.6h0c1.4,3.5,2.3,7.3,2.3,11.3
			C471.7,153.7,470.9,157.5,469.4,161z"/>
	</g>
</g>
</svg>
