<?xml version="1.0" encoding="utf-8"?>
<!-- Generator: Adobe Illustrator 18.1.1, SVG Export Plug-In . SVG Version: 6.00 Build 0)  -->
<svg version="1.1" id="Layer_1" xmlns="http://www.w3.org/2000/svg" xmlns:xlink="http://www.w3.org/1999/xlink" x="0px" y="0px"
	 viewBox="0 0 195 168" enable-background="new 0 0 195 168" xml:space="preserve">
<g>
	<g>
		<path fill="#D1D1D1" d="M85.8,163.5h2.2V94.3H28.4l0,11.8C28.4,137.8,54.1,163.5,85.8,163.5z"/>
		<path fill="#D1D1D1" d="M108.3,163.5h-1.3V94.3h59.6v10.9C166.6,137.4,140.4,163.5,108.3,163.5z"/>
		<path fill="#D1D1D1" d="M166.3,45.2h-13.3c12.8-23-9.8-35.9-9.8-35.9C112-5.2,97.5,31.7,97.5,31.7C89.6,12.3,77.7,6.9,69.1,5.8
			c-5.7-0.7-11.4,0.7-16.4,3.6C31.9,21.5,38.3,38.6,41.8,45.2h-13c-5.6,0-10.2,4.6-10.2,10.2v19.2c0,5.6,4.6,10.2,10.2,10.2h137.5
			c5.6,0,10.2-4.6,10.2-10.2V55.4C176.4,49.7,171.9,45.2,166.3,45.2z M115.6,30.8c5.6-8.9,11.3-10.7,15.6-10.1
			c4.2,0.5,7.7,3.4,9.5,7.2c4.6,9.7-1.9,14.7-9.6,17.3H107C109.5,41.3,112.1,36.4,115.6,30.8z M53.3,29.3c4.8-10.4,13.3-10.1,18-7.7
			c2.8,1.5,5.2,3.8,6.9,6.5l10.6,17.1H61.3C54.3,40.6,51,34.2,53.3,29.3z"/>
	</g>
</g>
</svg>
