<?xml version="1.0" encoding="utf-8"?>
<!-- Generator: Adobe Illustrator 18.1.1, SVG Export Plug-In . SVG Version: 6.00 Build 0)  -->
<svg version="1.1" id="Layer_1" xmlns="http://www.w3.org/2000/svg" xmlns:xlink="http://www.w3.org/1999/xlink" x="0px" y="0px"
	 viewBox="0 0 266 314" enable-background="new 0 0 266 314" xml:space="preserve">
<g>
	<path fill="#B82025" d="M205.9,314H66.4c-15.3,0-27.7-12.4-27.7-27.7V57.6h194.9v228.7C233.6,301.6,221.2,314,205.9,314z"/>
	<path fill="#B82025" d="M195.4,12.1V12c0-5.7-4.7-10.4-10.4-10.4H81.6c-5.7,0-10.4,4.7-10.4,10.4v0.1c0,5.7-4.7,10.4-10.4,10.4
		H13.4C7.7,22.6,3,27.2,3,33v2.7C3,41.4,7.7,46,13.4,46h239.8c5.7,0,10.4-4.7,10.4-10.4V33c0-5.7-4.7-10.4-10.4-10.4h-47.4
		C200.1,22.6,195.4,17.9,195.4,12.1z"/>
</g>
</svg>
