<?xml version="1.0" encoding="utf-8"?>
<!-- Generator: Adobe Illustrator 18.1.1, SVG Export Plug-In . SVG Version: 6.00 Build 0)  -->
<svg version="1.1" id="Layer_1" xmlns="http://www.w3.org/2000/svg" xmlns:xlink="http://www.w3.org/1999/xlink" x="0px" y="0px"
	 viewBox="0 0 300 300" enable-background="new 0 0 300 300" xml:space="preserve">
<linearGradient id="SVGID_1_" gradientUnits="userSpaceOnUse" x1="34.6959" y1="299.0233" x2="265.2736" y2="3.8972">
	<stop  offset="0" style="stop-color:#00ADEE"/>
	<stop  offset="0.248" style="stop-color:#04AAEE"/>
	<stop  offset="0.4823" style="stop-color:#0FA1EE"/>
	<stop  offset="0.7112" style="stop-color:#2292EE"/>
	<stop  offset="0.9356" style="stop-color:#3D7DED"/>
	<stop  offset="1" style="stop-color:#4676ED"/>
</linearGradient>
<path fill-rule="evenodd" clip-rule="evenodd" fill="url(#SVGID_1_)" d="M248.3,299H51.7C24.4,299,2,276.6,2,249.3V53.6
	C2,26.3,24.4,3.9,51.7,3.9h196.6c27.3,0,49.7,22.4,49.7,49.7v195.7C298,276.6,275.6,299,248.3,299z"/>
<g>
	<path fill="#FFFFFF" d="M118.7,299V197.5H81.9v-42h36.9v-32c0-36.4,21.7-56.5,54.9-56.5c15.9,0,32.5,2.8,32.5,2.8v35.8h-18.3
		c-18,0-23.7,11.2-23.7,22.7v27.3h40.3l-6.4,42h-33.8V299H118.7z"/>
</g>
</svg>
