<?xml version="1.0" encoding="utf-8"?>
<!-- Generator: Adobe Illustrator 18.1.1, SVG Export Plug-In . SVG Version: 6.00 Build 0)  -->
<svg version="1.1" id="Layer_1" xmlns="http://www.w3.org/2000/svg" xmlns:xlink="http://www.w3.org/1999/xlink" x="0px" y="0px"
	 viewBox="0 0 264 356" enable-background="new 0 0 264 356" xml:space="preserve">
<linearGradient id="SVGID_1_" gradientUnits="userSpaceOnUse" x1="146.6164" y1="23.6724" x2="123.3929" y2="355.783">
	<stop  offset="0" style="stop-color:#ED1C24"/>
	<stop  offset="0.1808" style="stop-color:#C5242B"/>
	<stop  offset="0.4589" style="stop-color:#8C3035"/>
	<stop  offset="0.6981" style="stop-color:#63393C"/>
	<stop  offset="0.8863" style="stop-color:#4A3E40"/>
	<stop  offset="1" style="stop-color:#414042"/>
</linearGradient>
<path fill="url(#SVGID_1_)" d="M253.4,194.9c0,0-2.4-29.7-55.2-80.2c-49-46.8-47.3-53.9-50.5-76.1c-0.7-5-3.2-9.8-7.2-12.9
	c-5.5-4.3-14.1-6-23.4,10.2c-16,27.8-36.8,52.8-17.9,95.8c0,0,17,25.9,40.1,45.8c0,0,35.4,36.8-2.4,67.5c-17,13.8-32.3,9.7-44.1,1.1
	c-15-11-23.4-29-23.2-47.6l0.3-43.6c0,0-3.8-33.5-34.4,0s-46.7,119.4,20.3,175s217.5,28.3,198.2-131.6"/>
</svg>
