<?xml version="1.0" encoding="utf-8"?>
<!-- Generator: Adobe Illustrator 18.1.1, SVG Export Plug-In . SVG Version: 6.00 Build 0)  -->
<svg version="1.1" id="Layer_1" xmlns="http://www.w3.org/2000/svg" xmlns:xlink="http://www.w3.org/1999/xlink" x="0px" y="0px"
	 viewBox="0 0 195 168" enable-background="new 0 0 195 168" xml:space="preserve">
<path fill="#D1D1D1" d="M193.2,46.5c0-0.3-0.1-0.6-0.1-0.9c0-0.1,0-0.2-0.1-0.4c0-0.2-0.1-0.3-0.1-0.5C188.5,20.2,167,1.6,141,1.6
	c-16.9,0-32,6.8-41.6,18.9c-1,1.2-2.9,1.2-3.8,0C85.9,8.3,70.8,1.6,53.9,1.6C24.8,1.6,1.2,25,1.2,53.9c0,0.3,0,0.6,0,0.8l0,0
	c0,0-2,21,14.3,39.9c16.3,18.9,72.4,68,72.4,68s9.5,9.2,20.1,0c10.7-9.2,71.3-67.4,71.3-67.4S198.1,79,193.2,46.5z"/>
</svg>
