<?xml version="1.0" encoding="utf-8"?>
<!-- Generator: Adobe Illustrator 18.1.1, SVG Export Plug-In . SVG Version: 6.00 Build 0)  -->
<svg version="1.1" id="Layer_1" xmlns="http://www.w3.org/2000/svg" xmlns:xlink="http://www.w3.org/1999/xlink" x="0px" y="0px"
	 viewBox="0 0 300 300" enable-background="new 0 0 300 300" xml:space="preserve">
<linearGradient id="SVGID_1_" gradientUnits="userSpaceOnUse" x1="34.6959" y1="299.0233" x2="265.2736" y2="3.8972">
	<stop  offset="0" style="stop-color:#1B75BB"/>
	<stop  offset="0.2707" style="stop-color:#1C71B8"/>
	<stop  offset="0.5501" style="stop-color:#1D64B0"/>
	<stop  offset="0.8326" style="stop-color:#2050A3"/>
	<stop  offset="1" style="stop-color:#224099"/>
</linearGradient>
<path fill-rule="evenodd" clip-rule="evenodd" fill="url(#SVGID_1_)" d="M248.3,299H51.7C24.4,299,2,276.6,2,249.3V53.6
	C2,26.3,24.4,3.9,51.7,3.9h196.6c27.3,0,49.7,22.4,49.7,49.7v195.7C298,276.6,275.6,299,248.3,299z"/>
<g>
	<g>
		<g>
			<path fill="#FEFEFE" d="M155,138.7c2.1-2.4,3.9-4.8,6.1-6.9c6.7-6.3,14.7-9.5,23.9-9.4c5.1,0,10.1,0.4,15.1,1.8
				c11.2,3.3,17.8,11,20.9,22c2.3,8.2,2.8,16.7,2.8,25.2c0,17.9-0.1,35.8,0,53.7c0,1.7-0.5,2.1-2.1,2.1c-9.2-0.1-18.4-0.1-27.7,0
				c-1.6,0-2-0.5-2-2c0.1-17,0.1-34.1,0-51.1c0-4.3-0.3-8.5-1.5-12.7c-2.2-7.6-7.7-11.5-15.7-11.1c-10.9,0.6-16.6,6-18,17.1
				c-0.3,2.7-0.5,5.3-0.5,8c0,16.6,0,33.1,0,49.7c0,1.7-0.4,2.1-2.1,2.1c-9.3-0.1-18.6-0.1-27.9,0c-1.5,0-1.9-0.4-1.9-1.9
				c0-32.8,0-65.6,0-98.4c0-1.6,0.5-2,2.1-2c8.8,0.1,17.6,0.1,26.5,0c1.6,0,2,0.5,2,2C155,130.8,155,134.8,155,138.7z"/>
			<path fill="#FEFEFE" d="M104.5,176.2c0,16.2,0,32.4,0,48.7c0,1.8-0.4,2.3-2.3,2.3c-9.2-0.1-18.4-0.1-27.7,0
				c-1.5,0-1.9-0.4-1.9-1.9c0-32.8,0-65.7,0-98.5c0-1.4,0.3-1.8,1.8-1.8c9.4,0.1,18.7,0.1,28.1,0c1.8,0,2,0.7,2,2.2
				C104.5,143.4,104.5,159.8,104.5,176.2z"/>
			<path fill="#FEFEFE" d="M107,92.3c0,10.2-8.3,18.5-18.4,18.5c-10,0-18.4-8.3-18.4-18.3c0-10.1,8.3-18.5,18.4-18.5
				C98.7,74,107,82.3,107,92.3z"/>
		</g>
	</g>
</g>
</svg>
