<?xml version="1.0" encoding="utf-8"?>
<!-- Generator: Adobe Illustrator 18.1.1, SVG Export Plug-In . SVG Version: 6.00 Build 0)  -->
<svg version="1.1" id="Layer_1" xmlns="http://www.w3.org/2000/svg" xmlns:xlink="http://www.w3.org/1999/xlink" x="0px" y="0px"
	 viewBox="0 0 500 100" enable-background="new 0 0 500 100" xml:space="preserve">
<linearGradient id="SVGID_1_" gradientUnits="userSpaceOnUse" x1="21.7709" y1="92.7205" x2="38.0512" y2="8.9653">
	<stop  offset="0" style="stop-color:#019547"/>
	<stop  offset="0.1227" style="stop-color:#169D48"/>
	<stop  offset="0.3857" style="stop-color:#2BAC4A"/>
	<stop  offset="0.5566" style="stop-color:#2FB44A"/>
	<stop  offset="0.6361" style="stop-color:#56B948"/>
	<stop  offset="0.7995" style="stop-color:#92C83F"/>
	<stop  offset="1" style="stop-color:#D8E028"/>
</linearGradient>
<path fill="url(#SVGID_1_)" d="M28.5,8.6c11.9,0,21,2.1,27.4,6.3c6.4,4.2,9.6,11,9.6,20.6c0,9.6-3.2,16.5-9.7,20.8
	c-6.4,4.3-15.7,6.4-27.6,6.4h-5.6v26.7h-18V10.7c3.9-0.8,8.1-1.3,12.4-1.6C21.3,8.8,25.1,8.6,28.5,8.6z M29.6,23.9
	c-1.3,0-2.6,0-3.9,0.1c-1.3,0.1-2.4,0.2-3.3,0.2v23h5.6c6.2,0,10.9-0.8,14.1-2.5c3.1-1.7,4.7-4.8,4.7-9.4c0-2.2-0.4-4.1-1.2-5.5
	c-0.8-1.5-2-2.6-3.5-3.5c-1.5-0.9-3.3-1.5-5.5-1.8C34.6,24.1,32.2,23.9,29.6,23.9z"/>
<linearGradient id="SVGID_2_" gradientUnits="userSpaceOnUse" x1="85.5448" y1="90.2609" x2="98.1943" y2="25.1847">
	<stop  offset="0" style="stop-color:#019547"/>
	<stop  offset="0.1227" style="stop-color:#169D48"/>
	<stop  offset="0.3857" style="stop-color:#2BAC4A"/>
	<stop  offset="0.5566" style="stop-color:#2FB44A"/>
	<stop  offset="0.6361" style="stop-color:#56B948"/>
	<stop  offset="0.7995" style="stop-color:#92C83F"/>
	<stop  offset="1" style="stop-color:#D8E028"/>
</linearGradient>
<path fill="url(#SVGID_2_)" d="M114,43.3c-1.5-0.4-3.3-0.8-5.4-1.2c-2.1-0.4-4.3-0.6-6.7-0.6c-1.1,0-2.4,0.1-3.9,0.3
	c-1.5,0.2-2.6,0.4-3.4,0.6v46.3H77.5V31.3c3.1-1.1,6.7-2.1,10.9-3.1c4.2-1,8.8-1.4,14-1.4c0.9,0,2,0.1,3.3,0.2
	c1.3,0.1,2.6,0.3,3.9,0.5c1.3,0.2,2.6,0.4,3.9,0.7c1.3,0.3,2.4,0.6,3.3,1L114,43.3z"/>
<linearGradient id="SVGID_3_" gradientUnits="userSpaceOnUse" x1="145.8225" y1="89.8109" x2="158.0253" y2="27.0331" gradientTransform="matrix(0.9824 0.1869 -0.1869 0.9824 13.5891 -27.3477)">
	<stop  offset="0" style="stop-color:#019547"/>
	<stop  offset="0.1227" style="stop-color:#169D48"/>
	<stop  offset="0.3857" style="stop-color:#2BAC4A"/>
	<stop  offset="0.5566" style="stop-color:#2FB44A"/>
	<stop  offset="0.6361" style="stop-color:#56B948"/>
	<stop  offset="0.7995" style="stop-color:#92C83F"/>
	<stop  offset="1" style="stop-color:#D8E028"/>
</linearGradient>
<path fill="url(#SVGID_3_)" d="M181.6,58.1c0,4.8-0.6,9.1-2,13.1c-1.4,4-3.3,7.4-5.9,10.2c-2.6,2.8-5.7,5-9.3,6.6
	c-3.6,1.6-7.7,2.4-12.2,2.4c-4.5,0-8.5-0.7-12.2-2.2c-3.7-1.5-6.8-3.7-9.4-6.4c-2.6-2.8-4.7-6.1-6.2-10.1c-1.5-3.9-2.3-8.3-2.3-13.1
	c0-4.8,0.7-9.1,2.1-13c1.5-3.9,3.5-7.3,6.1-10.1c2.6-2.8,5.8-5,9.4-6.5c3.6-1.6,7.6-2.4,11.9-2.4c4.4,0,8.4,0.7,12.1,2.2
	c3.7,1.5,6.8,3.6,9.4,6.4c2.6,2.7,4.7,6.1,6.2,10C180.8,49,181.6,53.3,181.6,58.1z M164.1,58.2c0-5.3-1.1-9.5-3.3-12.5
	c-2.1-3-5.2-4.5-9.1-4.5c-3.9,0-6.9,1.6-9.1,4.6c-2.1,3.1-3.2,7.2-3.1,12.5c0,5.3,1.1,9.5,3.3,12.6c2.2,3.1,5.2,4.6,9.1,4.6
	c3.9,0,6.9-1.6,9-4.7C163.1,67.7,164.2,63.5,164.1,58.2z"/>
<linearGradient id="SVGID_4_" gradientUnits="userSpaceOnUse" x1="294.1371" y1="90.1097" x2="306.278" y2="27.6505">
	<stop  offset="0" style="stop-color:#019547"/>
	<stop  offset="0.1227" style="stop-color:#169D48"/>
	<stop  offset="0.3857" style="stop-color:#2BAC4A"/>
	<stop  offset="0.5566" style="stop-color:#2FB44A"/>
	<stop  offset="0.6361" style="stop-color:#56B948"/>
	<stop  offset="0.7995" style="stop-color:#92C83F"/>
	<stop  offset="1" style="stop-color:#D8E028"/>
</linearGradient>
<path fill="url(#SVGID_4_)" d="M271.2,59.5c0-5.4,0.8-10.1,2.5-14.1c1.6-4,3.8-7.4,6.5-10.1c2.7-2.7,5.8-4.7,9.3-6.1
	c3.5-1.4,7.1-2.1,10.8-2.1c8.6,0,15.4,2.6,20.4,7.9c5,5.3,7.5,13,7.5,23.2c0,1,0,2.1-0.1,3.3c-0.1,1.2-0.2,2.2-0.2,3.2h-38.9
	c0.4,3.5,2,6.3,5,8.4c2.9,2.1,6.8,3.1,11.7,3.1c3.1,0,6.2-0.3,9.3-0.9c3-0.6,5.5-1.3,7.4-2.1l2.3,13.9c-0.9,0.5-2.2,0.9-3.7,1.4
	c-1.5,0.5-3.2,0.9-5.1,1.2c-1.9,0.3-3.9,0.6-6,0.9c-2.2,0.2-4.3,0.3-6.5,0.3c-5.5,0-10.2-0.8-14.2-2.4c-4-1.6-7.4-3.8-10-6.6
	c-2.6-2.8-4.6-6.1-5.9-10C271.8,68.1,271.2,64,271.2,59.5z M311.5,53c-0.1-1.5-0.3-2.9-0.7-4.3c-0.4-1.4-1.1-2.6-2-3.7
	c-0.9-1.1-2-2-3.3-2.6c-1.3-0.7-3-1-5-1c-1.9,0-3.6,0.3-5,1c-1.4,0.7-2.5,1.5-3.5,2.6c-0.9,1.1-1.6,2.3-2.1,3.7
	c-0.5,1.4-0.9,2.9-1.1,4.3H311.5z"/>
<linearGradient id="SVGID_5_" gradientUnits="userSpaceOnUse" x1="349.3308" y1="90.9233" x2="361.9803" y2="25.8473">
	<stop  offset="0" style="stop-color:#019547"/>
	<stop  offset="0.1227" style="stop-color:#169D48"/>
	<stop  offset="0.3857" style="stop-color:#2BAC4A"/>
	<stop  offset="0.5566" style="stop-color:#2FB44A"/>
	<stop  offset="0.6361" style="stop-color:#56B948"/>
	<stop  offset="0.7995" style="stop-color:#92C83F"/>
	<stop  offset="1" style="stop-color:#D8E028"/>
</linearGradient>
<path fill="url(#SVGID_5_)" d="M377.8,44c-1.5-0.4-3.3-0.8-5.4-1.2c-2.1-0.4-4.3-0.6-6.7-0.6c-1.1,0-2.4,0.1-3.9,0.3
	c-1.5,0.2-2.6,0.4-3.4,0.6v46.3h-17.2V32c3.1-1.1,6.7-2.1,10.9-3.1c4.2-1,8.8-1.4,14-1.4c0.9,0,2,0.1,3.3,0.2
	c1.3,0.1,2.6,0.3,3.9,0.5c1.3,0.2,2.6,0.4,3.9,0.7c1.3,0.3,2.4,0.6,3.3,1L377.8,44z"/>
<linearGradient id="SVGID_6_" gradientUnits="userSpaceOnUse" x1="401.9115" y1="89.3211" x2="416.7612" y2="12.926">
	<stop  offset="0" style="stop-color:#019547"/>
	<stop  offset="0.1227" style="stop-color:#169D48"/>
	<stop  offset="0.3857" style="stop-color:#2BAC4A"/>
	<stop  offset="0.5566" style="stop-color:#2FB44A"/>
	<stop  offset="0.6361" style="stop-color:#56B948"/>
	<stop  offset="0.7995" style="stop-color:#92C83F"/>
	<stop  offset="1" style="stop-color:#D8E028"/>
</linearGradient>
<path fill="url(#SVGID_6_)" d="M389.3,13.7l17.2-2.8v17.9h20.6v14.3h-20.6v21.3c0,3.6,0.6,6.5,1.9,8.6c1.3,2.2,3.8,3.2,7.7,3.2
	c1.8,0,3.7-0.2,5.7-0.5c2-0.3,3.7-0.8,5.4-1.4l2.4,13.4c-2.1,0.8-4.4,1.6-6.9,2.2c-2.5,0.6-5.6,0.9-9.3,0.9c-4.7,0-8.6-0.6-11.6-1.9
	c-3.1-1.3-5.5-3-7.4-5.3c-1.8-2.3-3.1-5-3.9-8.2c-0.7-3.2-1.1-6.8-1.1-10.7V13.7z"/>
<linearGradient id="SVGID_7_" gradientUnits="userSpaceOnUse" x1="459.5402" y1="90.4446" x2="471.7369" y2="27.6977">
	<stop  offset="0" style="stop-color:#019547"/>
	<stop  offset="0.1227" style="stop-color:#169D48"/>
	<stop  offset="0.3857" style="stop-color:#2BAC4A"/>
	<stop  offset="0.5566" style="stop-color:#2FB44A"/>
	<stop  offset="0.6361" style="stop-color:#56B948"/>
	<stop  offset="0.7995" style="stop-color:#92C83F"/>
	<stop  offset="1" style="stop-color:#D8E028"/>
</linearGradient>
<path fill="url(#SVGID_7_)" d="M495.4,59c0,4.8-0.7,9.1-2.1,13.1c-1.4,4-3.4,7.3-6,10.1c-2.6,2.8-5.7,5-9.4,6.5
	c-3.6,1.5-7.7,2.3-12.3,2.3c-4.5,0-8.5-0.8-12.2-2.3c-3.6-1.5-6.8-3.7-9.4-6.5c-2.6-2.8-4.6-6.2-6.1-10.1c-1.5-4-2.2-8.3-2.2-13.1
	c0-4.8,0.7-9.1,2.2-13c1.5-3.9,3.6-7.3,6.2-10c2.6-2.8,5.8-4.9,9.4-6.4c3.6-1.5,7.6-2.3,11.9-2.3c4.4,0,8.4,0.8,12,2.3
	c3.6,1.5,6.8,3.7,9.4,6.4c2.6,2.8,4.6,6.1,6.1,10C494.7,49.9,495.4,54.2,495.4,59z M477.9,59c0-5.3-1.1-9.5-3.2-12.5
	c-2.1-3-5.1-4.5-9-4.5c-3.9,0-7,1.5-9.1,4.5c-2.2,3-3.2,7.2-3.2,12.5c0,5.3,1.1,9.5,3.2,12.6c2.1,3.1,5.2,4.7,9.1,4.7
	c3.9,0,6.9-1.6,9-4.7C476.8,68.5,477.9,64.3,477.9,59z"/>
<linearGradient id="SVGID_8_" gradientUnits="userSpaceOnUse" x1="215.8897" y1="94.1795" x2="231.9899" y2="11.3511">
	<stop  offset="0" style="stop-color:#019547"/>
	<stop  offset="0.1227" style="stop-color:#169D48"/>
	<stop  offset="0.3857" style="stop-color:#2BAC4A"/>
	<stop  offset="0.5566" style="stop-color:#2FB44A"/>
	<stop  offset="0.6361" style="stop-color:#56B948"/>
	<stop  offset="0.7995" style="stop-color:#92C83F"/>
	<stop  offset="1" style="stop-color:#D8E028"/>
</linearGradient>
<path fill="url(#SVGID_8_)" d="M262.5,50.7c0,6.9-1.1,12.9-3.2,18.1c-2.2,5.1-5.2,9.4-9.2,12.8c-4,3.4-8.8,5.9-14.5,7.6
	c-5.7,1.7-12.1,2.5-19.1,2.5c-3.2,0-7-0.1-11.3-0.4c-4.3-0.3-8.5-0.8-12.7-1.7V11.9c4.1-0.8,8.5-1.3,13-1.6
	c4.5-0.3,8.3-0.4,11.6-0.4c6.8,0,13,0.8,18.6,2.3c5.6,1.5,10.3,4,14.3,7.3c4,3.3,7.1,7.5,9.2,12.7C261.4,37.3,262.5,43.5,262.5,50.7
	z M210.6,76.1c0.8,0.1,1.8,0.1,2.9,0.2c1.1,0,2.4,0.1,4,0.1c9,0,15.6-2.3,20-6.8c4.3-4.5,6.5-10.8,6.5-18.8c0-8.4-2.1-14.7-6.2-19
	c-4.1-4.3-10.7-6.4-19.7-6.4c-1.2,0-2.5,0-3.8,0.1c-1.3,0-2.5,0.1-3.7,0.3V76.1z"/>
</svg>
