<?xml version="1.0" encoding="utf-8"?>
<!-- Generator: Adobe Illustrator 18.1.1, SVG Export Plug-In . SVG Version: 6.00 Build 0)  -->
<svg version="1.1" id="Layer_1" xmlns="http://www.w3.org/2000/svg" xmlns:xlink="http://www.w3.org/1999/xlink" x="0px" y="0px"
	 viewBox="0 0 195 168" enable-background="new 0 0 195 168" xml:space="preserve">
<path fill="#D0D0D1" d="M109.3,90.5v31.8c0,7.8,9.2,12,15.1,6.9l63-54.5c4.5-3.9,4.5-10.9,0-14.9l-63-54.8
	c-5.9-5.1-15.1-0.9-15.1,6.9v28.9c0,0-85.3-3.8-99.9,41.3s15.1,73.4,15.1,73.4s8,8.8,14.3,10.1c6.3,1.3,7.8-7.2,5.3-11.5
	c0,0-11.3-32.4,3-47.4C64.9,88,109.3,90.5,109.3,90.5z"/>
</svg>
