<?xml version="1.0" encoding="utf-8"?>
<!-- Generator: Adobe Illustrator 18.1.1, SVG Export Plug-In . SVG Version: 6.00 Build 0)  -->
<svg version="1.1" id="Layer_1" xmlns="http://www.w3.org/2000/svg" xmlns:xlink="http://www.w3.org/1999/xlink" x="0px" y="0px"
	 viewBox="0 0 300 300" enable-background="new 0 0 300 300" xml:space="preserve">
<linearGradient id="SVGID_1_" gradientUnits="userSpaceOnUse" x1="29.2856" y1="293.3835" x2="270.6839" y2="5.6961">
	<stop  offset="0" style="stop-color:#00ADEE"/>
	<stop  offset="0.2442" style="stop-color:#03A7E9"/>
	<stop  offset="0.5578" style="stop-color:#0A97DA"/>
	<stop  offset="0.9079" style="stop-color:#177DC2"/>
	<stop  offset="1" style="stop-color:#1B75BB"/>
</linearGradient>
<path fill-rule="evenodd" clip-rule="evenodd" fill="url(#SVGID_1_)" d="M248.3,297.1H51.7C24.4,297.1,2,274.7,2,247.4V51.7
	C2,24.4,24.4,2,51.7,2h196.6C275.6,2,298,24.4,298,51.7v195.7C298,274.7,275.6,297.1,248.3,297.1z"/>
<g>
	<g>
		<path fill="#FFFFFF" d="M114.1,223.1c67.8,0,104.9-56.2,104.9-104.9c0-1.6,0-3.2-0.1-4.8c7.2-5.2,13.5-11.7,18.4-19.1
			c-6.6,2.9-13.7,4.9-21.2,5.8c7.6-4.6,13.5-11.8,16.2-20.4c-7.1,4.2-15,7.3-23.4,8.9c-6.7-7.2-16.3-11.6-26.9-11.6
			c-20.4,0-36.9,16.5-36.9,36.9c0,2.9,0.3,5.7,1,8.4c-30.6-1.5-57.8-16.2-76-38.5c-3.2,5.4-5,11.8-5,18.5c0,12.8,6.5,24.1,16.4,30.7
			c-6-0.2-11.7-1.8-16.7-4.6c0,0.2,0,0.3,0,0.5c0,17.9,12.7,32.8,29.6,36.1c-3.1,0.8-6.4,1.3-9.7,1.3c-2.4,0-4.7-0.2-6.9-0.7
			c4.7,14.6,18.3,25.3,34.4,25.6c-12.6,9.9-28.5,15.8-45.8,15.8c-3,0-5.9-0.2-8.8-0.5C73.9,217,93.3,223.1,114.1,223.1"/>
	</g>
</g>
</svg>
