<?xml version="1.0" encoding="utf-8"?>
<!-- Generator: Adobe Illustrator 18.1.1, SVG Export Plug-In . SVG Version: 6.00 Build 0)  -->
<svg version="1.1" id="Layer_1" xmlns="http://www.w3.org/2000/svg" xmlns:xlink="http://www.w3.org/1999/xlink" x="0px" y="0px"
	 viewBox="0 0 300 300" enable-background="new 0 0 300 300" xml:space="preserve">
<linearGradient id="SVGID_1_" gradientUnits="userSpaceOnUse" x1="93.0811" y1="284.361" x2="226.4366" y2="-29.8049">
	<stop  offset="0" style="stop-color:#39B54A"/>
	<stop  offset="0.1874" style="stop-color:#36B554"/>
	<stop  offset="0.4921" style="stop-color:#31B564"/>
	<stop  offset="0.7715" style="stop-color:#2DB66F"/>
	<stop  offset="1" style="stop-color:#2BB673"/>
</linearGradient>
<path fill="url(#SVGID_1_)" d="M222.5,298.2H77.7c-42,0-76.3-34.3-76.3-76.3V78.3C1.4,36.3,35.7,2,77.7,2h144.8
	c42,0,76.3,34.3,76.3,76.3v143.6C298.8,263.9,264.4,298.2,222.5,298.2z"/>
<g>
	<g id="WA_Logo_2_">
		<g>
			<path fill-rule="evenodd" clip-rule="evenodd" fill="#FFFFFF" d="M228.6,115.4c0-0.1-0.1-0.2-0.1-0.2c-16-34.5-47.9-54.4-83-54.4
				c-49.6,0-89.9,40.3-89.9,89.9c0,15.4,3.9,30.5,11.4,43.9c0.4,0.7,0.5,1.5,0.3,2.3l-11.1,40.4c-0.6,2.2,1.4,4.3,3.7,3.7l41.5-10.9
				c0.7-0.2,1.5-0.1,2.2,0.3c12.9,6.8,27.3,10.4,41.9,10.4h0c0,0,0,0,0,0C206.4,240.5,253.4,179.5,228.6,115.4z M145.4,225.3
				L145.4,225.3c-13.4,0-26.6-3.6-38.1-10.4l-1.7-1c-0.7-0.4-1.5-0.5-2.3-0.3l-22,5.8c-2.2,0.6-4.3-1.5-3.7-3.7l5.8-21.3
				c0.2-0.8,0.1-1.7-0.4-2.4l-1.1-1.7c-7.5-11.9-11.4-25.6-11.4-39.8c0-41.2,33.5-74.7,74.8-74.7c29.1,0,55.7,16.6,69,45.3
				c0,0.1,0.1,0.2,0.1,0.2C235.1,174.7,196.1,225.3,145.4,225.3z M186.4,169.4c-2.2-1.1-13.3-6.6-15.4-7.3c-2.1-0.7-3.6-1.1-5.1,1.1
				c-1.5,2.2-5.8,7.3-7.1,8.8c-1.3,1.5-2.6,1.7-4.9,0.6c-2.2-1.1-9.5-3.5-18.1-11.1c-6.7-6-11.2-13.3-12.5-15.6
				c-1.3-2.2-0.1-3.5,1-4.6c1-1,2.2-2.6,3.4-3.9c1.1-1.3,1.5-2.2,2.2-3.7c0.7-1.5,0.4-2.8-0.2-3.9c-0.6-1.1-5.1-12.2-6.9-16.7
				c-1.8-4.4-3.7-3.8-5.1-3.9c-1.3-0.1-2.8-0.1-4.3-0.1c-1.5,0-3.9,0.6-6,2.8c-2.1,2.2-7.9,7.7-7.9,18.7c0,11.1,8,21.7,9.2,23.2
				c1.1,1.5,15.8,24.2,38.4,33.9c5.4,2.3,9.5,3.7,12.8,4.7c5.4,1.7,10.3,1.5,14.2,0.9c4.3-0.6,13.3-5.4,15.2-10.7
				c1.9-5.2,1.9-9.7,1.3-10.7C190.2,171.1,188.7,170.5,186.4,169.4z"/>
		</g>
		<g>
			<path fill="none" stroke="#FFFFFF" stroke-miterlimit="10" d="M228.6,115.4c0-0.1-0.1-0.2-0.1-0.2c-16-34.5-47.9-54.4-83-54.4
				c-49.6,0-89.9,40.3-89.9,89.9c0,15.4,3.9,30.5,11.4,43.9c0.4,0.7,0.5,1.5,0.3,2.3l-11.1,40.4c-0.6,2.2,1.4,4.3,3.7,3.7l41.5-10.9
				c0.7-0.2,1.5-0.1,2.2,0.3c12.9,6.8,27.3,10.4,41.9,10.4h0c0,0,0,0,0,0C206.4,240.5,253.4,179.5,228.6,115.4z M145.4,225.3
				L145.4,225.3c-13.4,0-26.6-3.6-38.1-10.4l-1.7-1c-0.7-0.4-1.5-0.5-2.3-0.3l-22,5.8c-2.2,0.6-4.3-1.5-3.7-3.7l5.8-21.3
				c0.2-0.8,0.1-1.7-0.4-2.4l-1.1-1.7c-7.5-11.9-11.4-25.6-11.4-39.8c0-41.2,33.5-74.7,74.8-74.7c29.1,0,55.7,16.6,69,45.3
				c0,0.1,0.1,0.2,0.1,0.2C235.1,174.7,196.1,225.3,145.4,225.3z M186.4,169.4c-2.2-1.1-13.3-6.6-15.4-7.3c-2.1-0.7-3.6-1.1-5.1,1.1
				c-1.5,2.2-5.8,7.3-7.1,8.8c-1.3,1.5-2.6,1.7-4.9,0.6c-2.2-1.1-9.5-3.5-18.1-11.1c-6.7-6-11.2-13.3-12.5-15.6
				c-1.3-2.2-0.1-3.5,1-4.6c1-1,2.2-2.6,3.4-3.9c1.1-1.3,1.5-2.2,2.2-3.7c0.7-1.5,0.4-2.8-0.2-3.9c-0.6-1.1-5.1-12.2-6.9-16.7
				c-1.8-4.4-3.7-3.8-5.1-3.9c-1.3-0.1-2.8-0.1-4.3-0.1c-1.5,0-3.9,0.6-6,2.8c-2.1,2.2-7.9,7.7-7.9,18.7c0,11.1,8,21.7,9.2,23.2
				c1.1,1.5,15.8,24.2,38.4,33.9c5.4,2.3,9.5,3.7,12.8,4.7c5.4,1.7,10.3,1.5,14.2,0.9c4.3-0.6,13.3-5.4,15.2-10.7
				c1.9-5.2,1.9-9.7,1.3-10.7C190.2,171.1,188.7,170.5,186.4,169.4z"/>
		</g>
	</g>
</g>
</svg>
