<?xml version="1.0" encoding="utf-8"?>
<!-- Generator: Adobe Illustrator 18.1.1, SVG Export Plug-In . SVG Version: 6.00 Build 0)  -->
<svg version="1.1" id="Layer_1" xmlns="http://www.w3.org/2000/svg" xmlns:xlink="http://www.w3.org/1999/xlink" x="0px" y="0px"
	 viewBox="0 0 138 119" enable-background="new 0 0 138 119" xml:space="preserve">
<g>
	
		<linearGradient id="SVGID_1_" gradientUnits="userSpaceOnUse" x1="57.931" y1="84.1609" x2="64.7419" y2="28.6902" gradientTransform="matrix(1 -4.259818e-003 4.259818e-003 1 0.9681 -1.1643)">
		<stop  offset="0" style="stop-color:#079247"/>
		<stop  offset="0.186" style="stop-color:#21A048"/>
		<stop  offset="0.4253" style="stop-color:#34B04A"/>
		<stop  offset="0.5171" style="stop-color:#66B946"/>
		<stop  offset="0.6741" style="stop-color:#99C83E"/>
		<stop  offset="0.8126" style="stop-color:#BAD436"/>
		<stop  offset="0.926" style="stop-color:#CEDB2E"/>
		<stop  offset="1" style="stop-color:#D6DE2B"/>
	</linearGradient>
	
		<linearGradient id="SVGID_2_" gradientUnits="userSpaceOnUse" x1="50.1659" y1="86.2899" x2="71.9384" y2="29.5706" gradientTransform="matrix(1 -4.259818e-003 4.259818e-003 1 0.9681 -1.1643)">
		<stop  offset="0" style="stop-color:#079247"/>
		<stop  offset="0.186" style="stop-color:#21A048"/>
		<stop  offset="0.4253" style="stop-color:#34B04A"/>
		<stop  offset="0.5171" style="stop-color:#66B946"/>
		<stop  offset="0.6741" style="stop-color:#99C83E"/>
		<stop  offset="0.8126" style="stop-color:#BAD436"/>
		<stop  offset="0.926" style="stop-color:#CEDB2E"/>
		<stop  offset="1" style="stop-color:#D6DE2B"/>
	</linearGradient>
	<path fill="url(#SVGID_1_)" stroke="url(#SVGID_2_)" stroke-miterlimit="10" d="M59.5,55.6c0,0-2.3-8.5-11.8-10.1
		c-0.4-0.1-0.7-0.1-1.1-0.1l-12-0.3c0,0-1.1,8.4,1.6,17.3c2.7,8.9,6.7,18.4,6.7,18.4s9.5-5.7,10.5-9.3c0,0,16.1,6.8,36.4-3.8
		c0.2-0.1,0.4-0.2,0.5-0.3c0,0,0.7-3.9-1.1-11.6c-1.1-4.5-3.6-8.8-6.3-12.6c-0.3-0.4-0.5-0.7-0.8-1.1c-2.9-3.7-2.9-6.8-5.6-11.2
		c-0.3-0.5-0.7-0.9-1.2-1.2c-1.2-0.8-4-2-9.1-2.3c-0.4,0-0.9,0.1-1.2,0.2c-0.7,0.3-1.4,1.1-0.9,2.8c0,0.1,0-0.1,0,0
		c0,0-2.9-0.6-2.4,2.3c0.4,2.8,4,5.9,5.4,6.3c1.4,0.4,2.3,0,3.1,0.1c0.8,0.1,3.9,2.2,3.9,2.2s0,12.5,2.1,17.1l-3.6-0.7
		c0,0-1.4-3.9-6.9-5.5c-4.4-1.3-7.4,0.2-7.4,0.2"/>
	<path fill="none" stroke="#F7F7F6" stroke-width="1.5" stroke-linecap="round" stroke-miterlimit="10" d="M54.7,60.5
		c0,0,10.9,9.6,18.5,4.6"/>
	
		<line fill="none" stroke="#F7F7F6" stroke-width="1.5" stroke-linecap="round" stroke-miterlimit="10" x1="80.8" y1="66.1" x2="76.9" y2="66.1"/>
	
		<line fill="none" stroke="#F7F7F6" stroke-width="1.5" stroke-linecap="round" stroke-miterlimit="10" x1="78.8" y1="64.1" x2="78.8" y2="68"/>
	
		<line fill="none" stroke="#F7F7F6" stroke-width="1.5" stroke-linecap="round" stroke-linejoin="round" stroke-miterlimit="10" x1="40.2" y1="48.7" x2="45.1" y2="48.7"/>
</g>
<g>
	<g>
		
			<linearGradient id="SVGID_3_" gradientUnits="userSpaceOnUse" x1="61.3165" y1="116.9884" x2="69.2939" y2="2.9069" gradientTransform="matrix(1 -4.259818e-003 4.259818e-003 1 0.9681 -1.1643)">
			<stop  offset="0" style="stop-color:#079247"/>
			<stop  offset="0.186" style="stop-color:#21A048"/>
			<stop  offset="0.4253" style="stop-color:#34B04A"/>
			<stop  offset="0.5171" style="stop-color:#66B946"/>
			<stop  offset="0.6741" style="stop-color:#99C83E"/>
			<stop  offset="0.8126" style="stop-color:#BAD436"/>
			<stop  offset="0.926" style="stop-color:#CEDB2E"/>
			<stop  offset="1" style="stop-color:#D6DE2B"/>
		</linearGradient>
		<path fill="url(#SVGID_3_)" d="M113.2,26.7c-6.1-1.1-16.1-0.3-28.3-9.3C76.1,10.9,67.7,1.3,67.7,1.3S59.3,11,50.6,17.5
			c-11.9,8.9-22.1,8.5-28.2,9.6c0.1,6.9-5.2,54,25,75.5c8.2,5.8,20.7,13.4,20.7,13.4c0.1,0,12.4-7.6,20.6-13.6
			C118.8,80.7,113.2,33.5,113.2,26.7z M104.3,45.7c0,6.4-0.6,12.7-2,18.9c-1.4,6.3-3.6,12.4-7,17.9c-3.8,6.1-9,10.5-14.9,14.5
			c-3.1,2.1-6.2,4.1-9.3,6.1c-1,0.6-2.3,1.9-3.5,1.5c-0.9-0.3-1.7-1-2.5-1.5c-1.4-0.8-2.7-1.7-4-2.5c-3.4-2.2-6.9-4.4-10.2-6.8
			c-10.7-7.9-16.1-20.6-18.2-33.4c-0.9-5.4-1.3-10.8-1.3-16.2c0-3.1,0.3-6.3,0.2-9.4c0-0.3,0.2-0.6,0.5-0.6c2.8-0.5,5.7-0.7,8.5-1.3
			c4.2-0.9,8.1-2.6,11.7-4.9c5.6-3.7,10.5-8.7,14.9-13.8c0.2-0.3,0.7-0.3,0.9,0c4.5,5.1,9.6,10.2,15.3,13.9
			c3.6,2.3,7.5,3.9,11.7,4.7c2.7,0.5,5.5,0.7,8.2,1.1c0.3,0.1,0.5,0.3,0.5,0.5c0,0,0,0.1,0,0.1C104,38.3,104.3,42,104.3,45.7z"/>
		<g>
			
				<linearGradient id="SVGID_4_" gradientUnits="userSpaceOnUse" x1="20.4431" y1="60.0531" x2="113.0006" y2="60.0531" gradientTransform="matrix(1 -4.259818e-003 4.259818e-003 1 0.9681 -1.1643)">
				<stop  offset="0" style="stop-color:#079247"/>
				<stop  offset="7.866221e-003" style="stop-color:#169347"/>
				<stop  offset="0.2686" style="stop-color:#8AB53F"/>
				<stop  offset="0.4519" style="stop-color:#C0D033"/>
				<stop  offset="0.5402" style="stop-color:#D6DE2B"/>
				<stop  offset="1" style="stop-color:#34B04A"/>
			</linearGradient>
			<path fill="url(#SVGID_4_)" d="M68.2,116.4c-0.1,0-0.1,0-0.2,0l0,0c-0.3-0.1-0.8-0.4-2.2-1.3c-0.9-0.6-2.8-1.7-5.2-3.2
				c-3.7-2.4-9.1-5.8-13.5-8.9c-11.7-8.3-19.5-21.5-23.2-39.1c-2.9-14.2-2.4-27.4-2.1-33.8c0.1-1.3,0.1-2.4,0.1-3
				c0-0.2,0.2-0.5,0.4-0.5c1.1-0.2,2.4-0.4,3.8-0.5c6.2-0.8,14.6-1.8,24.2-9c8.5-6.4,16.9-16,17-16.1c0.2-0.2,0.6-0.2,0.8,0
				c0.1,0.1,8.5,9.6,17.1,16c9.8,7.2,18.1,8.1,24.2,8.8c1.4,0.1,2.7,0.3,3.9,0.5c0.2,0,0.4,0.3,0.4,0.5c0,0.6,0.1,1.7,0.1,3
				c0.3,6.4,1,19.6-1.9,33.8c-3.5,17.6-11.2,30.8-22.9,39.3c-4.3,3.1-9.7,6.6-13.4,9c-2.4,1.5-4.3,2.7-5.2,3.3
				c-1.4,0.9-1.9,1.2-2.2,1.3l0,0C68.3,116.4,68.3,116.4,68.2,116.4C68.2,116.4,68.2,116.4,68.2,116.4z M22.9,27.5
				c0,0.7,0,1.6-0.1,2.6c-0.3,6.3-0.8,19.5,2.1,33.6c3.6,17.3,11.3,30.3,22.8,38.4c7.6,5.4,18.7,12.2,20.5,13.2
				c1.7-1,12.8-7.9,20.3-13.4c11.4-8.3,19-21.3,22.5-38.6c2.8-14.1,2.2-27.3,1.8-33.6c-0.1-1.1-0.1-2-0.1-2.6
				c-1-0.2-2.2-0.3-3.4-0.4c-6.2-0.7-14.6-1.6-24.7-8.9C76.9,12.1,69.5,4,67.7,2C66,4,58.5,12.3,50.9,17.9
				c-9.8,7.3-18.4,8.4-24.7,9.1C25,27.2,23.9,27.3,22.9,27.5z M68.1,105.3c-0.2,0-0.4,0-0.6-0.1c-0.7-0.2-1.3-0.7-1.9-1.1
				c-0.3-0.2-0.5-0.3-0.7-0.5c-1.3-0.8-2.7-1.7-4-2.5l-0.2-0.1c-3.3-2.1-6.8-4.3-10-6.7c-12.1-9-16.7-23.3-18.4-33.7
				C31.4,55.5,31,50,31,44.2c0-1.5,0.1-3.1,0.1-4.6c0.1-1.6,0.1-3.2,0.1-4.8c0-0.5,0.3-1,0.9-1.1c1.2-0.2,2.4-0.4,3.6-0.5
				c1.6-0.2,3.3-0.4,4.9-0.8c4.1-0.9,8-2.5,11.5-4.9c4.8-3.2,9.5-7.5,14.8-13.7c0.2-0.2,0.5-0.4,0.8-0.4c0,0,0,0,0,0
				c0.3,0,0.6,0.1,0.8,0.4c5.5,6.2,10.3,10.6,15.2,13.8c3.6,2.3,7.4,3.9,11.5,4.7c1.5,0.3,3,0.5,4.5,0.6c1.2,0.1,2.5,0.3,3.7,0.5
				c0.5,0.1,0.9,0.5,0.9,1c0,0,0,0.1,0,0.1c0,1.7,0.1,3.5,0.2,5.2c0.1,2,0.2,4,0.2,6c-0.1,7-0.7,13.2-2,19c-1.5,6.9-3.9,12.9-7,18
				c-3.4,5.4-7.9,9.8-15.1,14.7c-2.9,2-6,4-9.4,6.1c-0.2,0.1-0.4,0.3-0.7,0.5C70,104.6,69.1,105.3,68.1,105.3z M67.8,14.5
				C67.7,14.5,67.7,14.5,67.8,14.5c-5.4,6.2-10.2,10.6-15.1,13.9c-3.6,2.4-7.6,4.1-11.9,5c-1.7,0.4-3.3,0.6-5,0.8
				c-1.2,0.1-2.4,0.3-3.6,0.5c0,0,0,0.1,0,0.1c0,1.6-0.1,3.3-0.1,4.8c-0.1,1.5-0.1,3-0.1,4.6c0,5.7,0.4,11.1,1.2,16.2
				c1.7,10.2,6.2,24.3,18,33.1c3.2,2.4,6.6,4.5,9.9,6.6l0.2,0.1c1.4,0.9,2.7,1.7,4,2.5c0.2,0.2,0.5,0.3,0.8,0.5
				c0.5,0.4,1.1,0.8,1.6,0.9c0.7,0.2,1.5-0.4,2.3-1c0.3-0.2,0.5-0.4,0.7-0.5c3.4-2.1,6.4-4.1,9.3-6.1c7.1-4.8,11.5-9.1,14.8-14.4
				c3.1-5,5.4-11,6.9-17.7c1.3-5.8,1.9-11.9,1.9-18.8c0-2-0.1-4-0.2-5.9c-0.1-1.7-0.2-3.5-0.2-5.3c0,0,0-0.1,0-0.1c0,0,0,0,0,0
				c-1.2-0.2-2.4-0.3-3.6-0.5c-1.5-0.2-3.1-0.3-4.6-0.6c-4.2-0.8-8.2-2.4-11.9-4.8C78.3,25.3,73.4,20.8,67.8,14.5
				C67.8,14.5,67.8,14.5,67.8,14.5z"/>
		</g>
	</g>
</g>
<linearGradient id="SVGID_5_" gradientUnits="userSpaceOnUse" x1="32.2962" y1="61.0321" x2="101.2228" y2="61.0321" gradientTransform="matrix(1 -4.259818e-003 4.259818e-003 1 0.9681 -1.1643)">
	<stop  offset="0" style="stop-color:#079247"/>
	<stop  offset="7.866221e-003" style="stop-color:#169347"/>
	<stop  offset="0.2686" style="stop-color:#8AB53F"/>
	<stop  offset="0.4519" style="stop-color:#C0D033"/>
	<stop  offset="0.5402" style="stop-color:#D6DE2B"/>
	<stop  offset="1" style="stop-color:#34B04A"/>
</linearGradient>
<path fill="url(#SVGID_5_)" d="M68.3,102.8l-0.3-0.1c-0.1-0.1-0.2-0.1-0.2-0.2c-0.4-0.4-1-0.7-1.6-1c-0.3-0.2-0.6-0.3-0.9-0.5
	c-3.4-2.1-6.5-4.1-9.3-5.9c-6.7-4.5-11.2-8.9-14.4-14.4c-2.9-4.9-5-10.7-6.4-17.2c-1.1-5.4-1.7-11.2-1.8-17.7c0-1.7,0-3.5,0.1-5.2
	c0.1-1.4,0.1-2.9,0.1-4.4l0-0.4l0.4-0.1c1-0.2,2.1-0.3,3.1-0.4c1.7-0.2,3.5-0.5,5.2-0.9c3.9-0.9,7.6-2.5,10.9-4.7
	c4.6-3,9.2-7.3,14.2-12.9l0.4-0.5l0.4,0.4c5.1,5.7,9.9,10,14.6,13c3.3,2.2,6.9,3.7,10.7,4.5l0,0c1.7,0.4,3.4,0.6,5.1,0.7
	c1,0.1,2.1,0.2,3.2,0.4l0.4,0.1l0,0.5c0,1.6,0,3.3,0.1,4.9c0.1,5.9,0.2,12.1-0.7,18.2c-1.4,10.1-5.5,23.9-16.6,32.6
	c-2.7,2.2-5.7,4.1-8.6,6l-1,0.7c-1.4,0.9-2.7,1.8-4.1,2.6c-0.3,0.2-0.6,0.3-0.9,0.5c-0.6,0.3-1.3,0.7-1.7,1.1
	c-0.1,0.1-0.1,0.1-0.2,0.2L68.3,102.8z M34.7,36.7c0,1.3-0.1,2.7-0.1,4c-0.1,1.7-0.1,3.5-0.1,5.2c0.1,6.4,0.6,12.1,1.8,17.5
	c1.3,6.4,3.5,12.1,6.3,16.9c3.2,5.3,7.5,9.7,14.1,14.1c2.8,1.9,5.8,3.8,9.2,5.9c0.2,0.2,0.5,0.3,0.8,0.5c0.5,0.3,1.1,0.6,1.5,0.9
	c0.5-0.4,1.1-0.7,1.7-1c0.3-0.2,0.6-0.3,0.9-0.5c1.3-0.9,2.7-1.7,4.1-2.6l1-0.7c2.9-1.9,5.8-3.8,8.5-5.9
	c10.8-8.5,14.8-22.1,16.2-31.9c0.9-6.1,0.8-11.9,0.7-18.1c0-1.5-0.1-3-0.1-4.4c-0.9-0.1-1.8-0.2-2.7-0.3c-1.7-0.2-3.5-0.4-5.2-0.8
	l0,0c-3.9-0.8-7.6-2.4-11.1-4.6c-4.7-3-9.4-7.2-14.4-12.8c-4.9,5.5-9.4,9.6-14,12.7c-3.5,2.3-7.3,3.9-11.3,4.9
	c-1.8,0.4-3.6,0.6-5.3,0.9C36.5,36.4,35.6,36.5,34.7,36.7z"/>
<g opacity="0.65">
	<defs>
		<filter id="Adobe_OpacityMaskFilter" filterUnits="userSpaceOnUse" x="26.2" y="99.3" width="91.8" height="11.6">
			<feFlood  style="flood-color:white;flood-opacity:1" result="back"/>
			<feBlend  in="SourceGraphic" in2="back" mode="normal"/>
		</filter>
	</defs>
	<mask maskUnits="userSpaceOnUse" x="26.2" y="99.3" width="91.8" height="11.6" id="SVGID_6_">
		<g filter="url(#Adobe_OpacityMaskFilter)">
			<defs>
				<filter id="Adobe_OpacityMaskFilter_1_" filterUnits="userSpaceOnUse" x="26.2" y="99.3" width="91.8" height="11.6">
					<feFlood  style="flood-color:white;flood-opacity:1" result="back"/>
					<feBlend  in="SourceGraphic" in2="back" mode="normal"/>
				</filter>
			</defs>
			<mask maskUnits="userSpaceOnUse" x="26.2" y="99.3" width="91.8" height="11.6" id="SVGID_6_">
				<g filter="url(#Adobe_OpacityMaskFilter_1_)">
				</g>
			</mask>
			
				<linearGradient id="SVGID_7_" gradientUnits="userSpaceOnUse" x1="70.688" y1="115.0687" x2="70.688" y2="93.1133" gradientTransform="matrix(1 -4.259818e-003 4.259818e-003 1 0.9681 -1.1643)">
				<stop  offset="0" style="stop-color:#000000"/>
				<stop  offset="9.766161e-003" style="stop-color:#040404"/>
				<stop  offset="0.2289" style="stop-color:#4F4F4F"/>
				<stop  offset="0.4344" style="stop-color:#8D8D8D"/>
				<stop  offset="0.6199" style="stop-color:#BEBEBE"/>
				<stop  offset="0.7819" style="stop-color:#E2E2E2"/>
				<stop  offset="0.9141" style="stop-color:#F7F7F7"/>
				<stop  offset="1" style="stop-color:#FFFFFF"/>
			</linearGradient>
			<path mask="url(#SVGID_6_)" fill="url(#SVGID_7_)" d="M118,107.6c-29.9-11.2-62-11-91.8,0.4c0,1,0,2,0,3l91.8-0.4
				C118,109.6,118,108.6,118,107.6z"/>
		</g>
	</mask>
	
		<linearGradient id="SVGID_8_" gradientUnits="userSpaceOnUse" x1="70.688" y1="115.0687" x2="70.688" y2="93.1133" gradientTransform="matrix(1 -4.259818e-003 4.259818e-003 1 0.9681 -1.1643)">
		<stop  offset="0" style="stop-color:#FFFFFF"/>
		<stop  offset="0.1721" style="stop-color:#ABA8A8"/>
		<stop  offset="0.3904" style="stop-color:#676463"/>
		<stop  offset="0.5903" style="stop-color:#3D3B3A"/>
		<stop  offset="0.7648" style="stop-color:#202020"/>
		<stop  offset="0.9073" style="stop-color:#0B0B0B"/>
		<stop  offset="1" style="stop-color:#010101"/>
	</linearGradient>
	<path fill="url(#SVGID_8_)" d="M118,107.6c-29.9-11.2-62-11-91.8,0.4c0,1,0,2,0,3l91.8-0.4C118,109.6,118,108.6,118,107.6z"/>
</g>
<g>
	<g>
		
			<linearGradient id="SVGID_9_" gradientUnits="userSpaceOnUse" x1="114.1926" y1="115.952" x2="128.8527" y2="92.491" gradientTransform="matrix(1 -4.259818e-003 4.259818e-003 1 0.9681 -1.1643)">
			<stop  offset="0" style="stop-color:#079247"/>
			<stop  offset="0.186" style="stop-color:#21A048"/>
			<stop  offset="0.4253" style="stop-color:#34B04A"/>
			<stop  offset="0.4648" style="stop-color:#5BB747"/>
			<stop  offset="0.5389" style="stop-color:#85C142"/>
			<stop  offset="0.6167" style="stop-color:#A3CB3C"/>
			<stop  offset="0.698" style="stop-color:#BAD336"/>
			<stop  offset="0.7845" style="stop-color:#C9D930"/>
			<stop  offset="0.8797" style="stop-color:#D3DD2C"/>
			<stop  offset="1" style="stop-color:#D6DE2B"/>
		</linearGradient>
		<polygon fill="url(#SVGID_9_)" points="108.7,110 131.2,116.3 128.9,104.2 137.2,95.1 114.7,88.8 		"/>
		<path opacity="0.3" fill="#010101" d="M108.7,110.3l5.6,0.1c1.7,0,3.2-1.1,3.6-2.7l0.2-0.7l-7.9-2.2L108.7,110.3z"/>
	</g>
	<g>
		<g>
			
				<linearGradient id="SVGID_10_" gradientUnits="userSpaceOnUse" x1="106.7448" y1="104.6998" x2="136.6198" y2="104.6998" gradientTransform="matrix(1 -4.259818e-003 4.259818e-003 1 0.9681 -1.1643)">
				<stop  offset="0" style="stop-color:#079247"/>
				<stop  offset="2.472986e-002" style="stop-color:#2C9646"/>
				<stop  offset="0.1554" style="stop-color:#73AB42"/>
				<stop  offset="0.2769" style="stop-color:#9DBE3C"/>
				<stop  offset="0.3853" style="stop-color:#BBCE35"/>
				<stop  offset="0.4768" style="stop-color:#CFD92E"/>
				<stop  offset="0.5402" style="stop-color:#D6DE2B"/>
				<stop  offset="0.5998" style="stop-color:#CDDB2F"/>
				<stop  offset="0.697" style="stop-color:#B6D237"/>
				<stop  offset="0.8197" style="stop-color:#90C540"/>
				<stop  offset="0.9618" style="stop-color:#51B548"/>
				<stop  offset="1" style="stop-color:#34B04A"/>
			</linearGradient>
			<path fill="url(#SVGID_10_)" d="M131.8,117.4l-23.6-6.6l6.2-22.1l23.6,6.6l-8.6,9.5L131.8,117.4z M109.3,110.1l21.4,6l-2.2-11.6
				l8-8.8l-21.4-6L109.3,110.1z"/>
		</g>
		<g>
			
				<linearGradient id="SVGID_11_" gradientUnits="userSpaceOnUse" x1="106.7077" y1="109.7827" x2="117.1938" y2="109.7827" gradientTransform="matrix(1 -4.259818e-003 4.259818e-003 1 0.9681 -1.1643)">
				<stop  offset="0" style="stop-color:#079247"/>
				<stop  offset="2.472986e-002" style="stop-color:#2C9646"/>
				<stop  offset="0.1554" style="stop-color:#73AB42"/>
				<stop  offset="0.2769" style="stop-color:#9DBE3C"/>
				<stop  offset="0.3853" style="stop-color:#BBCE35"/>
				<stop  offset="0.4768" style="stop-color:#CFD92E"/>
				<stop  offset="0.5402" style="stop-color:#D6DE2B"/>
				<stop  offset="0.5998" style="stop-color:#CDDB2F"/>
				<stop  offset="0.697" style="stop-color:#B6D237"/>
				<stop  offset="0.8197" style="stop-color:#90C540"/>
				<stop  offset="0.9618" style="stop-color:#51B548"/>
				<stop  offset="1" style="stop-color:#34B04A"/>
			</linearGradient>
			<path fill="url(#SVGID_11_)" d="M114.4,111.3C114.4,111.3,114.4,111.3,114.4,111.3l-6.2-0.1l1.7-6.2l0.8,0.2l-1.4,5.1l5,0.1
				c0,0,0,0,0,0c1.5,0,2.8-1,3.2-2.4l0.2-0.7l0.9,0.2l-0.2,0.7C117.9,110,116.3,111.3,114.4,111.3z"/>
		</g>
	</g>
	<g>
		
			<linearGradient id="SVGID_12_" gradientUnits="userSpaceOnUse" x1="15.3531" y1="133.8746" x2="15.3531" y2="102.0573" gradientTransform="matrix(1 -4.259818e-003 4.259818e-003 1 0.9681 -1.1643)">
			<stop  offset="0" style="stop-color:#079247"/>
			<stop  offset="0.186" style="stop-color:#21A048"/>
			<stop  offset="0.4253" style="stop-color:#34B04A"/>
			<stop  offset="0.5798" style="stop-color:#6ABA46"/>
			<stop  offset="0.9201" style="stop-color:#C2D633"/>
			<stop  offset="1" style="stop-color:#D6DE2B"/>
		</linearGradient>
		<polygon fill="url(#SVGID_12_)" points="31.2,111.8 8.8,118.6 10.9,106.4 2.4,97.5 24.7,90.7 		"/>
		<path opacity="0.3" fill="#010101" d="M31.2,111.1l-5.6,0.2c-1.7,0.1-3.2-1-3.7-2.6l-0.2-0.7l7.8-2.4L31.2,111.1z"/>
	</g>
	<g>
		
			<linearGradient id="SVGID_13_" gradientUnits="userSpaceOnUse" x1="0.2131" y1="105.691" x2="30.289" y2="105.691" gradientTransform="matrix(1 -4.259818e-003 4.259818e-003 1 0.9681 -1.1643)">
			<stop  offset="0" style="stop-color:#079247"/>
			<stop  offset="7.866221e-003" style="stop-color:#169347"/>
			<stop  offset="0.2686" style="stop-color:#8AB53F"/>
			<stop  offset="0.4519" style="stop-color:#C0D033"/>
			<stop  offset="0.5402" style="stop-color:#D6DE2B"/>
			<stop  offset="1" style="stop-color:#34B04A"/>
		</linearGradient>
		<path fill="url(#SVGID_13_)" d="M8.3,119l2.1-12.6l-8.8-9.3L25,89.9l6.7,21.9L8.3,119z M3.2,97.5l8.2,8.6l-2,11.7l21.2-6.5
			L24.5,91L3.2,97.5z"/>
	</g>
	
		<linearGradient id="SVGID_14_" gradientUnits="userSpaceOnUse" x1="68.6321" y1="110.3007" x2="68.0995" y2="79.7891" gradientTransform="matrix(1 -4.259818e-003 4.259818e-003 1 0.9681 -1.1643)">
		<stop  offset="0" style="stop-color:#079247"/>
		<stop  offset="0.153" style="stop-color:#21A048"/>
		<stop  offset="0.3498" style="stop-color:#34B04A"/>
		<stop  offset="0.4309" style="stop-color:#65B946"/>
		<stop  offset="0.5539" style="stop-color:#90C540"/>
		<stop  offset="0.6748" style="stop-color:#AFCF39"/>
		<stop  offset="0.7915" style="stop-color:#C5D732"/>
		<stop  offset="0.902" style="stop-color:#D1DC2D"/>
		<stop  offset="1" style="stop-color:#D6DE2B"/>
	</linearGradient>
	<path fill="url(#SVGID_14_)" d="M117.7,107.8c-31.3-10-64.9-9.9-96.1,0.4c-2.3-7-4.6-14-6.9-20.9c35.6-11.7,74-11.9,109.7-0.5
		C122.2,93.8,120,100.8,117.7,107.8z"/>
	<g>
		
			<linearGradient id="SVGID_15_" gradientUnits="userSpaceOnUse" x1="19.7937" y1="110.2991" x2="30.3278" y2="110.2991" gradientTransform="matrix(1 -4.259818e-003 4.259818e-003 1 0.9681 -1.1643)">
			<stop  offset="0" style="stop-color:#079247"/>
			<stop  offset="2.472986e-002" style="stop-color:#2C9646"/>
			<stop  offset="0.1554" style="stop-color:#73AB42"/>
			<stop  offset="0.2769" style="stop-color:#9DBE3C"/>
			<stop  offset="0.3853" style="stop-color:#BBCE35"/>
			<stop  offset="0.4768" style="stop-color:#CFD92E"/>
			<stop  offset="0.5402" style="stop-color:#D6DE2B"/>
			<stop  offset="0.5998" style="stop-color:#CDDB2F"/>
			<stop  offset="0.697" style="stop-color:#B6D237"/>
			<stop  offset="0.8197" style="stop-color:#90C540"/>
			<stop  offset="0.9618" style="stop-color:#51B548"/>
			<stop  offset="1" style="stop-color:#34B04A"/>
		</linearGradient>
		<path fill="url(#SVGID_15_)" d="M25.5,112.2c-1.8,0-3.5-1.2-4-3l-0.2-0.7l0.8-0.3l0.2,0.7c0.4,1.4,1.8,2.4,3.3,2.3l5-0.2l-1.5-5
			l0.8-0.3l1.9,6.1l-6.2,0.2C25.6,112.2,25.5,112.2,25.5,112.2z"/>
	</g>
	<g>
		
			<linearGradient id="SVGID_16_" gradientUnits="userSpaceOnUse" x1="12.8657" y1="95.1394" x2="123.6942" y2="95.1394" gradientTransform="matrix(1 -4.259818e-003 4.259818e-003 1 0.9681 -1.1643)">
			<stop  offset="0" style="stop-color:#079247"/>
			<stop  offset="2.472986e-002" style="stop-color:#2C9646"/>
			<stop  offset="0.1554" style="stop-color:#73AB42"/>
			<stop  offset="0.2769" style="stop-color:#9DBE3C"/>
			<stop  offset="0.3853" style="stop-color:#BBCE35"/>
			<stop  offset="0.4768" style="stop-color:#CFD92E"/>
			<stop  offset="0.5402" style="stop-color:#D6DE2B"/>
			<stop  offset="0.5998" style="stop-color:#CDDB2F"/>
			<stop  offset="0.697" style="stop-color:#B6D237"/>
			<stop  offset="0.8197" style="stop-color:#90C540"/>
			<stop  offset="0.9618" style="stop-color:#51B548"/>
			<stop  offset="1" style="stop-color:#34B04A"/>
		</linearGradient>
		<path fill="url(#SVGID_16_)" d="M118,108.8l-0.4-0.1c-15.5-5-31.6-7.4-47.9-7.4c-16.3,0.1-32.4,2.7-47.9,7.8l-0.4,0.1l-7.2-21.8
			l0.4-0.1c17.8-5.8,36.3-8.9,55-8.9s37.2,2.8,55,8.5L125,87L118,108.8z M69.7,100.4c16.2-0.1,32.3,2.4,47.8,7.3l6.5-20.2
			c-17.6-5.6-35.9-8.4-54.3-8.3c-18.5,0.1-36.7,3-54.3,8.8l6.6,20.1C37.4,103.1,53.4,100.5,69.7,100.4z"/>
	</g>
</g>
<g>
	<g>
		<path fill="#FFFFFF" d="M31.5,91.6c0,0.1-0.1,0.3-0.5,0.5c-0.2,0.1-0.4,0.4-0.5,0.9c-0.1,0.7-0.4,1.9-0.7,3.4
			c-0.3,1.3-0.5,2.2-0.7,2.8c0,0,0,0.1-0.1,0.1c-0.1,0-0.1,0-0.2,0c-1.8-1.3-3.4-2.7-5-4.2c-0.3-0.3-0.6-0.5-0.8-0.4
			c-0.4,0-0.6-0.1-0.7-0.2c-0.1-0.2,0-0.4,0.3-0.4c0.4-0.1,1-0.3,1.7-0.5c0.7-0.3,1.2-0.4,1.5-0.6c0.2-0.1,0.3-0.1,0.3,0.1
			c0.1,0.2,0,0.4-0.3,0.5c-0.4,0.3-0.6,0.5-0.6,0.7c0,0.1,0.1,0.2,0.2,0.3c0.4,0.4,0.9,1,1.8,1.7c0.8,0.7,1.2,1.1,1.3,1.1
			c0.1,0,0.2-0.5,0.4-1.5c0.2-1,0.4-1.9,0.4-2.5c0-0.1,0-0.1,0-0.2c-0.1-0.2-0.3-0.4-0.6-0.4c-0.3,0-0.5-0.1-0.5-0.2
			c-0.1-0.2,0-0.3,0.2-0.3c0.3,0,0.7-0.1,1.4-0.3c0.6-0.1,1.1-0.3,1.2-0.3C31.3,91.4,31.5,91.4,31.5,91.6z"/>
		<path fill="#FFFFFF" d="M41.5,92.3c0.2,1,0,1.9-0.7,2.8c-0.6,0.9-1.5,1.4-2.7,1.7C37,97,36,96.9,35.2,96.5
			c-0.8-0.4-1.3-1.1-1.6-2.1c-0.3-1-0.1-2,0.6-2.9c0.7-0.9,1.6-1.4,2.7-1.7c1.2-0.3,2.3-0.2,3.1,0.3C40.8,90.6,41.3,91.3,41.5,92.3z
			 M40,93.1c-0.2-0.9-0.6-1.6-1.2-2c-0.6-0.4-1.2-0.6-2-0.4c-0.7,0.2-1.2,0.5-1.5,1c-0.3,0.5-0.4,1.1-0.2,1.7c0.2,1,0.7,1.7,1.3,2.1
			c0.6,0.4,1.2,0.5,1.9,0.4c0.7-0.2,1.1-0.5,1.4-1C40,94.4,40.1,93.8,40,93.1z"/>
		<path fill="#FFFFFF" d="M49.1,92.7c0.1,0.6-0.1,1.1-0.5,1.6c-0.4,0.4-1.1,0.7-1.9,0.9c-0.6,0.1-1.2,0.1-1.7,0.1
			c-0.5,0-0.8-0.1-0.9-0.1c-0.1-0.1-0.2-0.5-0.3-1.2c-0.1-0.3,0-0.5,0.1-0.5c0.1,0,0.3,0,0.4,0.2c0.6,0.7,1.4,0.9,2.4,0.8
			c0.9-0.1,1.2-0.5,1.2-1.1c0-0.2-0.2-0.4-0.4-0.6c-0.2-0.2-0.7-0.3-1.4-0.5c-1-0.2-1.6-0.4-2-0.7c-0.4-0.2-0.6-0.6-0.7-1.1
			c-0.1-0.6,0.1-1.2,0.5-1.6c0.4-0.4,1.1-0.7,1.9-0.8c0.5-0.1,1-0.1,1.4-0.1c0.5,0,0.7,0.1,0.8,0.2c0.1,0.3,0.3,0.8,0.5,1.4
			c0,0.1-0.1,0.1-0.2,0.2c-0.2,0.1-0.3,0.1-0.4,0c-0.6-0.7-1.3-0.9-2.1-0.8c-0.9,0.1-1.3,0.5-1.2,1c0,0.3,0.2,0.5,0.5,0.6
			c0.2,0.1,0.8,0.3,1.6,0.4c0.9,0.2,1.4,0.4,1.8,0.6C48.8,91.7,49,92.1,49.1,92.7z"/>
		<path fill="#FFFFFF" d="M64,87.4c-0.1,0.4-0.2,0.7-0.5,0.7c-0.1,0-0.3,0-0.5,0c-0.1,0-0.2,0-0.2,0c-0.1,0-0.1,0.1-0.1,0.2
			c0,0,0,0.1,0,0.3c0,0.2,0,0.3,0,0.5c0,1.3-0.8,2.2-2.5,2.7c-1,0.3-1.5,0.6-1.5,0.7c0,0.2,0.4,0.3,1.2,0.3c0.5,0,1,0.1,1.5,0.1
			c0.8,0.1,1.4,0.2,1.8,0.3c0.6,0.3,0.9,0.7,0.9,1.3c0,0.9-0.5,1.6-1.5,2.3c-1,0.6-2.1,1-3.4,1.1c-0.8,0.1-1.5-0.1-2-0.3
			c-0.5-0.3-0.8-0.7-0.8-1.2c-0.1-0.8,0.4-1.6,1.6-2.5C57.3,93.7,57,93.4,57,93c0-0.4,0.4-0.8,1.4-1.3c-1.5-0.3-2.3-1-2.4-2.2
			c-0.1-0.8,0.2-1.4,0.8-2c0.6-0.6,1.3-0.9,2.3-0.9c0.7,0,1.3,0.1,2,0.3c0.4,0.2,1,0.2,1.6,0.2c0.3,0,0.6,0,0.8,0
			c0.2,0,0.4,0,0.4,0.1C64,87.1,64,87.2,64,87.4z M62.9,95.1c0-0.4-0.6-0.7-1.7-0.8c-0.6-0.1-1.2-0.1-1.8-0.1c-0.2,0-0.4,0-0.7-0.1
			c-0.6,0.5-0.9,1.2-0.8,1.9c0.1,0.8,0.7,1.2,1.8,1.1c0.9-0.1,1.7-0.3,2.4-0.8C62.6,95.9,62.9,95.5,62.9,95.1z M61.2,89.2
			c-0.1-1.4-0.7-2-2-1.9c-1.1,0.1-1.6,0.7-1.5,2c0.1,1.2,0.7,1.8,1.9,1.7c0.5,0,0.9-0.2,1.2-0.6C61.1,90.1,61.2,89.7,61.2,89.2z"/>
		<path fill="#FFFFFF" d="M73.4,89.8c0,1-0.5,1.9-1.3,2.5c-0.8,0.7-1.8,1-3,1c-1.2,0-2.1-0.3-2.8-0.9c-0.7-0.6-1-1.4-1-2.4
			c0-1,0.4-1.9,1.2-2.6c0.8-0.7,1.8-1,3-1c1.3,0,2.2,0.3,2.9,1C73.1,87.9,73.4,88.8,73.4,89.8z M71.7,90.3c0-0.9-0.2-1.7-0.7-2.3
			c-0.5-0.6-1.1-0.9-1.8-0.9c-0.7,0-1.2,0.2-1.7,0.7c-0.4,0.4-0.6,1-0.6,1.6c0,1,0.3,1.8,0.7,2.3c0.4,0.5,1,0.8,1.7,0.8
			c0.7,0,1.2-0.2,1.6-0.6C71.5,91.5,71.7,90.9,71.7,90.3z"/>
		<path fill="#FFFFFF" d="M79.9,92.9c0,0.3-0.3,0.5-0.9,0.6c-0.5,0.1-1,0.2-1.5,0.2c-1.3-0.1-2-0.8-1.9-2.1c0.1-1.1,0.1-2.1,0.2-3.2
			c0-0.4,0-0.7-0.1-0.7c-0.1-0.1-0.3-0.2-0.7-0.3c-0.1,0-0.1-0.1-0.1-0.3c0-0.2,0.1-0.3,0.1-0.3c0.7-0.3,1.3-0.8,1.9-1.6
			c0.1-0.1,0.2-0.1,0.4-0.1c0.1,0.1,0.2,0.1,0.2,0.2c0,0.4,0,0.7,0,1.1c0,0.1,0,0.1,0,0.2c0,0.1,0.1,0.1,0.3,0.1
			c0.7,0,1.4,0.1,2.2,0.2c0.1,0,0.1,0.1,0,0.4c-0.2,0.3-0.4,0.5-0.7,0.4c-0.5,0-1-0.1-1.4-0.1c-0.2,0-0.4,0-0.5,0.1
			c0,0-0.1,0.2-0.1,0.4c-0.1,1-0.1,1.9-0.2,2.9c0,0.7,0,1.2,0.1,1.4c0.2,0.3,0.6,0.4,1.2,0.5c0.2,0,0.5,0,0.8,0
			c0.3,0,0.5-0.1,0.5-0.1C79.9,92.8,79.9,92.8,79.9,92.9z"/>
		<path fill="#FFFFFF" d="M95.6,95.8c0,0.2-0.2,0.3-0.5,0.2c-1.5-0.4-2.5-0.5-3-0.6c-0.2,0-0.4,0-0.4-0.1c-0.1,0-0.2-0.2-0.1-0.3
			c0-0.1,0.2-0.2,0.6-0.2c0.2,0,0.4-0.1,0.5-0.2c0-0.1,0.1-0.3,0.1-0.5c0.1-0.8,0.3-1.6,0.4-2.3c0.2-1.3-0.3-2.1-1.5-2.4
			c-0.6-0.1-1.1-0.1-1.6,0.1c-0.5,0.2-0.8,0.4-0.8,0.6c-0.2,1.1-0.3,2.2-0.5,3.3c-0.1,0.6,0.2,0.9,1,1.1c0.3,0.1,0.4,0.2,0.4,0.3
			c0,0.1-0.1,0.2-0.1,0.2c0,0-0.2,0-0.4,0c-1-0.2-2-0.3-3-0.4c-0.2,0-0.4,0-0.4,0c-0.1,0-0.2-0.1-0.1-0.3c0-0.1,0.2-0.2,0.6-0.2
			c0.3,0,0.5-0.3,0.6-0.9c0.4-2.6,0.7-5.2,1.1-7.9c0.1-0.5,0.1-0.8,0-1c-0.1-0.3-0.4-0.5-0.8-0.7c-0.2-0.1-0.2-0.2-0.2-0.3
			c0-0.1,0.2-0.2,0.4-0.3c0.4-0.1,0.9-0.2,1.5-0.4c0.4-0.1,0.7-0.2,0.8-0.2c0.2,0,0.3,0.2,0.3,0.5c0,0-0.1,0.3-0.2,0.9
			c-0.1,0.6-0.2,1.1-0.3,1.7c-0.2,1-0.3,2-0.5,3c0,0.3,0,0.5,0.1,0.5c-0.1,0,0.3-0.1,1-0.3c0.8-0.2,1.4-0.3,2.1-0.2
			c1.7,0.3,2.4,1.3,2.1,3c-0.2,1-0.4,1.9-0.5,2.9c-0.1,0.6,0.2,1,0.9,1.2C95.5,95.5,95.6,95.7,95.6,95.8z"/>
		<path fill="#FFFFFF" d="M105.1,94.7c-0.3,1-0.9,1.7-1.9,2.2c-1,0.5-2,0.6-3.1,0.3c-1.1-0.3-2-0.8-2.5-1.5
			c-0.5-0.7-0.7-1.6-0.5-2.6c0.2-1,0.8-1.8,1.8-2.3c1-0.5,2-0.6,3.2-0.3c1.2,0.3,2.1,0.9,2.6,1.6C105.3,92.8,105.4,93.7,105.1,94.7z
			 M103.4,94.8c0.2-0.9,0.2-1.7-0.1-2.3c-0.3-0.7-0.8-1.1-1.6-1.3c-0.7-0.2-1.3-0.1-1.8,0.2c-0.5,0.3-0.8,0.8-1,1.4
			c-0.2,1-0.2,1.8,0.2,2.5c0.3,0.6,0.8,1,1.5,1.2c0.7,0.2,1.2,0.1,1.7-0.2C102.8,95.9,103.2,95.4,103.4,94.8z"/>
		<path fill="#FFFFFF" d="M112.3,99.4c-0.1,0.2-0.5,0.3-1.2,0.4c-0.8,0.1-1.5,0-2.1-0.2c-1-0.3-1.7-0.8-2.2-1.6
			c-0.5-0.8-0.6-1.6-0.3-2.6c0.3-1.1,1-1.8,2-2.3c1-0.4,2.1-0.5,3.2-0.1c0.7,0.2,1.3,0.5,1.7,0.9c0.4,0.3,0.6,0.6,0.5,0.8
			c0,0.1-0.2,0.3-0.5,0.5c-0.3,0.2-0.6,0.2-0.7,0.2c-0.1,0-0.3-0.2-0.5-0.6c-0.5-0.6-0.9-1-1.2-1.1c-0.6-0.2-1.1-0.1-1.5,0.1
			c-0.5,0.3-0.9,0.8-1.1,1.5c-0.3,0.9-0.2,1.7,0.2,2.4c0.3,0.6,0.8,1,1.5,1.3c0.7,0.2,1.3,0.2,2.1,0.1c0.1,0,0.1,0,0.2,0
			C112.3,99.2,112.4,99.3,112.3,99.4z"/>
	</g>
</g>
</svg>
