<?xml version="1.0" encoding="utf-8"?>
<!-- Generator: Adobe Illustrator 18.1.1, SVG Export Plug-In . SVG Version: 6.00 Build 0)  -->
<svg version="1.1" id="Layer_1" xmlns="http://www.w3.org/2000/svg" xmlns:xlink="http://www.w3.org/1999/xlink" x="0px" y="0px"
	 viewBox="0 0 1254 213" enable-background="new 0 0 1254 213" xml:space="preserve">
<linearGradient id="SVGID_1_" gradientUnits="userSpaceOnUse" x1="84.6248" y1="2.9623" x2="73.7434" y2="210.593">
	<stop  offset="0" style="stop-color:#D8E028"/>
	<stop  offset="0.3472" style="stop-color:#93BA3D"/>
	<stop  offset="0.6506" style="stop-color:#5DA444"/>
	<stop  offset="0.8767" style="stop-color:#2D9947"/>
	<stop  offset="1" style="stop-color:#019547"/>
</linearGradient>
<path fill="url(#SVGID_1_)" d="M66.2,2.3c30.2,0,53.3,5.3,69.5,15.9c16.2,10.6,24.2,28,24.2,52.1c0,24.3-8.2,41.9-24.5,52.7
	c-16.4,10.8-39.7,16.2-70.1,16.2H51V207H5.4V7.6C15.4,5.6,25.9,4.3,37,3.5C48.1,2.7,57.8,2.3,66.2,2.3z M69.1,41.2
	c-3.3,0-6.6,0.1-9.8,0.3c-3.2,0.2-6,0.4-8.3,0.6v58.4h14.3c15.8,0,27.6-2.1,35.6-6.4c8-4.3,12-12.3,12-23.9c0-5.6-1-10.3-3.1-14
	c-2-3.7-5-6.7-8.8-8.9c-3.8-2.2-8.4-3.8-13.9-4.7C81.7,41.6,75.7,41.2,69.1,41.2z"/>
<linearGradient id="SVGID_2_" gradientUnits="userSpaceOnUse" x1="240.978" y1="47.778" x2="232.6053" y2="207.5373">
	<stop  offset="0" style="stop-color:#D8E028"/>
	<stop  offset="0.3472" style="stop-color:#93BA3D"/>
	<stop  offset="0.6506" style="stop-color:#5DA444"/>
	<stop  offset="0.8767" style="stop-color:#2D9947"/>
	<stop  offset="1" style="stop-color:#019547"/>
</linearGradient>
<path fill="url(#SVGID_2_)" d="M283.1,90.3c-3.9-1-8.5-2-13.7-3.1c-5.3-1.1-10.9-1.6-16.9-1.6c-2.7,0-6,0.2-9.8,0.7
	c-3.8,0.5-6.7,1-8.6,1.6v117.4h-43.5V59.9c7.8-2.7,17-5.3,27.6-7.7c10.6-2.4,22.4-3.6,35.5-3.6c2.3,0,5.2,0.1,8.5,0.4
	c3.3,0.3,6.6,0.7,9.9,1.2c3.3,0.5,6.6,1.1,9.9,1.8c3.3,0.7,6.1,1.5,8.5,2.5L283.1,90.3z"/>
<linearGradient id="SVGID_3_" gradientUnits="userSpaceOnUse" x1="383.2641" y1="47.7446" x2="374.7961" y2="209.3244">
	<stop  offset="0" style="stop-color:#D8E028"/>
	<stop  offset="0.3472" style="stop-color:#93BA3D"/>
	<stop  offset="0.6506" style="stop-color:#5DA444"/>
	<stop  offset="0.8767" style="stop-color:#2D9947"/>
	<stop  offset="1" style="stop-color:#019547"/>
</linearGradient>
<path fill="url(#SVGID_3_)" d="M454.5,128.2c0,12.1-1.8,23.1-5.3,33.1c-3.5,10-8.6,18.6-15.2,25.7c-6.6,7.1-14.6,12.6-23.8,16.5
	c-9.2,3.9-19.6,5.8-31.1,5.8c-11.3,0-21.6-1.9-30.8-5.8c-9.2-3.9-17.2-9.4-23.8-16.5c-6.6-7.1-11.8-15.7-15.5-25.7
	c-3.7-10-5.5-21.1-5.5-33.1c0-12.1,1.9-23.1,5.7-33c3.8-9.9,9.1-18.4,15.8-25.4c6.7-7,14.7-12.5,23.9-16.4
	c9.2-3.9,19.3-5.8,30.2-5.8c11.1,0,21.3,1.9,30.5,5.8c9.2,3.9,17.2,9.3,23.8,16.4c6.6,7,11.8,15.5,15.5,25.4
	C452.7,105.2,454.5,116.2,454.5,128.2z M410.1,128.2c0-13.4-2.7-24-8-31.7c-5.4-7.7-13-11.5-22.9-11.5s-17.6,3.8-23.1,11.5
	c-5.5,7.7-8.2,18.2-8.2,31.7c0,13.4,2.7,24.1,8.2,32c5.4,7.9,13.1,11.8,23.1,11.8s17.6-3.9,22.9-11.8
	C407.5,152.3,410.1,141.7,410.1,128.2z"/>
<linearGradient id="SVGID_4_" gradientUnits="userSpaceOnUse" x1="757.8177" y1="49.3395" x2="749.367" y2="210.5896">
	<stop  offset="0" style="stop-color:#D8E028"/>
	<stop  offset="0.3472" style="stop-color:#93BA3D"/>
	<stop  offset="0.6506" style="stop-color:#5DA444"/>
	<stop  offset="0.8767" style="stop-color:#2D9947"/>
	<stop  offset="1" style="stop-color:#019547"/>
</linearGradient>
<path fill="url(#SVGID_4_)" d="M681.5,131.4c0-13.6,2.1-25.5,6.3-35.8c4.2-10.2,9.7-18.7,16.5-25.5c6.8-6.8,14.6-12,23.5-15.5
	c8.9-3.5,18-5.3,27.3-5.3c21.8,0,39,6.7,51.7,20c12.7,13.3,19,33,19,58.8c0,2.5-0.1,5.3-0.3,8.3c-0.2,3-0.4,5.7-0.6,8h-98.7
	c1,9,5.2,16.1,12.6,21.3c7.4,5.3,17.3,7.9,29.8,7.9c8,0,15.8-0.7,23.5-2.2c7.7-1.5,14-3.3,18.8-5.4l5.8,35.3
	c-2.3,1.2-5.5,2.3-9.3,3.5c-3.9,1.2-8.2,2.2-13,3.1c-4.8,0.9-9.9,1.6-15.3,2.2c-5.5,0.6-10.9,0.9-16.4,0.9c-13.8,0-25.8-2-36.1-6.1
	c-10.2-4.1-18.7-9.7-25.4-16.8c-6.7-7.1-11.7-15.5-14.9-25.3C683.1,153.2,681.5,142.7,681.5,131.4z M783.7,114.7
	c-0.2-3.7-0.8-7.3-1.9-10.8c-1.1-3.5-2.7-6.6-5-9.3c-2.2-2.7-5.1-5-8.5-6.7c-3.4-1.8-7.6-2.6-12.7-2.6c-4.9,0-9.1,0.8-12.6,2.5
	c-3.5,1.7-6.4,3.8-8.8,6.6c-2.3,2.7-4.1,5.9-5.4,9.5c-1.3,3.6-2.2,7.3-2.8,10.9H783.7z"/>
<linearGradient id="SVGID_5_" gradientUnits="userSpaceOnUse" x1="909.7367" y1="49.4575" x2="901.3641" y2="209.2168">
	<stop  offset="0" style="stop-color:#D8E028"/>
	<stop  offset="0.3472" style="stop-color:#93BA3D"/>
	<stop  offset="0.6506" style="stop-color:#5DA444"/>
	<stop  offset="0.8767" style="stop-color:#2D9947"/>
	<stop  offset="1" style="stop-color:#019547"/>
</linearGradient>
<path fill="url(#SVGID_5_)" d="M951.9,92c-3.9-1-8.5-2-13.7-3.1c-5.3-1.1-10.9-1.6-16.9-1.6c-2.7,0-6,0.2-9.8,0.7
	c-3.8,0.5-6.7,1-8.6,1.6V207h-43.5V61.6c7.8-2.7,17-5.3,27.6-7.7c10.6-2.4,22.4-3.6,35.5-3.6c2.3,0,5.2,0.1,8.5,0.4
	c3.3,0.3,6.6,0.7,9.9,1.2c3.3,0.5,6.6,1.1,9.9,1.8c3.3,0.7,6.1,1.5,8.5,2.5L951.9,92z"/>
<linearGradient id="SVGID_6_" gradientUnits="userSpaceOnUse" x1="1037.2709" y1="8.8315" x2="1026.7335" y2="209.8975">
	<stop  offset="0" style="stop-color:#D8E028"/>
	<stop  offset="0.3472" style="stop-color:#93BA3D"/>
	<stop  offset="0.6506" style="stop-color:#5DA444"/>
	<stop  offset="0.8767" style="stop-color:#2D9947"/>
	<stop  offset="1" style="stop-color:#019547"/>
</linearGradient>
<path fill="url(#SVGID_6_)" d="M981.1,15.2l43.5-7v45.3h52.3v36.2h-52.3v54c0,9.2,1.6,16.5,4.8,21.9c3.2,5.5,9.7,8.2,19.4,8.2
	c4.7,0,9.5-0.4,14.5-1.3c5-0.9,9.5-2.1,13.6-3.6l6.1,33.9c-5.3,2.1-11.1,4-17.5,5.5c-6.4,1.6-14.3,2.3-23.7,2.3
	c-11.9,0-21.7-1.6-29.5-4.8c-7.8-3.2-14-7.7-18.7-13.4c-4.7-5.7-7.9-12.7-9.8-20.9c-1.9-8.2-2.8-17.2-2.8-27.2V15.2z"/>
<linearGradient id="SVGID_7_" gradientUnits="userSpaceOnUse" x1="1178.7432" y1="49.424" x2="1170.2751" y2="211.0038">
	<stop  offset="0" style="stop-color:#D8E028"/>
	<stop  offset="0.3472" style="stop-color:#93BA3D"/>
	<stop  offset="0.6506" style="stop-color:#5DA444"/>
	<stop  offset="0.8767" style="stop-color:#2D9947"/>
	<stop  offset="1" style="stop-color:#019547"/>
</linearGradient>
<path fill="url(#SVGID_7_)" d="M1250,129.9c0,12.1-1.8,23.1-5.3,33.1c-3.5,10-8.6,18.6-15.2,25.7c-6.6,7.1-14.6,12.6-23.8,16.5
	c-9.2,3.9-19.6,5.8-31.1,5.8c-11.3,0-21.6-1.9-30.8-5.8c-9.2-3.9-17.2-9.4-23.8-16.5c-6.6-7.1-11.8-15.7-15.5-25.7
	c-3.7-10-5.5-21.1-5.5-33.1c0-12.1,1.9-23.1,5.7-33c3.8-9.9,9.1-18.4,15.8-25.4c6.7-7,14.7-12.5,23.9-16.4
	c9.2-3.9,19.3-5.8,30.2-5.8c11.1,0,21.3,1.9,30.5,5.8c9.2,3.9,17.2,9.3,23.8,16.4c6.6,7,11.8,15.5,15.5,25.4
	C1248.1,106.9,1250,117.9,1250,129.9z M1205.6,129.9c0-13.4-2.7-24-8-31.7c-5.4-7.7-13-11.5-22.9-11.5c-9.9,0-17.6,3.8-23.1,11.5
	c-5.5,7.7-8.2,18.2-8.2,31.7c0,13.4,2.7,24.1,8.2,32c5.4,7.9,13.1,11.8,23.1,11.8c9.9,0,17.6-3.9,22.9-11.8
	C1202.9,154,1205.6,143.4,1205.6,129.9z"/>
<linearGradient id="SVGID_8_" gradientUnits="userSpaceOnUse" x1="573.8569" y1="6.9163" x2="562.9751" y2="214.5533">
	<stop  offset="0" style="stop-color:#D8E028"/>
	<stop  offset="0.3472" style="stop-color:#93BA3D"/>
	<stop  offset="0.6506" style="stop-color:#5DA444"/>
	<stop  offset="0.8767" style="stop-color:#2D9947"/>
	<stop  offset="1" style="stop-color:#019547"/>
</linearGradient>
<path fill="url(#SVGID_8_)" d="M659.6,109c0,17.5-2.7,32.8-8.2,45.8c-5.5,13-13.2,23.8-23.2,32.4c-10,8.6-22.2,15-36.6,19.3
	c-14.4,4.3-30.6,6.4-48.5,6.4c-8.2,0-17.7-0.3-28.6-1c-10.9-0.7-21.6-2.1-32.1-4.2V10.6c10.5-1.9,21.5-3.3,32.8-3.9
	c11.4-0.7,21.2-1,29.3-1c17.3,0,33,1.9,47.2,5.8c14.1,3.9,26.2,10,36.4,18.4C638.2,38.3,646,49,651.4,62
	C656.9,75.1,659.6,90.8,659.6,109z M527.9,173.3c2.1,0.2,4.6,0.3,7.4,0.4c2.8,0.1,6.2,0.1,10.1,0.1c22.8,0,39.7-5.7,50.7-17.2
	c11-11.5,16.5-27.3,16.5-47.6c0-21.2-5.3-37.3-15.8-48.2c-10.5-10.9-27.2-16.4-49.9-16.4c-3.1,0-6.3,0.1-9.6,0.1
	c-3.3,0.1-6.4,0.3-9.3,0.7V173.3z"/>
</svg>
