<?xml version="1.0" encoding="utf-8"?>
<!-- Generator: Adobe Illustrator 18.1.1, SVG Export Plug-In . SVG Version: 6.00 Build 0)  -->
<svg version="1.1" id="Layer_1" xmlns="http://www.w3.org/2000/svg" xmlns:xlink="http://www.w3.org/1999/xlink" x="0px" y="0px"
	 viewBox="0 0 300 51" enable-background="new 0 0 300 51" xml:space="preserve">
<linearGradient id="SVGID_1_" gradientUnits="userSpaceOnUse" x1="20.1491" y1="0.8942" x2="17.5454" y2="50.5762">
	<stop  offset="0" style="stop-color:#D8E028"/>
	<stop  offset="0.3472" style="stop-color:#93BA3D"/>
	<stop  offset="0.6506" style="stop-color:#5DA444"/>
	<stop  offset="0.8767" style="stop-color:#2D9947"/>
	<stop  offset="1" style="stop-color:#019547"/>
</linearGradient>
<path fill="url(#SVGID_1_)" d="M15.7,0.7C23,0.7,28.5,2,32.4,4.5c3.9,2.5,5.8,6.7,5.8,12.5c0,5.8-2,10-5.9,12.6
	c-3.9,2.6-9.5,3.9-16.8,3.9h-3.4v16.2H1.2V2c2.4-0.5,4.9-0.8,7.5-1C11.4,0.8,13.7,0.7,15.7,0.7z M16.4,10c-0.8,0-1.6,0-2.3,0.1
	c-0.8,0-1.4,0.1-2,0.1v14h3.4c3.8,0,6.6-0.5,8.5-1.5c1.9-1,2.9-2.9,2.9-5.7c0-1.4-0.2-2.5-0.7-3.4c-0.5-0.9-1.2-1.6-2.1-2.1
	c-0.9-0.5-2-0.9-3.3-1.1C19.5,10.1,18,10,16.4,10z"/>
<linearGradient id="SVGID_2_" gradientUnits="userSpaceOnUse" x1="57.5613" y1="11.6178" x2="55.5579" y2="49.845">
	<stop  offset="0" style="stop-color:#D8E028"/>
	<stop  offset="0.3472" style="stop-color:#93BA3D"/>
	<stop  offset="0.6506" style="stop-color:#5DA444"/>
	<stop  offset="0.8767" style="stop-color:#2D9947"/>
	<stop  offset="1" style="stop-color:#019547"/>
</linearGradient>
<path fill="url(#SVGID_2_)" d="M67.6,21.8c-0.9-0.2-2-0.5-3.3-0.7c-1.3-0.3-2.6-0.4-4.1-0.4c-0.7,0-1.4,0.1-2.3,0.2
	c-0.9,0.1-1.6,0.2-2.1,0.4v28.1H45.5V14.5c1.9-0.7,4.1-1.3,6.6-1.9c2.5-0.6,5.4-0.9,8.5-0.9c0.6,0,1.2,0,2,0.1
	c0.8,0.1,1.6,0.2,2.4,0.3c0.8,0.1,1.6,0.3,2.4,0.4c0.8,0.2,1.5,0.4,2,0.6L67.6,21.8z"/>
<linearGradient id="SVGID_3_" gradientUnits="userSpaceOnUse" x1="91.6076" y1="11.6098" x2="89.5814" y2="50.2726">
	<stop  offset="0" style="stop-color:#D8E028"/>
	<stop  offset="0.3472" style="stop-color:#93BA3D"/>
	<stop  offset="0.6506" style="stop-color:#5DA444"/>
	<stop  offset="0.8767" style="stop-color:#2D9947"/>
	<stop  offset="1" style="stop-color:#019547"/>
</linearGradient>
<path fill="url(#SVGID_3_)" d="M108.7,30.9c0,2.9-0.4,5.5-1.3,7.9c-0.8,2.4-2.1,4.4-3.6,6.1c-1.6,1.7-3.5,3-5.7,3.9
	c-2.2,0.9-4.7,1.4-7.4,1.4c-2.7,0-5.2-0.5-7.4-1.4C81,48,79.1,46.7,77.6,45c-1.6-1.7-2.8-3.7-3.7-6.1c-0.9-2.4-1.3-5-1.3-7.9
	c0-2.9,0.5-5.5,1.4-7.9c0.9-2.4,2.2-4.4,3.8-6.1c1.6-1.7,3.5-3,5.7-3.9c2.2-0.9,4.6-1.4,7.2-1.4c2.7,0,5.1,0.5,7.3,1.4
	c2.2,0.9,4.1,2.2,5.7,3.9c1.6,1.7,2.8,3.7,3.7,6.1C108.2,25.4,108.7,28,108.7,30.9z M98,30.9c0-3.2-0.6-5.7-1.9-7.6
	c-1.3-1.8-3.1-2.8-5.5-2.8s-4.2,0.9-5.5,2.8c-1.3,1.8-2,4.4-2,7.6c0,3.2,0.7,5.8,2,7.7c1.3,1.9,3.1,2.8,5.5,2.8s4.2-0.9,5.5-2.8
	C97.4,36.6,98,34.1,98,30.9z"/>
<linearGradient id="SVGID_4_" gradientUnits="userSpaceOnUse" x1="181.2309" y1="11.9914" x2="179.2088" y2="50.5754">
	<stop  offset="0" style="stop-color:#D8E028"/>
	<stop  offset="0.3472" style="stop-color:#93BA3D"/>
	<stop  offset="0.6506" style="stop-color:#5DA444"/>
	<stop  offset="0.8767" style="stop-color:#2D9947"/>
	<stop  offset="1" style="stop-color:#019547"/>
</linearGradient>
<path fill="url(#SVGID_4_)" d="M163,31.6c0-3.3,0.5-6.1,1.5-8.6c1-2.4,2.3-4.5,3.9-6.1c1.6-1.6,3.5-2.9,5.6-3.7
	c2.1-0.8,4.3-1.3,6.5-1.3c5.2,0,9.3,1.6,12.4,4.8c3,3.2,4.5,7.9,4.5,14.1c0,0.6,0,1.3-0.1,2c0,0.7-0.1,1.4-0.1,1.9h-23.6
	c0.2,2.1,1.2,3.8,3,5.1c1.8,1.3,4.1,1.9,7.1,1.9c1.9,0,3.8-0.2,5.6-0.5c1.8-0.3,3.3-0.8,4.5-1.3l1.4,8.5c-0.6,0.3-1.3,0.6-2.2,0.8
	c-0.9,0.3-2,0.5-3.1,0.7c-1.1,0.2-2.4,0.4-3.7,0.5c-1.3,0.1-2.6,0.2-3.9,0.2c-3.3,0-6.2-0.5-8.6-1.5c-2.4-1-4.5-2.3-6.1-4
	c-1.6-1.7-2.8-3.7-3.6-6C163.4,36.8,163,34.3,163,31.6z M187.4,27.6c0-0.9-0.2-1.7-0.5-2.6c-0.3-0.8-0.7-1.6-1.2-2.2
	c-0.5-0.7-1.2-1.2-2-1.6c-0.8-0.4-1.8-0.6-3-0.6c-1.2,0-2.2,0.2-3,0.6c-0.8,0.4-1.5,0.9-2.1,1.6c-0.6,0.7-1,1.4-1.3,2.3
	c-0.3,0.9-0.5,1.7-0.7,2.6H187.4z"/>
<linearGradient id="SVGID_5_" gradientUnits="userSpaceOnUse" x1="217.5821" y1="12.0196" x2="215.5787" y2="50.2469">
	<stop  offset="0" style="stop-color:#D8E028"/>
	<stop  offset="0.3472" style="stop-color:#93BA3D"/>
	<stop  offset="0.6506" style="stop-color:#5DA444"/>
	<stop  offset="0.8767" style="stop-color:#2D9947"/>
	<stop  offset="1" style="stop-color:#019547"/>
</linearGradient>
<path fill="url(#SVGID_5_)" d="M227.7,22.2c-0.9-0.2-2-0.5-3.3-0.7c-1.3-0.3-2.6-0.4-4.1-0.4c-0.7,0-1.4,0.1-2.3,0.2
	c-0.9,0.1-1.6,0.2-2.1,0.4v28.1h-10.4V14.9c1.9-0.7,4.1-1.3,6.6-1.9c2.5-0.6,5.4-0.9,8.5-0.9c0.6,0,1.2,0,2,0.1
	c0.8,0.1,1.6,0.2,2.4,0.3c0.8,0.1,1.6,0.3,2.4,0.4c0.8,0.2,1.5,0.4,2,0.6L227.7,22.2z"/>
<linearGradient id="SVGID_6_" gradientUnits="userSpaceOnUse" x1="248.0985" y1="2.2986" x2="245.5771" y2="50.4098">
	<stop  offset="0" style="stop-color:#D8E028"/>
	<stop  offset="0.3472" style="stop-color:#93BA3D"/>
	<stop  offset="0.6506" style="stop-color:#5DA444"/>
	<stop  offset="0.8767" style="stop-color:#2D9947"/>
	<stop  offset="1" style="stop-color:#019547"/>
</linearGradient>
<path fill="url(#SVGID_6_)" d="M234.7,3.8l10.4-1.7V13h12.5v8.7h-12.5v12.9c0,2.2,0.4,3.9,1.2,5.2c0.8,1.3,2.3,2,4.6,2
	c1.1,0,2.3-0.1,3.5-0.3c1.2-0.2,2.3-0.5,3.2-0.9l1.5,8.1c-1.3,0.5-2.7,1-4.2,1.3c-1.5,0.4-3.4,0.6-5.7,0.6c-2.8,0-5.2-0.4-7.1-1.2
	c-1.9-0.8-3.4-1.8-4.5-3.2c-1.1-1.4-1.9-3-2.3-5c-0.4-2-0.7-4.1-0.7-6.5V3.8z"/>
<linearGradient id="SVGID_7_" gradientUnits="userSpaceOnUse" x1="281.9501" y1="12.0116" x2="279.9239" y2="50.6745">
	<stop  offset="0" style="stop-color:#D8E028"/>
	<stop  offset="0.3472" style="stop-color:#93BA3D"/>
	<stop  offset="0.6506" style="stop-color:#5DA444"/>
	<stop  offset="0.8767" style="stop-color:#2D9947"/>
	<stop  offset="1" style="stop-color:#019547"/>
</linearGradient>
<path fill="url(#SVGID_7_)" d="M299,31.3c0,2.9-0.4,5.5-1.3,7.9c-0.8,2.4-2.1,4.4-3.6,6.1c-1.6,1.7-3.5,3-5.7,3.9
	c-2.2,0.9-4.7,1.4-7.4,1.4c-2.7,0-5.2-0.5-7.4-1.4c-2.2-0.9-4.1-2.2-5.7-3.9c-1.6-1.7-2.8-3.7-3.7-6.1c-0.9-2.4-1.3-5-1.3-7.9
	c0-2.9,0.5-5.5,1.4-7.9c0.9-2.4,2.2-4.4,3.8-6.1c1.6-1.7,3.5-3,5.7-3.9c2.2-0.9,4.6-1.4,7.2-1.4c2.7,0,5.1,0.5,7.3,1.4
	c2.2,0.9,4.1,2.2,5.7,3.9c1.6,1.7,2.8,3.7,3.7,6.1C298.6,25.8,299,28.4,299,31.3z M288.4,31.3c0-3.2-0.6-5.7-1.9-7.6
	c-1.3-1.8-3.1-2.8-5.5-2.8c-2.4,0-4.2,0.9-5.5,2.8c-1.3,1.8-2,4.4-2,7.6c0,3.2,0.7,5.8,2,7.7c1.3,1.9,3.1,2.8,5.5,2.8
	c2.4,0,4.2-0.9,5.5-2.8C287.7,37,288.4,34.5,288.4,31.3z"/>
<linearGradient id="SVGID_8_" gradientUnits="userSpaceOnUse" x1="137.2127" y1="1.6882" x2="134.6089" y2="51.3717">
	<stop  offset="0" style="stop-color:#D8E028"/>
	<stop  offset="0.3472" style="stop-color:#93BA3D"/>
	<stop  offset="0.6506" style="stop-color:#5DA444"/>
	<stop  offset="0.8767" style="stop-color:#2D9947"/>
	<stop  offset="1" style="stop-color:#019547"/>
</linearGradient>
<path fill="url(#SVGID_8_)" d="M157.7,26.1c0,4.2-0.7,7.8-2,11c-1.3,3.1-3.2,5.7-5.6,7.8c-2.4,2.1-5.3,3.6-8.8,4.6
	c-3.4,1-7.3,1.5-11.6,1.5c-2,0-4.2-0.1-6.8-0.2c-2.6-0.2-5.2-0.5-7.7-1V2.6c2.5-0.5,5.1-0.8,7.9-0.9c2.7-0.2,5.1-0.2,7-0.2
	c4.1,0,7.9,0.5,11.3,1.4c3.4,0.9,6.3,2.4,8.7,4.4c2.4,2,4.3,4.6,5.6,7.7C157.1,18,157.7,21.7,157.7,26.1z M126.2,41.5
	c0.5,0,1.1,0.1,1.8,0.1c0.7,0,1.5,0,2.4,0c5.4,0,9.5-1.4,12.1-4.1c2.6-2.7,3.9-6.5,3.9-11.4c0-5.1-1.3-8.9-3.8-11.5
	c-2.5-2.6-6.5-3.9-11.9-3.9c-0.7,0-1.5,0-2.3,0c-0.8,0-1.5,0.1-2.2,0.2V41.5z"/>
</svg>
