<?xml version="1.0" encoding="utf-8"?>
<!-- Generator: Adobe Illustrator 18.1.1, SVG Export Plug-In . SVG Version: 6.00 Build 0)  -->
<svg version="1.1" xmlns="http://www.w3.org/2000/svg" xmlns:xlink="http://www.w3.org/1999/xlink" x="0px" y="0px"
	 viewBox="0 0 750 500" enable-background="new 0 0 750 500" xml:space="preserve">
<g id="Background_Complete">
	<g>
		<path fill="#EBEBEB" d="M467,443.9c4.8-2.7,10.9-2.8,15.8-0.3c4.9,2.5,8.3,7.6,8.9,13.1C481.6,456.7,471.7,454.3,467,443.9"/>
		<g>
			<path fill="#EBEBEB" d="M478.8,433.5c6.8,2.2,14.6,0.8,20.1-3.6c5.6-4.4,8.7-11.8,8-18.8C494.1,413.6,482.1,419,478.8,433.5"/>
			<g>
				<path fill="#E0E0E0" d="M434.8,450.6c0,0,0.2-0.1,0.6-0.3c0.5-0.2,1.1-0.4,1.8-0.6c1.6-0.5,3.9-1.3,6.8-2.3
					c5.7-2,13.5-4.8,22-8.5c4.2-1.9,8.2-3.7,11.7-5.5c3.5-1.8,6.7-3.6,9.2-5.2c2.5-1.6,4.6-3,5.9-4c1.3-1,2-1.7,2-1.7
					c0,0-0.1,0.2-0.5,0.5c-0.3,0.3-0.8,0.8-1.4,1.3c-1.3,1.1-3.3,2.5-5.8,4.2c-2.6,1.6-5.7,3.4-9.2,5.3c-3.6,1.8-7.5,3.7-11.7,5.6
					c-8.5,3.7-16.3,6.5-22.1,8.4c-2.9,0.9-5.2,1.7-6.8,2.1c-0.8,0.2-1.4,0.4-1.9,0.5C435,450.6,434.8,450.6,434.8,450.6z"/>
			</g>
		</g>
		<g>
			<path fill="#E0E0E0" d="M480,449.7c-0.1,0.1-1.2-0.7-3.2-1.8c-2-1.1-4.9-2.4-8.3-3.3c-3.4-0.9-6.5-1.3-8.8-1.4
				c-2.3-0.1-3.7,0-3.7-0.1c0,0,0.3-0.1,1-0.2c0.6-0.1,1.6-0.1,2.7-0.1c2.3,0,5.5,0.3,8.9,1.2c3.4,0.9,6.3,2.3,8.3,3.5
				c1,0.6,1.8,1.1,2.3,1.5C479.7,449.5,480,449.7,480,449.7z"/>
		</g>
	</g>
	<g>
		<path fill="#EBEBEB" d="M241.7,404.8c-2.4,6.5-1.4,14.2,2.7,19.8c4.1,5.6,11.1,8.9,18,8.6C260.5,420.5,255.7,408.6,241.7,404.8"/>
		<g>
			<path fill="#E0E0E0" d="M239.8,398.6c0.1,0,0.4,1.4,1.2,3.6c0.7,2.2,1.9,5.2,3.6,8.3c1.7,3.1,3.5,5.7,4.9,7.5
				c1.4,1.8,2.4,2.9,2.3,2.9c0,0-0.3-0.2-0.8-0.7c-0.5-0.5-1.1-1.1-1.9-2c-1.5-1.8-3.4-4.4-5.1-7.5c-1.7-3.1-2.8-6.2-3.4-8.4
				c-0.3-1.1-0.5-2-0.7-2.7C239.8,399,239.7,398.6,239.8,398.6z"/>
		</g>
	</g>
	<g>
		<path fill="#EBEBEB" d="M41.9,152.4c-3.8,10-2.1,21.9,4.2,30.6s17.2,13.8,27.9,13.3C71,176.9,63.5,158.4,41.9,152.4"/>
		<g>
			<path fill="#E0E0E0" d="M38.8,142.9c0,0,0.2,0.5,0.5,1.5c0.3,1,0.7,2.4,1.2,4.1c1.1,3.4,2.9,8,5.5,12.9c2.6,4.8,5.5,8.9,7.7,11.7
				c1.1,1.4,2,2.5,2.7,3.3c0.7,0.8,1,1.2,1,1.2c0,0-0.4-0.4-1.1-1.1c-0.7-0.7-1.7-1.8-2.8-3.2c-2.3-2.8-5.3-6.8-7.9-11.7
				c-2.6-4.9-4.4-9.5-5.4-13c-0.5-1.7-0.9-3.1-1.1-4.1C38.9,143.4,38.8,142.9,38.8,142.9z"/>
		</g>
	</g>
	<g>
		<path fill="#EBEBEB" d="M75.7,351.5c-5.4,4.3-8.4,11.5-7.7,18.4c0.7,6.9,5,13.3,11.1,16.6C83.8,374.6,85.7,361.9,75.7,351.5"/>
		<g>
			<path fill="#E0E0E0" d="M77.1,345.2c0.1,0-0.3,1.4-0.8,3.7c-0.5,2.3-1,5.4-1.2,8.9c-0.1,3.5,0.1,6.7,0.4,9
				c0.3,2.3,0.6,3.7,0.5,3.7c0,0-0.1-0.3-0.3-1c-0.2-0.6-0.4-1.5-0.6-2.7c-0.4-2.3-0.7-5.5-0.6-9.1c0.2-3.6,0.7-6.7,1.3-9
				c0.3-1.1,0.6-2,0.8-2.6C76.9,345.5,77.1,345.2,77.1,345.2z"/>
		</g>
	</g>
	<g>
		<path fill="#EBEBEB" d="M261.3,98.6c6.2,3.1,14,2.8,19.9-0.7c6-3.5,10-10.1,10.4-17C278.9,81.6,266.5,85.1,261.3,98.6"/>
		<g>
			<path fill="#E0E0E0" d="M254.9,100c0-0.1,1.4-0.3,3.7-0.8c2.3-0.5,5.3-1.3,8.6-2.7c3.3-1.3,6.1-2.9,8-4.1c2-1.2,3.1-2.1,3.2-2
				c0,0-0.2,0.3-0.7,0.7c-0.5,0.4-1.3,1-2.2,1.6c-1.9,1.3-4.7,2.9-8,4.3c-3.3,1.3-6.4,2.2-8.7,2.6c-1.1,0.2-2.1,0.3-2.7,0.4
				C255.3,100,254.9,100,254.9,100z"/>
		</g>
	</g>
	<g>
		<path fill="#EBEBEB" d="M235.3,96.8c8.9-1.9,16.7-8.6,20-17.1c3.3-8.5,2-18.7-3.3-26.1C239.5,64.7,229.6,78.6,235.3,96.8"/>
		<g>
			<path fill="#E0E0E0" d="M229.9,103.4c0,0,0.3-0.4,0.8-1c0.6-0.6,1.4-1.6,2.3-2.8c1.9-2.4,4.4-5.8,6.7-9.8c2.3-4.1,3.9-8,4.8-10.9
				c0.5-1.4,0.9-2.6,1.1-3.4c0.2-0.8,0.4-1.3,0.4-1.3c0,0-0.1,0.5-0.2,1.3c-0.2,0.8-0.5,2-1,3.5c-0.9,2.9-2.5,6.9-4.7,11
				c-2.3,4.1-4.8,7.5-6.9,9.8c-1,1.2-1.9,2.1-2.5,2.7C230.3,103.1,229.9,103.4,229.9,103.4z"/>
		</g>
	</g>
	<g>
		<path fill="#EBEBEB" d="M317.4,439.4c1.9,3.7,5.7,6.4,9.9,6.9c4.1,0.5,8.5-1.3,11.1-4.5C332,437.5,324.7,434.7,317.4,439.4"/>
		<g>
			<path fill="#E0E0E0" d="M313.8,437.7c0.1-0.1,3.1,1.6,7.2,2.6c4.1,1.1,7.6,1,7.6,1.1c0,0.1-0.9,0.2-2.3,0.1
				c-1.4,0-3.4-0.2-5.4-0.8c-2.1-0.5-3.9-1.3-5.1-1.9C314.5,438.3,313.8,437.8,313.8,437.7z"/>
		</g>
	</g>
	<g>
		<path fill="#EBEBEB" d="M410.1,80.3c2.6,3.3,6.8,5.2,11,4.8c4.2-0.3,8.1-2.9,10.1-6.6C424.1,75.6,416.4,74.4,410.1,80.3"/>
		<g>
			<path fill="#E0E0E0" d="M406.3,79.4c0-0.2,3.3,1,7.6,1.2c4.2,0.3,7.6-0.5,7.7-0.3c0,0.1-0.8,0.3-2.2,0.6
				c-1.4,0.2-3.3,0.4-5.5,0.3c-2.1-0.1-4.1-0.5-5.4-0.9C407.1,79.8,406.3,79.5,406.3,79.4z"/>
		</g>
	</g>
	<g>
		<path fill="#EBEBEB" d="M650.3,111.1c6.7,1.8,14.2,0.1,19.4-4.5c5.2-4.6,7.9-11.8,6.9-18.7C664.3,91,652.9,96.9,650.3,111.1"/>
		<g>
			<path fill="#E0E0E0" d="M644.3,113.6c0-0.1,1.3-0.5,3.5-1.5c2.1-0.9,5-2.3,7.9-4.3c2.9-1.9,5.4-4,7.1-5.6
				c1.7-1.6,2.6-2.6,2.7-2.6c0,0-0.2,0.3-0.6,0.8c-0.4,0.5-1,1.2-1.9,2c-1.6,1.7-4.1,3.8-7,5.8c-3,2-5.9,3.3-8.1,4.2
				c-1.1,0.4-2,0.7-2.6,0.9C644.7,113.6,644.3,113.6,644.3,113.6z"/>
		</g>
	</g>
	<g>
		<path fill="#EBEBEB" d="M674,415.9c11.7-2.7,21.9-11.6,26-22.9c4.2-11.3,2.3-24.7-4.9-34.4C678.7,373.5,666.1,392,674,415.9"/>
		<g>
			<path fill="#E0E0E0" d="M666.9,424.7c0,0,0.4-0.5,1.1-1.4c0.7-0.8,1.8-2.1,3.1-3.7c1.3-1.6,2.7-3.5,4.2-5.7
				c1.5-2.2,3-4.7,4.5-7.4c1.4-2.7,2.7-5.4,3.7-7.8c1-2.5,1.8-4.7,2.4-6.6c0.6-1.9,1.1-3.5,1.4-4.6c0.3-1.1,0.5-1.7,0.5-1.7
				c0,0-0.1,0.6-0.3,1.7c-0.2,1.1-0.6,2.7-1.2,4.6c-0.6,1.9-1.4,4.2-2.3,6.7c-1,2.5-2.2,5.2-3.7,7.9c-1.5,2.7-3,5.2-4.5,7.4
				c-1.5,2.2-3,4.1-4.3,5.7c-1.3,1.6-2.4,2.8-3.2,3.6C667.4,424.3,666.9,424.7,666.9,424.7z"/>
		</g>
	</g>
</g>
<g id="Background_Simple" display="none">
	<path display="inline" fill="#EBEBEB" d="M247,60.8c-7.9-6.5-20.9-5.5-27.9,2.1l0,0c-6,5.3-4.2,20.4,3.3,27.5
		c7.5,7,20.9,6,27.4-1.9C256.4,80.5,254.9,67.3,247,60.8z"/>
	<path display="inline" fill="#EBEBEB" d="M428.2,74.6c8.3,3.4,17.2-4.5,26.1-3.6c4.5,0.5,8.5,3.2,12.7,4.9
		c4.2,1.7,12.6,2.2,14.3-3.5c3.9-6.9-2.5-15.1-8.6-19.8c-6.1-4.7-17.1-6.2-24.8-6.6c-5.5-0.3-11.2,0.2-16.2,2.6
		c-5,2.4-9.2,6.8-10.3,12.3C420.4,66.3,423.1,72.5,428.2,74.6z"/>
	<g display="inline">
		<circle fill="#EBEBEB" cx="123.1" cy="136.2" r="47.7"/>
	</g>
	<g display="inline">
		<path fill="#EBEBEB" d="M195.3,359.8c-18.1-22-37.7-34.1-55.9-35.7c-19.5-1.3-40.7,6.8-50.4,23.8c-9.7,17-3.3,42.6,15,49.4
			c7.5,2.8,16.2,2.5,23.1,6.6c10.7,6.5,12.9,21.1,21,30.7c10,11.7,28.8,13.7,42.1,6.1c13.4-7.6,21.1-23.3,21.2-38.7
			C211.7,386.6,205.1,371.7,195.3,359.8z"/>
	</g>
	<g display="inline">
		<circle fill="#EBEBEB" cx="675.5" cy="267.4" r="49.4"/>
	</g>
</g>
<g id="Capa_8">
	<g>
		<path fill="#46B749" d="M538.2,289.8c-6.3-35.2-36.6-66-72.3-68.9c-19.4-1.6-39,4.5-58.4,2.2c-16.3-2-31.7-10.1-42.5-22.4
			c-16-18.2-21.4-44.1-38.3-61.4c-23.3-23.9-64.1-24.3-92.5-6.7c-28.4,17.6-45.6,49.3-53.4,81.7l-0.3,9.9
			c-1.7,33.7,7.1,72.8,26.7,102.8c19.8,30.4,32.8,42.9,68.9,64.8c30.6,18.6,90.6,26.7,126.4,27.6c35.8,0.9,72.6-9.8,99.5-33.4
			C528.9,362.3,544.5,325,538.2,289.8z"/>
		<g opacity="0.8">
			<path fill="#FFFFFF" d="M538.1,289.7c-6.3-35.2-36.6-66-72.3-68.9c-19.4-1.6-39,4.5-58.4,2.2c-16.3-2-31.7-10.1-42.5-22.4
				c-16-18.2-21.4-44.1-38.3-61.4c-23.3-23.9-64.1-24.3-92.5-6.7c-28.4,17.6-45.6,49.3-53.4,81.7l-0.3,9.9
				c-1.7,33.7,7.1,72.8,26.7,102.8c19.8,30.4,32.8,42.9,68.9,64.8c30.6,18.6,90.6,26.7,126.4,27.6c35.8,0.9,72.6-9.8,99.5-33.4
				C528.7,362.2,544.4,324.9,538.1,289.7z"/>
		</g>
	</g>
</g>
<g id="_x34_04">
	<g>
		<g>
			<path fill="#0E9648" d="M435.2,280.5c0.3,34.4-7.2,60.8-22.5,79c-15.3,18.2-36.4,27.4-63,27.7c-26.8,0.3-48.1-8.6-63.9-26.5
				c-15.8-17.9-23.9-44.1-24.2-78.5l-0.6-60.6c-0.3-34.3,7.2-60.6,22.5-79c15.3-18.3,36.4-27.6,63.2-27.9
				c26.7-0.3,47.9,8.6,63.7,26.7c15.8,18,23.9,44.2,24.2,78.5L435.2,280.5z M390.3,213.5c-0.2-21.7-4-37.7-11.4-48
				c-7.4-10.3-18-15.5-32-15.3c-13.9,0.1-24.5,5.4-31.6,15.9c-7.1,10.5-10.6,26.6-10.4,48.3l0.7,73.6c0.2,21.8,4,37.9,11.5,48.3
				c7.4,10.4,18.1,15.5,32.1,15.4c13.9-0.1,24.4-5.4,31.5-15.9c7.1-10.5,10.5-26.7,10.3-48.6L390.3,213.5z"/>
		</g>
		<g>
			<linearGradient id="SVGID_1_" gradientUnits="userSpaceOnUse" x1="329.8842" y1="377.4647" x2="417.1864" y2="123.9205">
				<stop  offset="0" style="stop-color:#6BBD2F"/>
				<stop  offset="0.2324" style="stop-color:#7FC332"/>
				<stop  offset="0.7071" style="stop-color:#B4D33A"/>
				<stop  offset="1" style="stop-color:#D7DD3F"/>
			</linearGradient>
			<path fill="url(#SVGID_1_)" d="M460.6,280.2c0.3,34.4-7.2,60.8-22.5,79c-15.3,18.2-36.4,27.4-63,27.7
				c-26.8,0.3-48.1-8.6-63.9-26.5c-15.8-17.9-23.9-44.1-24.2-78.5l-0.6-60.6c-0.3-34.3,7.2-60.6,22.5-79
				c15.3-18.3,36.4-27.6,63.2-27.9c26.7-0.3,47.9,8.6,63.7,26.7c15.8,18,23.9,44.2,24.2,78.5L460.6,280.2z M415.8,213.3
				c-0.2-21.7-4-37.7-11.4-48c-7.4-10.3-18-15.5-32-15.3c-13.9,0.1-24.5,5.4-31.6,15.9c-7.1,10.5-10.6,26.6-10.4,48.3l0.7,73.6
				c0.2,21.8,4,37.9,11.5,48.3c7.4,10.4,18.1,15.5,32.1,15.4c13.9-0.1,24.4-5.4,31.5-15.9c7.1-10.5,10.5-26.7,10.3-48.6L415.8,213.3
				z"/>
		</g>
		<g>
			
				<ellipse transform="matrix(0.9361 -0.3518 0.3518 0.9361 -63.4106 110.813)" fill="#D7E027" cx="273.3" cy="229.9" rx="14.2" ry="0.3"/>
		</g>
		<g>
			
				<ellipse transform="matrix(0.9361 -0.3518 0.3518 0.9361 -71.7347 112.8603)" fill="#D7E027" cx="274.7" cy="253.8" rx="14.2" ry="0.3"/>
		</g>
		<g>
			
				<ellipse transform="matrix(0.9361 -0.3518 0.3518 0.9361 -80.0579 114.9054)" fill="#D7E027" cx="276.2" cy="277.8" rx="14.2" ry="0.3"/>
		</g>
		<g>
			
				<ellipse transform="matrix(0.9361 -0.3518 0.3518 0.9361 -88.3815 116.9515)" fill="#D7E027" cx="277.7" cy="301.7" rx="14.2" ry="0.3"/>
		</g>
		<g>
			<path fill="#D7E027" d="M292.4,320.6c0,0-0.3,0.2-0.9,0.5c-0.6,0.3-1.5,0.6-2.6,1.1c-2.2,0.9-5.2,2-8.5,3.3
				c-3.3,1.3-6.4,2.4-8.6,3.1c-1.1,0.4-2,0.7-2.6,0.9c-0.6,0.2-1,0.3-1,0.3c0,0,0.3-0.2,0.9-0.5c0.6-0.3,1.5-0.6,2.6-1.1
				c2.2-0.9,5.2-2,8.5-3.3c3.3-1.3,6.4-2.4,8.6-3.1c1.1-0.4,2-0.7,2.6-0.9C292.1,320.7,292.4,320.6,292.4,320.6z"/>
		</g>
		<g>
			<path fill="#D7E027" d="M299.3,342.5c0,0.1-1.1,0.6-3,1.3c-1.9,0.8-4.5,1.8-7.4,2.9c-2.9,1.1-5.6,2.1-7.5,2.7
				c-1.9,0.7-3.1,1.1-3.2,1c0-0.1,1.1-0.6,3-1.3c1.9-0.8,4.5-1.8,7.4-2.9c2.9-1.1,5.6-2.1,7.5-2.7
				C298,342.8,299.2,342.5,299.3,342.5z"/>
		</g>
		<g>
			<path fill="#D7E027" d="M313.9,362.6c0,0.1-1,0.5-2.7,1.2c-1.7,0.7-4,1.6-6.6,2.6c-2.6,1-5,1.8-6.7,2.4c-1.7,0.6-2.8,0.9-2.8,0.9
				c0-0.1,1-0.5,2.7-1.2c1.7-0.7,4-1.6,6.6-2.6c2.6-1,5-1.8,6.7-2.4C312.8,362.9,313.9,362.5,313.9,362.6z"/>
		</g>
		<g>
			<path fill="#D7E027" d="M338.2,375.8c0,0.1-1,0.5-2.7,1.2s-4,1.6-6.6,2.6c-2.6,1-5,1.8-6.7,2.4c-1.7,0.6-2.8,0.9-2.8,0.9
				c0-0.1,1-0.5,2.7-1.2c1.7-0.7,4-1.6,6.6-2.6c2.6-1,5-1.8,6.7-2.4C337.1,376,338.2,375.7,338.2,375.8z"/>
		</g>
		<g>
			
				<ellipse transform="matrix(0.9121 -0.41 0.41 0.9121 -101.6023 190.9669)" fill="#E8505B" cx="394.5" cy="332.4" rx="18.7" ry="0.3"/>
		</g>
		<g>
			
				<ellipse transform="matrix(0.9121 -0.41 0.41 0.9121 -91.9518 192.3015)" fill="#E8505B" cx="402.4" cy="310.5" rx="15.5" ry="0.3"/>
		</g>
		<g>
			
				<ellipse transform="matrix(0.9121 -0.41 0.41 0.9121 -82.3067 191.2174)" fill="#E8505B" cx="404.7" cy="287.5" rx="15.5" ry="0.3"/>
		</g>
		<g>
			
				<ellipse transform="matrix(0.9121 -0.41 0.41 0.9121 -72.6611 190.1303)" fill="#E8505B" cx="407" cy="264.5" rx="15.5" ry="0.3"/>
		</g>
		<g>
			
				<ellipse transform="matrix(0.9121 -0.41 0.41 0.9121 -63.0159 189.0462)" fill="#E8505B" cx="409.3" cy="241.5" rx="15.5" ry="0.3"/>
		</g>
		<g>
			
				<ellipse transform="matrix(0.9121 -0.41 0.41 0.9121 -55.0086 185.3634)" fill="#E8505B" cx="404.7" cy="220.9" rx="15.5" ry="0.3"/>
		</g>
		<g>
			
				<ellipse transform="matrix(0.9121 -0.41 0.41 0.9121 -45.955 183.4206)" fill="#E8505B" cx="404.7" cy="198.9" rx="15.5" ry="0.3"/>
		</g>
		<g>
			
				<ellipse transform="matrix(0.9121 -0.41 0.41 0.9121 -37.6306 180.6527)" fill="#E8505B" cx="402.4" cy="178.1" rx="15.5" ry="0.3"/>
		</g>
		<g>
			
				<ellipse transform="matrix(0.9121 -0.41 0.41 0.9121 -31.9245 173.3277)" fill="#E8505B" cx="388.2" cy="161.1" rx="9.4" ry="0.3"/>
		</g>
		<g>
			
				<ellipse transform="matrix(0.9121 -0.41 0.41 0.9121 -29.2148 168.215)" fill="#E8505B" cx="377.6" cy="152.2" rx="9.4" ry="0.3"/>
		</g>
		<g>
			
				<ellipse transform="matrix(0.9361 -0.3518 0.3518 0.9361 -53.1351 109.3591)" fill="#D7E027" cx="274.4" cy="200.9" rx="14.2" ry="0.3"/>
		</g>
		<g>
			
				<ellipse transform="matrix(0.9361 -0.3518 0.3518 0.9361 -42.3849 109.6747)" fill="#D7E027" cx="280.6" cy="171.5" rx="15.4" ry="0.3"/>
		</g>
		<g>
			
				<ellipse transform="matrix(0.9361 -0.3518 0.3518 0.9361 -31.5196 113.291)" fill="#D7E027" cx="296" cy="143.4" rx="19.5" ry="0.3"/>
		</g>
		<g>
			<path fill="#FFFFFF" d="M456.3,325c0,0-0.1,0-0.4-0.1c-0.3-0.1-0.7-0.3-1.2-0.5c-0.5-0.2-1.2-0.3-2-0.6c-0.8-0.1-1.8-0.3-2.8-0.3
				c-4.3-0.3-10.7,1.3-16.9,5.9c-3.1,2.2-6.1,5.3-8.9,8.8c-2.9,3.5-5.7,7.5-8.9,11.5c-3.2,4-6.9,8-11.5,11.2
				c-4.6,3.1-10.1,5.4-15.9,6.5c-5.8,1.1-11.8,0.8-17.2-0.6c-5.4-1.3-10.4-3.4-15.1-5.6c-4.6-2.2-9-4.3-13.1-6.2
				c-4.1-1.8-8.2-3.2-11.9-4.1c-3.8-0.9-7.2-1.2-10.3-1.2c-3.1,0-5.7,0.5-7.8,1.1c-2.1,0.6-3.6,1.3-4.6,1.8
				c-0.5,0.3-0.9,0.5-1.1,0.6c-0.3,0.1-0.4,0.2-0.4,0.2c0,0,0.1-0.1,0.4-0.2c0.3-0.2,0.6-0.4,1.1-0.7c1-0.6,2.5-1.2,4.6-1.9
				c2.1-0.6,4.7-1.1,7.8-1.2c3.1-0.1,6.6,0.3,10.4,1.1c3.8,0.9,7.8,2.2,12,4c4.2,1.8,8.5,4,13.2,6.1c4.6,2.1,9.6,4.2,15,5.5
				c5.4,1.3,11.2,1.6,17,0.6c5.8-1,11.2-3.3,15.7-6.4c4.6-3.1,8.2-7.1,11.4-11c3.2-4,6-7.9,8.9-11.5c2.9-3.5,5.9-6.6,9-8.9
				c6.3-4.6,12.8-6.2,17.1-5.8c1.1,0,2,0.3,2.9,0.4c0.8,0.2,1.5,0.4,2,0.6c0.5,0.2,0.9,0.4,1.2,0.5C456.2,325,456.3,325,456.3,325z"
				/>
		</g>
		<g>
			<path fill="#FFFFFF" d="M462.6,258.3c0,0.1-0.7,0.1-1.9,0.6c-1.2,0.4-2.9,1.2-4.8,2.6c-1.9,1.3-4,3.2-6.4,5.1
				c-2.4,1.9-5.4,3.7-8.6,5.3c-6.5,3.1-13,4.3-17.7,4.6c-1.2,0.1-2.2,0.1-3.2,0.1c-0.9,0-1.7-0.1-2.4-0.1c-0.6-0.1-1.1-0.1-1.5-0.2
				c-0.3,0-0.5-0.1-0.5-0.1c0,0,0.2,0,0.5,0c0.4,0,0.9,0,1.5,0.1c0.7,0,1.5,0,2.4,0c0.9,0,2,0,3.1-0.2c4.6-0.3,11.1-1.6,17.5-4.7
				c3.2-1.5,6.1-3.3,8.5-5.2c2.4-1.9,4.5-3.7,6.5-5c1.9-1.3,3.7-2.1,5-2.5c0.6-0.2,1.1-0.3,1.5-0.3
				C462.4,258.3,462.6,258.3,462.6,258.3z"/>
		</g>
		<g>
			<path fill="#FFFFFF" d="M332,281.5c0,0-0.2,0-0.5-0.1c-0.4-0.1-0.9-0.2-1.6-0.3c-1.3-0.4-3.2-1.1-5.4-2.3c-2.1-1.2-4.5-3-7-5.1
				c-2.5-2.1-5.2-4.4-8.3-6.6c-3.1-2.1-6.3-3.6-9.5-4.3c-3.1-0.8-6.1-0.9-8.5-0.8c-2.4,0.1-4.4,0.5-5.7,0.9c-1.3,0.3-2,0.6-2.1,0.5
				c0,0,0.2-0.1,0.5-0.2c0.3-0.1,0.8-0.3,1.5-0.5c1.3-0.4,3.3-0.9,5.8-1c2.5-0.2,5.5-0.1,8.6,0.7c3.2,0.7,6.6,2.2,9.7,4.4
				c3.1,2.2,5.8,4.5,8.3,6.6c2.5,2.1,4.8,3.9,6.9,5.2c2.1,1.3,3.9,2,5.2,2.5C331.3,281.2,332,281.4,332,281.5z"/>
		</g>
		<g>
			<path fill="#FFFFFF" d="M332.2,186.9c0,0-0.6,0.2-1.7,0.6c-0.5,0.2-1.2,0.4-2,0.6c-0.8,0.2-1.7,0.5-2.7,0.6
				c-1,0.2-2.1,0.4-3.3,0.6c-1.2,0.2-2.5,0.3-3.8,0.4c-2.7,0.2-5.7,0.2-8.8-0.1c-3.1-0.3-6-0.9-8.7-1.5c-1.3-0.4-2.5-0.7-3.7-1.1
				c-1.1-0.4-2.2-0.8-3.1-1.2c-1-0.4-1.8-0.8-2.5-1.1c-0.7-0.3-1.4-0.7-1.9-1c-1-0.6-1.5-0.9-1.5-0.9c0,0,0.6,0.2,1.6,0.7
				c0.5,0.3,1.1,0.6,1.9,0.9c0.7,0.3,1.6,0.7,2.5,1.1c0.9,0.4,2,0.8,3.1,1.1c1.1,0.4,2.4,0.7,3.7,1.1c2.6,0.6,5.5,1.2,8.6,1.5
				c3.1,0.3,6,0.3,8.7,0.1c1.3-0.1,2.6-0.2,3.8-0.4c1.2-0.1,2.3-0.3,3.3-0.5c1-0.2,1.9-0.4,2.7-0.6c0.8-0.2,1.5-0.3,2-0.5
				C331.5,187.1,332.2,186.9,332.2,186.9z"/>
		</g>
		<g>
			<path fill="#FFFFFF" d="M456.9,186.7c0,0-0.2-0.1-0.4-0.2c-0.3-0.2-0.7-0.4-1.2-0.7c-0.5-0.3-1.1-0.7-1.9-1
				c-0.7-0.4-1.6-0.8-2.5-1.2c-0.5-0.2-1-0.4-1.5-0.6c-0.5-0.2-1.1-0.4-1.7-0.6c-1.1-0.4-2.4-0.7-3.7-1.1c-2.7-0.6-5.7-1-8.8-1
				c-3.2,0-6.2,0.3-8.8,0.9c-1.3,0.3-2.6,0.6-3.8,1c-0.6,0.2-1.1,0.3-1.7,0.5c-0.5,0.2-1,0.4-1.5,0.6c-1,0.3-1.8,0.8-2.6,1.1
				c-0.8,0.3-1.4,0.7-1.9,1c-0.5,0.3-0.9,0.5-1.2,0.6c-0.3,0.1-0.4,0.2-0.4,0.2c0,0,0.1-0.1,0.4-0.3c0.3-0.2,0.7-0.4,1.1-0.7
				c0.5-0.3,1.1-0.7,1.8-1.1c0.7-0.4,1.6-0.9,2.5-1.2c0.5-0.2,1-0.4,1.5-0.6c0.5-0.2,1.1-0.4,1.7-0.6c1.2-0.4,2.4-0.7,3.8-1
				c2.7-0.6,5.8-0.9,9-0.9c3.2,0,6.2,0.5,8.9,1.1c1.3,0.4,2.6,0.7,3.8,1.1c0.6,0.2,1.1,0.4,1.7,0.6c0.5,0.2,1,0.5,1.5,0.7
				c1,0.4,1.8,0.9,2.5,1.3c0.7,0.4,1.3,0.8,1.8,1.1c0.4,0.3,0.8,0.5,1.1,0.8C456.8,186.6,457,186.7,456.9,186.7z"/>
		</g>
		<g>
			<path fill="#FFFFFF" d="M395.8,118.8c0,0-0.2,0.2-0.7,0.4c-0.5,0.3-1.2,0.7-2.1,1.1c-1.8,1-4.5,2.4-7.9,4.1
				c-6.7,3.3-16.1,7.8-27.3,10.7c-5.6,1.4-11,2.1-16,2.2c-5,0.1-9.5-0.3-13.1-1.1c-3.7-0.8-6.6-1.8-8.5-2.6c-1-0.4-1.7-0.8-2.2-1
				c-0.5-0.2-0.8-0.4-0.7-0.4c0,0,0.3,0.1,0.8,0.3c0.5,0.2,1.2,0.6,2.2,0.9c1.9,0.8,4.8,1.7,8.5,2.4c3.7,0.7,8.1,1.1,13,1
				c4.9-0.1,10.3-0.9,15.9-2.2c11.1-2.8,20.5-7.3,27.2-10.5c3.3-1.6,6-3,8-3.9c0.9-0.4,1.6-0.8,2.2-1.1
				C395.5,118.9,395.8,118.7,395.8,118.8z"/>
		</g>
	</g>
	<g>
		<g>
			<path fill="#0E9648" d="M195.1,293l33.4,1.5l-1.5,35.4l-33.4-1.5l-2.6,58.9l-44-1.9l2.6-58.9l-113.6-5l0.1-27l121-173.8l45.4,2
				L195.1,293z M80,288l71,3.1l4.7-107.4l-1.1-0.4l-4,7.7L80,288z"/>
		</g>
		<g>
			<linearGradient id="SVGID_2_" gradientUnits="userSpaceOnUse" x1="122.1704" y1="365.0768" x2="274.2307" y2="155.7838">
				<stop  offset="0" style="stop-color:#6BBD2F"/>
				<stop  offset="0.2324" style="stop-color:#7FC332"/>
				<stop  offset="0.7071" style="stop-color:#B4D33A"/>
				<stop  offset="1" style="stop-color:#D7DD3F"/>
			</linearGradient>
			<path fill="url(#SVGID_2_)" d="M223,294.2l33.4,1.5l-1.5,35.4l-33.4-1.5l-2.6,58.9l-44-1.9l2.6-58.9l-113.6-5l0.1-27L185,122
				l45.4,2L223,294.2z M108,289.2l71,3.1l4.7-107.4l-1.1-0.4l-4,7.7L108,289.2z"/>
		</g>
		<g>
			<g>
				<path fill="#D7E027" d="M64.6,303.1c0,0-0.4,0.2-1.1,0.6c-0.7,0.4-1.7,0.9-3,1.5c-2.6,1.2-6.2,2.8-10.2,4.5
					c-4,1.7-7.7,3.1-10.3,4.1c-1.3,0.5-2.4,0.9-3.2,1.2c-0.8,0.3-1.2,0.4-1.2,0.4c0,0,0.4-0.2,1.1-0.5c0.8-0.4,1.9-0.8,3.1-1.3
					c2.7-1.1,6.3-2.6,10.3-4.3c3.9-1.7,7.5-3.2,10.2-4.4c1.2-0.5,2.3-1,3.1-1.3C64.2,303.2,64.6,303,64.6,303.1z"/>
			</g>
			<g>
				<path fill="#D7E027" d="M80.9,273.1c0,0-0.5,0.3-1.5,0.8c-1,0.5-2.4,1.2-4.2,2c-3.6,1.6-8.5,3.8-14,6.1
					c-5.5,2.3-10.5,4.4-14.2,5.8c-1.8,0.7-3.3,1.3-4.3,1.6c-1,0.4-1.6,0.6-1.6,0.5c0,0,0.5-0.3,1.5-0.7c1.1-0.5,2.5-1.1,4.3-1.8
					c3.7-1.5,8.6-3.6,14.1-5.9c5.5-2.3,10.4-4.4,14.1-6c1.7-0.7,3.2-1.4,4.3-1.8C80.3,273.3,80.9,273.1,80.9,273.1z"/>
			</g>
			<g>
				<path fill="#D7E027" d="M100.7,244.3c0,0-0.5,0.3-1.6,0.8c-1,0.5-2.5,1.2-4.4,2c-3.7,1.6-8.9,3.8-14.6,6.1
					c-5.7,2.3-11,4.4-14.8,5.8c-1.9,0.7-3.4,1.3-4.5,1.6c-1.1,0.4-1.7,0.6-1.7,0.5c0,0,0.6-0.3,1.6-0.7c1.1-0.5,2.6-1.1,4.5-1.8
					c3.8-1.5,9-3.6,14.7-5.9c5.7-2.3,10.9-4.4,14.7-6c1.8-0.7,3.3-1.4,4.5-1.8C100.1,244.5,100.7,244.2,100.7,244.3z"/>
			</g>
			<g>
				<path fill="#D7E027" d="M180.3,275.1c0,0-0.4,0.2-1.1,0.6c-0.7,0.3-1.8,0.8-3,1.4c-2.6,1.2-6.2,2.7-10.2,4.3
					c-4,1.6-7.7,3-10.3,4c-1.3,0.5-2.4,0.9-3.2,1.1c-0.8,0.2-1.2,0.4-1.2,0.3c0,0,0.4-0.2,1.1-0.5c0.8-0.3,1.9-0.8,3.1-1.3
					c2.7-1.1,6.3-2.5,10.3-4.1c3.9-1.6,7.5-3.1,10.2-4.2c1.2-0.5,2.3-0.9,3.1-1.3C179.9,275.2,180.3,275.1,180.3,275.1z"/>
			</g>
			<g>
				<path fill="#D7E027" d="M177.1,330.1c0,0-0.4,0.2-1.1,0.6c-0.7,0.3-1.7,0.8-2.9,1.4c-2.5,1.2-6,2.7-9.9,4.3c-3.9,1.6-7.4,3-10,4
					c-1.3,0.5-2.3,0.9-3.1,1.1c-0.7,0.2-1.1,0.4-1.2,0.3c0,0,0.4-0.2,1.1-0.5c0.8-0.3,1.8-0.8,3-1.3c2.7-1.1,6.1-2.5,10-4.1
					c3.8-1.6,7.3-3.1,9.9-4.2c1.2-0.5,2.2-0.9,3-1.3C176.7,330.2,177.1,330,177.1,330.1z"/>
			</g>
			<g>
				<path fill="#D7E027" d="M176.6,349.3c0,0-0.4,0.2-1.1,0.6c-0.7,0.3-1.7,0.8-2.9,1.4c-2.5,1.2-6,2.7-9.9,4.3c-3.9,1.6-7.4,3-10,4
					c-1.3,0.5-2.3,0.9-3.1,1.1c-0.7,0.2-1.1,0.4-1.2,0.3s0.4-0.2,1.1-0.5c0.8-0.3,1.8-0.8,3-1.3c2.7-1.1,6.1-2.5,10-4.1
					c3.8-1.6,7.3-3.1,9.9-4.2c1.2-0.5,2.2-0.9,3-1.3C176.2,349.4,176.6,349.3,176.6,349.3z"/>
			</g>
			<g>
				<path fill="#D7E027" d="M176.2,368.6c0,0-0.4,0.2-1.1,0.6c-0.7,0.3-1.7,0.8-2.9,1.4c-2.5,1.2-6,2.7-9.9,4.3c-3.9,1.6-7.4,3-10,4
					c-1.3,0.5-2.3,0.9-3.1,1.1c-0.7,0.2-1.1,0.4-1.2,0.3c0,0,0.4-0.2,1.1-0.5c0.8-0.3,1.8-0.8,3-1.3c2.7-1.1,6.1-2.5,10-4.1
					c3.8-1.6,7.3-3.1,9.9-4.2c1.2-0.5,2.2-0.9,3-1.3C175.7,368.7,176.2,368.5,176.2,368.6z"/>
			</g>
			<g>
				<path fill="#D7E027" d="M180.8,254.8c0,0-0.4,0.2-1.1,0.6c-0.7,0.3-1.8,0.8-3,1.4c-2.6,1.2-6.2,2.7-10.2,4.3
					c-4,1.6-7.7,3-10.3,4c-1.3,0.5-2.4,0.9-3.2,1.1c-0.8,0.2-1.2,0.4-1.2,0.3s0.4-0.2,1.1-0.5c0.8-0.3,1.9-0.8,3.1-1.3
					c2.7-1.1,6.3-2.5,10.3-4.1c3.9-1.6,7.5-3.1,10.2-4.2c1.2-0.5,2.3-0.9,3.1-1.3C180.4,254.9,180.8,254.7,180.8,254.8z"/>
			</g>
			<g>
				<path fill="#D7E027" d="M181.4,234.4c0,0-0.4,0.2-1.1,0.6c-0.7,0.3-1.8,0.8-3,1.4c-2.6,1.2-6.2,2.7-10.2,4.3
					c-4,1.6-7.7,3-10.3,4c-1.3,0.5-2.4,0.9-3.2,1.1c-0.8,0.2-1.2,0.4-1.2,0.3c0,0,0.4-0.2,1.1-0.5c0.8-0.3,1.9-0.8,3.1-1.3
					c2.7-1.1,6.3-2.5,10.3-4.1c3.9-1.6,7.5-3.1,10.2-4.2c1.2-0.5,2.3-0.9,3.1-1.3C180.9,234.5,181.4,234.4,181.4,234.4z"/>
			</g>
			<g>
				<path fill="#D7E027" d="M181.9,214.1c0,0-0.4,0.2-1,0.6c-0.7,0.3-1.7,0.8-2.9,1.4c-2.5,1.1-5.9,2.6-9.7,4.2
					c-3.8,1.5-7.3,2.9-9.9,3.8c-1.3,0.5-2.3,0.8-3,1c-0.7,0.2-1.1,0.3-1.1,0.3c0,0,0.4-0.2,1.1-0.5c0.8-0.3,1.8-0.7,3-1.2
					c2.6-1,6-2.4,9.8-3.9c3.8-1.5,7.1-2.9,9.8-4c1.2-0.5,2.2-0.9,3-1.2C181.5,214.2,181.9,214.1,181.9,214.1z"/>
			</g>
			<g>
				
					<ellipse transform="matrix(0.9377 -0.3475 0.3475 0.9377 -57.2851 74.5042)" fill="#D7E027" cx="179.1" cy="197" rx="5.4" ry="0.3"/>
			</g>
			<g>
				<path fill="#D7E027" d="M120.6,216.6c0,0-0.5,0.3-1.6,0.8c-1,0.5-2.5,1.2-4.4,2c-3.7,1.6-8.9,3.8-14.6,6.1
					c-5.7,2.3-11,4.4-14.8,5.8c-1.9,0.7-3.4,1.3-4.5,1.6c-1.1,0.4-1.7,0.6-1.7,0.5c0,0,0.6-0.3,1.6-0.7c1.1-0.5,2.6-1.1,4.5-1.8
					c3.8-1.5,9-3.6,14.7-5.9c5.7-2.3,10.9-4.4,14.7-6c1.8-0.7,3.3-1.4,4.5-1.8C120,216.8,120.6,216.6,120.6,216.6z"/>
			</g>
			<g>
				<path fill="#D7E027" d="M140.4,188.9c0,0-0.5,0.3-1.6,0.8c-1,0.5-2.5,1.2-4.4,2c-3.7,1.6-8.9,3.8-14.6,6.1
					c-5.7,2.3-11,4.4-14.8,5.8c-1.9,0.7-3.4,1.3-4.5,1.6c-1.1,0.4-1.7,0.6-1.7,0.5c0,0,0.6-0.3,1.6-0.7c1.1-0.5,2.6-1.1,4.5-1.8
					c3.8-1.5,9-3.6,14.7-5.9c5.7-2.3,10.9-4.4,14.7-6c1.8-0.7,3.3-1.4,4.5-1.8C139.8,189.1,140.4,188.9,140.4,188.9z"/>
			</g>
			<g>
				<path fill="#D7E027" d="M158.7,161.2c0,0-0.5,0.3-1.6,0.8c-1,0.5-2.5,1.2-4.4,2c-3.7,1.6-8.9,3.8-14.6,6.1
					c-5.7,2.3-11,4.4-14.8,5.8c-1.9,0.7-3.4,1.3-4.5,1.6c-1.1,0.4-1.7,0.6-1.7,0.5c0,0,0.6-0.3,1.6-0.7c1.1-0.5,2.6-1.1,4.5-1.8
					c3.8-1.5,9-3.6,14.7-5.9c5.7-2.3,10.9-4.4,14.7-6c1.8-0.7,3.3-1.4,4.5-1.8C158.1,161.4,158.7,161.2,158.7,161.2z"/>
			</g>
			<g>
				<path fill="#D7E027" d="M177.8,134.6c0,0-0.5,0.3-1.6,0.8c-1,0.5-2.5,1.2-4.4,2c-3.7,1.6-8.9,3.8-14.6,6.1
					c-5.7,2.3-11,4.4-14.8,5.8c-1.9,0.7-3.4,1.3-4.5,1.6c-1.1,0.4-1.7,0.6-1.7,0.5c0,0,0.6-0.3,1.6-0.7c1.1-0.5,2.6-1.1,4.5-1.8
					c3.8-1.5,9-3.6,14.7-5.9c5.7-2.3,10.9-4.4,14.7-6c1.8-0.7,3.3-1.4,4.5-1.8C177.2,134.8,177.8,134.6,177.8,134.6z"/>
			</g>
			<g>
				<path fill="#FFFFFF" d="M228.4,175.3c0,0-0.2,0.2-0.6,0.7c-0.4,0.4-1,1-1.8,1.8c-1.6,1.4-4.2,3.4-7.8,5c-3.6,1.6-8.2,2.9-13.4,3
					c-2.6,0.1-5.3-0.2-8.1-0.9c-2.8-0.7-5.5-1.8-8.2-3.1c-5.4-2.6-10.2-5.7-14.8-7.9c-4.6-2.2-9.2-3.3-13.1-3.4
					c-3.9-0.1-7,0.7-8.9,1.7c-1,0.5-1.7,0.9-2.2,1.2c-0.5,0.3-0.7,0.5-0.7,0.5c0,0,0.2-0.2,0.7-0.6c0.4-0.4,1.2-0.8,2.1-1.3
					c1.9-1,5.1-2,9-1.9c3.9,0.1,8.6,1.2,13.3,3.4c4.7,2.1,9.5,5.2,14.9,7.8c2.7,1.3,5.4,2.4,8.1,3c2.7,0.7,5.4,1,8,0.9
					c5.1-0.1,9.7-1.3,13.2-2.9c3.5-1.6,6.1-3.4,7.8-4.8c0.9-0.7,1.5-1.3,1.9-1.7C228.2,175.5,228.4,175.3,228.4,175.3z"/>
			</g>
			<g>
				<path fill="#FFFFFF" d="M214.5,125.8c0,0-0.4,0.3-1.3,0.7c-0.8,0.5-2.1,1-3.6,1.7c-1.6,0.7-3.5,1.4-5.6,2
					c-2.1,0.6-4.5,1.2-7.1,1.6c-2.6,0.4-5,0.6-7.2,0.7c-2.2,0.1-4.3,0-5.9-0.1c-1.7-0.1-3-0.3-4-0.5c-0.9-0.2-1.4-0.3-1.4-0.3
					c0,0,0.5,0,1.5,0.1c0.9,0.1,2.3,0.2,4,0.3c1.7,0.1,3.7,0.1,5.9,0c2.2-0.1,4.7-0.3,7.2-0.7c2.5-0.4,4.9-1,7-1.6
					c2.1-0.6,4-1.3,5.6-1.9c1.6-0.6,2.8-1.1,3.7-1.5C214,126,214.5,125.8,214.5,125.8z"/>
			</g>
			<g>
				<path fill="#FFFFFF" d="M143.5,236.9c0,0-0.3-0.3-0.9-1c-0.6-0.7-1.4-1.7-2.4-2.8c-2-2.4-4.9-5.5-8.4-8.8c-1.7-1.6-3.5-3-5.2-4
					c-1.8-1-3.5-1.7-5-1.9c-3-0.6-5,0.1-5,0c0,0,0.1-0.1,0.3-0.1c0.2-0.1,0.6-0.2,1-0.2c0.9-0.1,2.2-0.2,3.7,0
					c1.6,0.3,3.4,0.9,5.2,1.9c1.8,1,3.6,2.4,5.4,4.1c3.5,3.2,6.3,6.5,8.3,8.9c1,1.2,1.7,2.2,2.2,2.9
					C143.3,236.5,143.6,236.9,143.5,236.9z"/>
			</g>
			<g>
				<path fill="#FFFFFF" d="M223.3,267.1c0,0-0.1,0.1-0.4,0.3c-0.3,0.2-0.7,0.5-1.2,0.8c-1,0.6-2.6,1.5-4.7,2.2
					c-4.1,1.6-10.3,2.7-16.9,1.3c-6.6-1.4-11.9-4.8-15-7.9c-1.6-1.5-2.7-2.9-3.4-3.9c-0.4-0.5-0.6-0.9-0.8-1.2
					c-0.2-0.3-0.3-0.4-0.2-0.4c0,0,0.4,0.5,1.2,1.5c0.8,1,1.9,2.3,3.5,3.7c3.2,2.9,8.4,6.3,14.9,7.6c6.5,1.3,12.6,0.3,16.7-1.2
					c2-0.7,3.6-1.5,4.7-2.1C222.7,267.4,223.3,267.1,223.3,267.1z"/>
			</g>
			<g>
				<path fill="#FFFFFF" d="M252.4,330.4c0,0-0.1-0.2-0.3-0.5c-0.2-0.3-0.5-0.8-0.8-1.4c-0.6-1.2-1.8-3-3.4-5.1
					c-0.4-0.5-0.9-1-1.4-1.6c-0.2-0.3-0.5-0.6-0.7-0.9c-0.3-0.3-0.6-0.5-0.8-0.8c-0.6-0.6-1.2-1.2-1.8-1.8c-0.7-0.6-1.4-1.1-2.1-1.7
					c-3-2.3-6.6-4.7-11-6.5c-4.4-1.8-9.5-3.2-15-3.5c-5.6-0.3-11.6,0.5-17.4,2.8c-5.8,2.3-11.5,5.8-17.5,9.1c-3,1.7-6.1,3.3-9.4,4.7
					c-3.3,1.3-6.8,2.4-10.5,2.7c-3.6,0.4-7.3,0.1-10.8-0.7c-3.5-0.7-6.8-2-9.9-3.4c-6.3-2.9-11.8-6.6-16.9-10.3
					c-5.1-3.7-10-7.2-14.8-10c-4.8-2.8-9.6-5-14.2-6.1c-4.6-1.1-9-1.3-12.7-0.8c-3.8,0.4-6.9,1.5-9.2,2.7c-2.4,1.2-4,2.6-5,3.4
					c-0.5,0.5-0.9,0.9-1.1,1.1c-0.3,0.3-0.4,0.4-0.4,0.4s0.1-0.1,0.4-0.4c0.3-0.3,0.6-0.7,1.1-1.2c1.1-0.9,2.6-2.3,5-3.6
					c2.4-1.2,5.5-2.3,9.3-2.8c3.8-0.5,8.2-0.3,12.8,0.8c4.7,1.1,9.5,3.3,14.4,6.1c4.9,2.8,9.7,6.3,14.9,10
					c5.1,3.6,10.6,7.4,16.8,10.2c3.1,1.4,6.4,2.6,9.8,3.4c3.4,0.7,7,1.1,10.6,0.6c3.6-0.4,7-1.4,10.3-2.7c3.3-1.3,6.4-3,9.3-4.6
					c6-3.3,11.6-6.8,17.5-9.1c1.5-0.5,3-1.1,4.5-1.4c0.7-0.2,1.5-0.4,2.2-0.6c0.8-0.1,1.5-0.2,2.2-0.4c3-0.5,5.9-0.5,8.7-0.4
					c5.6,0.3,10.8,1.7,15.2,3.6c4.4,1.9,8.1,4.3,11,6.6c0.7,0.6,1.4,1.2,2.1,1.8c0.6,0.6,1.2,1.2,1.8,1.8c0.3,0.3,0.6,0.6,0.8,0.8
					c0.2,0.3,0.5,0.6,0.7,0.9c0.5,0.6,0.9,1.1,1.3,1.6c1.6,2.1,2.7,3.9,3.4,5.1c0.3,0.6,0.6,1.1,0.8,1.4
					C252.4,330.2,252.4,330.4,252.4,330.4z"/>
			</g>
			<g>
				<path fill="#FFFFFF" d="M222.2,372.2c0,0-0.2,0.1-0.5,0.1c-0.4,0.1-0.9,0.2-1.5,0.3c-0.6,0.1-1.4,0.3-2.4,0.3
					c-0.9,0.1-2,0.2-3.1,0.3c-0.6,0-1.2,0.1-1.8,0.1c-0.6,0-1.3,0-2,0c-1.4,0-2.8-0.1-4.4-0.3c-3.1-0.3-6.4-0.9-9.9-1.9
					c-3.4-1-6.6-2.3-9.4-3.7c-1.4-0.7-2.7-1.4-3.8-2.1c-0.6-0.4-1.2-0.7-1.7-1.1c-0.5-0.4-1-0.7-1.5-1.1c-1-0.6-1.8-1.3-2.5-1.9
					c-0.7-0.6-1.3-1.1-1.8-1.6c-0.4-0.4-0.8-0.8-1.1-1c-0.2-0.2-0.4-0.4-0.4-0.4c0,0,0.2,0.1,0.4,0.3c0.3,0.3,0.7,0.6,1.2,1
					c0.5,0.4,1.1,0.9,1.8,1.5c0.7,0.5,1.6,1.2,2.5,1.8c0.5,0.3,1,0.7,1.5,1c0.5,0.4,1.1,0.7,1.7,1c1.2,0.7,2.5,1.4,3.8,2.1
					c2.8,1.3,5.9,2.6,9.3,3.6c3.4,1,6.7,1.6,9.8,1.9c1.5,0.1,3,0.3,4.3,0.3c0.7,0,1.3,0.1,2,0c0.6,0,1.2,0,1.8,0
					c1.2,0,2.2-0.1,3.1-0.2c0.9-0.1,1.7-0.2,2.4-0.3c0.6-0.1,1.1-0.1,1.5-0.2C222,372.2,222.2,372.2,222.2,372.2z"/>
			</g>
		</g>
	</g>
	<g>
		<g>
			<path fill="#0E9648" d="M629.3,293.4l33.3-3.3l3.5,35.3l-33.3,3.3l5.7,58.6l-43.8,4.3L589,333l-113.1,11.1l-3.7-26.7l95.3-189.1
				l45.3-4.4L629.3,293.4z M514.7,304.6l70.8-6.9l-10.5-107l-1.1-0.3l-2.9,8.1L514.7,304.6z"/>
		</g>
		<g>
			<linearGradient id="SVGID_3_" gradientUnits="userSpaceOnUse" x1="593.353" y1="387.381" x2="607.3998" y2="119.3512">
				<stop  offset="0" style="stop-color:#6BBD2F"/>
				<stop  offset="0.2324" style="stop-color:#7FC332"/>
				<stop  offset="0.7071" style="stop-color:#B4D33A"/>
				<stop  offset="1" style="stop-color:#D7DD3F"/>
			</linearGradient>
			<path fill="url(#SVGID_3_)" d="M657.2,290.7l33.3-3.3l3.5,35.3l-33.3,3.3l5.7,58.6l-43.8,4.3l-5.7-58.6l-113.1,11.1l-3.7-26.7
				l95.3-189.1l45.3-4.4L657.2,290.7z M542.6,301.9l70.8-6.9l-10.5-107l-1.1-0.3l-2.9,8.1L542.6,301.9z"/>
		</g>
		<g>
			<g>
				<path fill="#D7E027" d="M501.3,319.6c0,0-0.3,0.3-1,0.8c-0.7,0.5-1.6,1.1-2.8,1.9c-2.4,1.6-5.7,3.7-9.4,5.9
					c-3.7,2.2-7.1,4.2-9.6,5.6c-1.2,0.7-2.3,1.2-3,1.6c-0.7,0.4-1.1,0.5-1.1,0.5c0,0,0.3-0.3,1-0.7c0.8-0.5,1.7-1,2.9-1.7
					c2.5-1.5,5.9-3.5,9.6-5.7c3.7-2.2,7-4.2,9.5-5.8c1.1-0.7,2.1-1.3,2.9-1.7C500.9,319.8,501.2,319.6,501.3,319.6z"/>
			</g>
			<g>
				<path fill="#D7E027" d="M513.2,287.7c0,0-0.5,0.4-1.4,1c-0.9,0.6-2.2,1.5-3.9,2.5c-3.3,2.1-7.9,5-13,8
					c-5.1,3.1-9.8,5.8-13.2,7.7c-1.7,1-3.1,1.7-4.1,2.2c-1,0.5-1.5,0.8-1.5,0.7c0,0,0.5-0.4,1.4-0.9c1-0.6,2.4-1.4,4-2.4
					c3.4-2.1,8-4.8,13.1-7.9c5.1-3.1,9.7-5.8,13.1-7.9c1.6-1,3-1.8,4-2.4C512.6,287.9,513.1,287.6,513.2,287.7z"/>
			</g>
			<g>
				<path fill="#D7E027" d="M529.1,258.4c0,0-0.5,0.4-1.4,1c-1,0.6-2.3,1.5-4.1,2.6c-3.5,2.1-8.3,5-13.6,8.1
					c-5.4,3.1-10.3,5.9-13.8,7.8c-1.8,1-3.2,1.7-4.2,2.3c-1,0.5-1.6,0.8-1.6,0.8c0,0,0.5-0.4,1.5-0.9c1.1-0.6,2.5-1.4,4.2-2.4
					c3.6-2.1,8.4-4.9,13.7-7.9c5.3-3.1,10.1-5.9,13.7-8c1.7-1,3.1-1.8,4.2-2.4C528.5,258.7,529.1,258.4,529.1,258.4z"/>
			</g>
			<g>
				<path fill="#D7E027" d="M612.2,277.8c0,0-0.3,0.3-1,0.7c-0.7,0.4-1.6,1.1-2.8,1.8c-2.4,1.5-5.7,3.6-9.5,5.7
					c-3.7,2.2-7.2,4.1-9.7,5.4c-1.3,0.7-2.3,1.2-3,1.5c-0.7,0.4-1.1,0.5-1.1,0.5c0,0,0.4-0.3,1-0.7c0.8-0.5,1.8-1,2.9-1.7
					c2.6-1.5,5.9-3.4,9.6-5.5c3.7-2.2,7-4.1,9.5-5.6c1.2-0.7,2.1-1.2,2.9-1.7C611.8,277.9,612.2,277.7,612.2,277.8z"/>
			</g>
			<g>
				<path fill="#D7E027" d="M616.7,332.6c0,0-0.3,0.3-1,0.7c-0.6,0.4-1.6,1.1-2.7,1.8c-2.3,1.5-5.5,3.5-9.2,5.7
					c-3.6,2.2-6.9,4-9.4,5.3c-1.2,0.7-2.2,1.2-2.9,1.5c-0.7,0.3-1.1,0.5-1.1,0.5c0,0,0.3-0.3,1-0.7c0.8-0.5,1.7-1,2.8-1.7
					c2.5-1.5,5.7-3.4,9.3-5.5c3.6-2.1,6.8-4.1,9.2-5.6c1.1-0.7,2.1-1.2,2.8-1.7C616.3,332.8,616.7,332.6,616.7,332.6z"/>
			</g>
			<g>
				<path fill="#D7E027" d="M619,351.8c0,0-0.3,0.3-1,0.7c-0.6,0.4-1.6,1.1-2.7,1.8c-2.3,1.5-5.5,3.5-9.2,5.7
					c-3.6,2.2-6.9,4-9.4,5.3c-1.2,0.7-2.2,1.2-2.9,1.5c-0.7,0.3-1.1,0.5-1.1,0.5s0.3-0.3,1-0.7c0.8-0.5,1.7-1,2.8-1.7
					c2.5-1.5,5.7-3.4,9.3-5.5c3.6-2.1,6.8-4.1,9.2-5.6c1.1-0.7,2.1-1.2,2.8-1.7C618.6,351.9,619,351.7,619,351.8z"/>
			</g>
			<g>
				<path fill="#D7E027" d="M621.2,370.9c0,0-0.3,0.3-1,0.7c-0.6,0.4-1.6,1.1-2.7,1.8c-2.3,1.5-5.5,3.5-9.2,5.7
					c-3.6,2.2-6.9,4-9.4,5.3c-1.2,0.7-2.2,1.2-2.9,1.5c-0.7,0.3-1.1,0.5-1.1,0.5c0,0,0.3-0.3,1-0.7c0.8-0.5,1.7-1,2.8-1.7
					c2.5-1.5,5.7-3.4,9.3-5.5c3.6-2.1,6.8-4.1,9.2-5.6c1.1-0.7,2.1-1.2,2.8-1.7C620.8,371.1,621.2,370.9,621.2,370.9z"/>
			</g>
			<g>
				<path fill="#D7E027" d="M609.9,257.6c0,0-0.3,0.3-1,0.7c-0.7,0.4-1.6,1.1-2.8,1.8c-2.4,1.5-5.7,3.6-9.5,5.7
					c-3.7,2.2-7.2,4.1-9.7,5.4c-1.3,0.7-2.3,1.2-3,1.5c-0.7,0.4-1.1,0.5-1.1,0.5c0,0,0.4-0.3,1-0.7c0.8-0.5,1.8-1,2.9-1.7
					c2.6-1.5,5.9-3.4,9.6-5.5c3.7-2.2,7-4.1,9.5-5.6c1.2-0.7,2.1-1.2,2.9-1.7C609.5,257.7,609.9,257.5,609.9,257.6z"/>
			</g>
			<g>
				<path fill="#D7E027" d="M607.5,237.4c0,0-0.3,0.3-1,0.7c-0.7,0.4-1.6,1.1-2.8,1.8c-2.4,1.5-5.7,3.6-9.5,5.7
					c-3.7,2.2-7.2,4.1-9.7,5.4c-1.3,0.7-2.3,1.2-3,1.5c-0.7,0.4-1.1,0.5-1.1,0.5c0,0,0.4-0.3,1-0.7c0.8-0.5,1.8-1,2.9-1.7
					c2.6-1.5,5.9-3.4,9.6-5.5c3.7-2.2,7-4.1,9.5-5.6c1.2-0.7,2.1-1.2,2.9-1.7C607.1,237.5,607.5,237.3,607.5,237.4z"/>
			</g>
			<g>
				<path fill="#D7E027" d="M605.2,217.1c0,0-0.3,0.3-0.9,0.7c-0.6,0.4-1.5,1-2.7,1.7c-2.3,1.4-5.5,3.4-9,5.5
					c-3.6,2.1-6.8,3.9-9.2,5.1c-1.2,0.6-2.2,1.1-2.8,1.5c-0.7,0.3-1.1,0.5-1.1,0.5s0.3-0.3,1-0.6c0.7-0.4,1.7-1,2.8-1.6
					c2.4-1.4,5.6-3.2,9.1-5.2c3.5-2.1,6.7-3.9,9.1-5.3c1.1-0.6,2-1.2,2.8-1.6C604.8,217.3,605.2,217.1,605.2,217.1z"/>
			</g>
			<g>
				
					<ellipse transform="matrix(0.8795 -0.4759 0.4759 0.8795 -23.157 309.7176)" fill="#D7E027" cx="600" cy="200.6" rx="5.4" ry="0.3"/>
			</g>
			<g>
				<path fill="#E8505B" d="M544.8,228.2c0,0-0.5,0.4-1.4,1c-1,0.6-2.3,1.5-4.1,2.6c-3.5,2.1-8.3,5-13.6,8.1
					c-5.4,3.1-10.3,5.9-13.8,7.8c-1.8,1-3.2,1.7-4.2,2.3c-1,0.5-1.6,0.8-1.6,0.8c0,0,0.5-0.4,1.5-0.9c1.1-0.6,2.5-1.4,4.2-2.4
					c3.6-2.1,8.4-4.9,13.7-7.9c5.3-3.1,10.1-5.9,13.7-8c1.7-1,3.1-1.8,4.2-2.4C544.3,228.5,544.8,228.2,544.8,228.2z"/>
			</g>
			<g>
				<path fill="#E8505B" d="M560.6,198c0,0-0.5,0.4-1.4,1c-1,0.6-2.3,1.5-4.1,2.6c-3.5,2.1-8.3,5-13.6,8.1
					c-5.4,3.1-10.3,5.9-13.8,7.8c-1.8,1-3.2,1.7-4.2,2.3c-1,0.5-1.6,0.8-1.6,0.8c0,0,0.5-0.4,1.5-0.9c1.1-0.6,2.5-1.4,4.2-2.4
					c3.6-2.1,8.4-4.9,13.7-7.9c5.3-3.1,10.1-5.9,13.7-8c1.7-1,3.1-1.8,4.2-2.4C560,198.3,560.6,198,560.6,198z"/>
			</g>
			<g>
				<path fill="#D7E027" d="M574.8,168.1c0,0-0.5,0.4-1.4,1c-1,0.6-2.3,1.5-4.1,2.6c-3.5,2.1-8.3,5-13.6,8.1
					c-5.4,3.1-10.3,5.9-13.8,7.8c-1.8,1-3.2,1.7-4.2,2.3c-1,0.5-1.6,0.8-1.6,0.8c0,0,0.5-0.4,1.5-0.9c1.1-0.6,2.5-1.4,4.2-2.4
					c3.6-2.1,8.4-4.9,13.7-7.9c5.3-3.1,10.1-5.9,13.7-8c1.7-1,3.1-1.8,4.2-2.4C574.3,168.3,574.8,168,574.8,168.1z"/>
			</g>
			<g>
				<path fill="#D7E027" d="M590,139c0,0-0.5,0.4-1.4,1c-1,0.6-2.3,1.5-4.1,2.6c-3.5,2.1-8.3,5-13.6,8.1c-5.4,3.1-10.3,5.9-13.8,7.8
					c-1.8,1-3.2,1.7-4.2,2.3c-1,0.5-1.6,0.8-1.6,0.8c0,0,0.5-0.4,1.5-0.9c1.1-0.6,2.5-1.4,4.2-2.4c3.6-2.1,8.4-4.9,13.7-7.9
					c5.3-3.1,10.1-5.9,13.7-8c1.7-1,3.1-1.8,4.2-2.4C589.4,139.3,589.9,139,590,139z"/>
			</g>
			<g>
				<path fill="#FFFFFF" d="M645.8,172.2c0,0-0.2,0.3-0.5,0.7c-0.3,0.5-0.8,1.2-1.5,2c-1.4,1.7-3.7,3.9-7,6.1
					c-3.3,2.1-7.7,4-12.8,4.9c-2.6,0.4-5.3,0.5-8.1,0.2c-2.8-0.3-5.7-1-8.5-1.9c-5.7-1.8-10.9-4.2-15.8-5.7c-4.9-1.5-9.6-2-13.4-1.5
					c-3.9,0.4-6.8,1.7-8.6,2.9c-0.9,0.6-1.6,1.1-2,1.5c-0.4,0.4-0.7,0.6-0.7,0.6c0,0,0.2-0.2,0.6-0.6c0.4-0.4,1-1,1.9-1.6
					c1.8-1.3,4.8-2.6,8.7-3.1c3.9-0.5,8.7-0.1,13.6,1.4c5,1.5,10.2,3.8,15.8,5.7c2.8,0.9,5.6,1.6,8.4,1.9c2.8,0.3,5.5,0.2,8-0.2
					c5.1-0.8,9.4-2.7,12.7-4.7c3.3-2.1,5.6-4.3,7-5.9c0.7-0.8,1.3-1.5,1.6-1.9C645.6,172.4,645.8,172.2,645.8,172.2z"/>
			</g>
			<g>
				<path fill="#FFFFFF" d="M625.1,125.2c0,0-0.4,0.4-1.2,0.9c-0.8,0.6-1.9,1.3-3.4,2.2c-1.4,0.9-3.2,1.8-5.3,2.8
					c-2,0.9-4.3,1.8-6.8,2.6c-2.5,0.8-4.9,1.3-7.1,1.7c-2.2,0.4-4.2,0.6-5.9,0.7c-1.7,0.1-3.1,0.1-4,0.1c-0.9,0-1.5-0.1-1.5-0.1
					c0,0,0.5-0.1,1.5-0.1c0.9,0,2.3-0.1,4-0.3c1.7-0.1,3.7-0.4,5.8-0.8c2.2-0.4,4.6-1,7-1.7c2.4-0.8,4.7-1.7,6.8-2.6
					c2-0.9,3.8-1.8,5.3-2.7c1.5-0.8,2.6-1.5,3.4-2C624.6,125.4,625.1,125.1,625.1,125.2z"/>
			</g>
			<g>
				<path fill="#FFFFFF" d="M570.4,245.1c0,0-0.4-0.3-1-0.9c-0.7-0.6-1.6-1.5-2.7-2.5c-2.3-2-5.6-4.8-9.5-7.5
					c-1.9-1.3-3.9-2.5-5.8-3.3c-1.9-0.8-3.7-1.1-5.2-1.2c-3.1-0.2-4.9,0.8-4.9,0.7c0,0,0.1-0.1,0.3-0.2c0.2-0.1,0.5-0.2,0.9-0.4
					c0.8-0.3,2.1-0.5,3.7-0.5c1.6,0,3.5,0.4,5.4,1.1c1.9,0.8,3.9,1.9,5.9,3.3c3.9,2.7,7.2,5.5,9.5,7.6c1.1,1.1,2,2,2.6,2.6
					C570.1,244.7,570.4,245.1,570.4,245.1z"/>
			</g>
			<g>
				<path fill="#FFFFFF" d="M653.6,263.8c0,0-0.1,0.1-0.3,0.4c-0.2,0.2-0.6,0.5-1.1,0.9c-0.9,0.8-2.4,1.8-4.3,2.9
					c-3.8,2.1-9.8,4.1-16.6,3.7c-6.8-0.4-12.5-3.1-16-5.7c-1.8-1.3-3.1-2.5-3.9-3.4c-0.4-0.4-0.7-0.8-0.9-1
					c-0.2-0.2-0.3-0.4-0.3-0.4c0,0,0.5,0.5,1.4,1.3c0.9,0.8,2.2,2,4,3.2c3.5,2.5,9.2,5.1,15.8,5.5c6.6,0.4,12.5-1.5,16.4-3.5
					c1.9-1,3.4-2,4.4-2.7C653.1,264.2,653.6,263.8,653.6,263.8z"/>
			</g>
			<g>
				<path fill="#FFFFFF" d="M691.4,322.4c0,0-0.1-0.1-0.3-0.4c-0.2-0.3-0.6-0.7-1-1.3c-0.8-1.1-2.2-2.7-4.1-4.5
					c-0.5-0.4-1-0.9-1.6-1.4c-0.3-0.2-0.6-0.5-0.8-0.8c-0.3-0.2-0.6-0.5-1-0.7c-0.7-0.5-1.3-1-2-1.5c-0.7-0.5-1.5-0.9-2.3-1.4
					c-3.3-1.9-7.2-3.7-11.8-4.9c-4.6-1.2-9.8-1.8-15.4-1.3c-5.6,0.5-11.4,2.2-16.9,5.2c-5.5,3.1-10.6,7.3-16,11.5
					c-2.7,2.1-5.6,4.1-8.6,5.9c-3.1,1.8-6.4,3.3-10,4.2c-3.6,0.9-7.2,1.1-10.8,0.9c-3.6-0.2-7-1-10.3-2c-6.6-1.9-12.6-4.9-18.2-7.8
					c-5.6-2.9-10.9-5.7-16.1-7.8c-5.2-2.1-10.2-3.6-14.9-4c-4.7-0.4-9.1,0-12.7,1c-3.7,0.9-6.6,2.4-8.8,3.9
					c-2.2,1.5-3.6,3.1-4.5,4.1c-0.4,0.5-0.7,1-1,1.3c-0.2,0.3-0.3,0.4-0.3,0.4s0.1-0.2,0.3-0.5c0.2-0.3,0.5-0.7,0.9-1.3
					c0.9-1.1,2.2-2.7,4.5-4.2c2.2-1.6,5.1-3.1,8.8-4.1c3.7-1,8-1.5,12.8-1c4.8,0.4,9.9,1.9,15.1,4c5.2,2.1,10.5,4.9,16.1,7.8
					c5.6,2.9,11.5,5.8,18.1,7.7c3.3,1,6.7,1.7,10.2,1.9c3.5,0.2,7.1,0.1,10.6-0.9c3.5-0.9,6.8-2.4,9.8-4.1c3-1.8,5.9-3.8,8.6-5.9
					c5.4-4.2,10.6-8.4,16.1-11.5c1.4-0.7,2.8-1.5,4.2-2.1c0.7-0.3,1.4-0.6,2.1-0.9c0.7-0.2,1.4-0.5,2.2-0.7c2.9-0.9,5.8-1.3,8.6-1.6
					c5.6-0.5,10.9,0.2,15.5,1.4c4.6,1.2,8.6,3.1,11.8,5c0.8,0.5,1.6,1,2.3,1.5c0.7,0.5,1.4,1,2,1.5c0.3,0.2,0.6,0.5,1,0.7
					c0.3,0.3,0.6,0.5,0.8,0.8c0.5,0.5,1.1,1,1.6,1.4c1.9,1.9,3.3,3.5,4,4.6c0.4,0.6,0.7,1,0.9,1.3
					C691.3,322.2,691.4,322.4,691.4,322.4z"/>
			</g>
			<g>
				<path fill="#FFFFFF" d="M667.3,368c0,0-0.2,0.1-0.5,0.2c-0.4,0.1-0.9,0.3-1.4,0.5c-0.6,0.2-1.4,0.5-2.3,0.7
					c-0.9,0.2-1.9,0.5-3.1,0.7c-0.6,0.1-1.2,0.2-1.8,0.3c-0.6,0.1-1.3,0.2-2,0.3c-1.4,0.2-2.8,0.3-4.4,0.4c-3.1,0.1-6.5,0-10-0.5
					c-3.5-0.5-6.8-1.4-9.8-2.3c-1.5-0.5-2.8-1-4.1-1.6c-0.6-0.3-1.2-0.5-1.8-0.8c-0.6-0.3-1.1-0.6-1.6-0.8c-1.1-0.5-1.9-1.1-2.7-1.5
					c-0.8-0.5-1.5-0.9-2-1.3c-0.5-0.3-0.9-0.6-1.2-0.9c-0.3-0.2-0.4-0.3-0.4-0.3s0.2,0.1,0.5,0.2c0.3,0.2,0.8,0.5,1.3,0.8
					c0.5,0.4,1.2,0.8,2,1.2c0.8,0.4,1.7,1,2.8,1.5c0.5,0.3,1.1,0.5,1.6,0.8c0.6,0.3,1.2,0.5,1.8,0.8c1.2,0.6,2.6,1,4.1,1.5
					c2.9,0.9,6.2,1.8,9.7,2.3c3.5,0.5,6.9,0.6,9.9,0.5c1.5-0.1,3-0.1,4.3-0.3c0.7-0.1,1.3-0.1,2-0.2c0.6-0.1,1.2-0.2,1.8-0.3
					c1.2-0.2,2.2-0.4,3.1-0.6c0.9-0.2,1.7-0.4,2.3-0.6c0.6-0.2,1.1-0.3,1.4-0.4C667.1,368,667.3,368,667.3,368z"/>
			</g>
		</g>
	</g>
	<g>
		<g>
			<g>
				<path fill="#455A64" d="M459.1,221.5l-7-1.1l-43.4-14l-25.4-7.3c-5.9-2-13.6-2.8-21.9,1.5c-12,6.1-45.1,36.9-45.1,36.9
					l23.8,24.5l-11.2,49.7c12.6,35.7,37.1,39.8,37.1,39.8s16.1,1.4,35.2-5.8c22.8-8.7,46.8-29.1,49.8-37.9
					c1.8-5.3,3.3-16.3,4.5-28.8l36.1-14.7l9.8-50L459.1,221.5z"/>
				<g>
					<path fill="#263238" d="M406.3,310c0,0-0.1,0.1-0.4,0.3c-0.2,0.2-0.6,0.5-1.1,0.8c-1,0.7-2.4,1.5-4.3,2.3
						c-3.8,1.6-9.7,2.9-16,1.5c-6.3-1.4-11.2-5-13.9-8c-1.4-1.5-2.4-2.9-3-3.9c-0.3-0.5-0.5-0.9-0.7-1.2c-0.1-0.3-0.2-0.4-0.2-0.4
						c0,0,0.4,0.5,1,1.5c0.6,1,1.6,2.3,3.1,3.8c2.8,3,7.6,6.4,13.8,7.8c6.2,1.3,12,0.2,15.8-1.3c1.9-0.8,3.4-1.6,4.4-2.2
						C405.8,310.3,406.3,309.9,406.3,310z"/>
				</g>
				<g>
					<path fill="#263238" d="M392.6,208.5c0,0,0,0.1,0.1,0.2c0,0.2,0.1,0.4,0.2,0.7c0.2,0.6,0.4,1.5,0.6,2.7
						c0.5,2.4,1.2,5.9,1.4,10.2c0.1,2.2,0,4.6-0.4,7.1c-0.5,2.5-1.4,5.2-2.8,7.7c-1.5,2.5-3.6,4.8-5.9,6.9c-2.4,2.1-5,4-7.6,6.1
						c-5.6,4.2-11.1,8.1-16,11.5c-4.9,3.5-9.2,6.6-12.7,9.2l-0.1,0.1l-0.1-0.1c-3.1-2.5-5.4-4.7-6.9-6.2c-0.8-0.8-1.3-1.5-1.6-1.9
						c-0.2-0.2-0.3-0.4-0.4-0.5c-0.1-0.1-0.1-0.2-0.1-0.2c0,0,0.2,0.2,0.5,0.7c0.4,0.4,0.9,1.1,1.7,1.8c1.5,1.5,3.9,3.7,7,6.1
						l-0.2,0c3.4-2.7,7.7-5.8,12.6-9.3c4.9-3.5,10.4-7.3,16-11.6c2.6-2,5.2-4,7.6-6c2.3-2.1,4.4-4.3,5.9-6.7c1.5-2.4,2.4-5,2.8-7.5
						c0.5-2.5,0.5-4.9,0.5-7.1c-0.2-4.3-0.8-7.8-1.3-10.2c-0.2-1.2-0.4-2.1-0.5-2.8c-0.1-0.3-0.1-0.5-0.1-0.7
						C392.6,208.6,392.6,208.5,392.6,208.5z"/>
				</g>
			</g>
			<g>
				<path fill="#263238" d="M580.9,231c10.2-8.7,13.6-24.4,8-36.5c-4.8-0.5-9.5-1-14.3-1.5c7.3-3.8,11.6-12.5,10.4-20.6
					c-7.7,8.3-21.1,10.8-31.2,5.8c-6.7-3.3-12.1-9.5-19.4-10.7c-6.7-1.2-13.2,2-19.6,4.2c-6.4,2.3-14.1,3.5-19.4-0.7
					c-4.2-3.4-5.5-9.2-5.2-14.6c0.3-5.4,1.8-10.6,2.2-15.9c0.7-10.5-3.9-21.1-11.6-28.2c-2.4-7.6-8.2-14.2-15.6-17.3
					c-8.9-3.8-19.9-2.3-27.5,3.6c-3.1,2.4-5.8,5.5-9.3,7.3c-4,2-8.7,2-13,3c-4.3,1.1-8.9,3.9-9.4,8.4l-1.7,9.1
					c-0.3,0.7-0.6,1.3-1,1.9c-3.7,6.5-11.2,10.7-12.9,18c-0.9,4.1,0.2,8.5-1.1,12.4c-1.8,5.2-7.4,8.1-10,12.9
					c-3.6,6.6-1.2,18.3,4.6,23.2c5.7,4.9,17.5,10.1,24.9,11.7c2-7.7,3.8-15.9,5.5-24.3c3,2.9,6.2,5.6,9.3,8.4
					c8.2,7.1,16.6,14.4,22.3,23.7c10.8,17.6,11,41,24.6,56.5c2.7,3.1,5.9,5.8,9.8,6.9c3.9,1.2,8.5,0.6,11.4-2.3
					c3.4-3.4,3.8-9.1,7.6-12c5-4,12.3-0.8,17.6,2.6c3.9,2.5,7.8,5.1,12.2,6.5s9.5,1.3,13.2-1.4c3.7-2.7,5.4-8.4,2.7-12.1
					c-1.1-1.5-2.7-2.5-3.8-4c-1.1-1.5-1.4-3.9,0.1-5c1.6-1.2,3.9,0,5.6,1c8.5,5,19.4,6,28.7,2.5c9.3-3.5,16.9-11.3,20.1-20.7
					C590.6,233.5,585.5,232.9,580.9,231z"/>
				<g>
					<path fill="#263238" d="M572,152.5c0,0,0.5,0.3,1.3,1.1c0.8,0.8,2,2,2.9,3.9c0.5,0.9,0.9,2.1,1.1,3.4c0.2,1.3,0.1,2.8-0.5,4.2
						c-0.6,1.4-1.6,2.8-3.1,3.7c-0.7,0.5-1.6,0.8-2.5,0.9c-0.9,0.1-1.9,0-2.8-0.4c-3.7-1.5-5.6-5.8-9.6-7.7
						c-3.9-2.1-8.9-2.2-13.7-1.1c-4.9,1.1-9.5,3.7-14.2,6.4c-4.7,2.6-9.8,5.5-15.6,6.5c-2.9,0.5-5.8,0.6-8.6-0.1
						c-1.4-0.3-2.7-0.8-4-1.5c-1.2-0.7-2.4-1.5-3.4-2.5c-2-1.9-3.4-4.4-4.3-6.8c-0.9-2.5-1.5-5-1.8-7.5c-0.5-5-0.1-9.8-0.1-14.2
						c0.1-4.4-0.2-8.6-1.2-12.2c-0.5-1.8-1.2-3.5-1.9-5c-0.7-1.5-1.6-2.9-2.4-4.1c-1.7-2.5-3.5-4.3-5.1-5.7c-1.6-1.4-3-2.3-3.9-2.9
						c-0.5-0.3-0.8-0.5-1.1-0.6c-0.2-0.1-0.4-0.2-0.4-0.2c0,0,0.1,0.1,0.4,0.2c0.3,0.1,0.6,0.3,1.1,0.6c0.9,0.6,2.4,1.4,4,2.8
						c1.6,1.4,3.5,3.2,5.2,5.7c0.9,1.2,1.7,2.6,2.5,4.1c0.8,1.5,1.5,3.2,2,5.1c1.1,3.7,1.4,7.9,1.3,12.3c0,4.5-0.4,9.2,0.1,14.2
						c0.3,2.5,0.8,5,1.8,7.4c0.9,2.4,2.3,4.8,4.2,6.6c1,0.9,2,1.8,3.2,2.4c1.2,0.6,2.5,1.1,3.8,1.4c2.7,0.6,5.6,0.6,8.4,0.1
						c5.7-1,10.7-3.8,15.4-6.4c4.7-2.6,9.4-5.3,14.4-6.4c2.5-0.5,4.9-0.8,7.3-0.6c1.2,0.1,2.4,0.3,3.5,0.6c1.1,0.3,2.2,0.7,3.2,1.3
						c4.1,2,6,6.3,9.5,7.8c1.7,0.7,3.6,0.5,5-0.4c1.4-0.9,2.4-2.2,3-3.6c0.6-1.4,0.7-2.8,0.5-4c-0.2-1.3-0.6-2.4-1-3.3
						c-0.9-1.9-2.1-3.1-2.8-3.9c-0.4-0.4-0.7-0.7-0.9-0.9C572.1,152.7,572,152.6,572,152.5z"/>
				</g>
				<g>
					<path fill="#263238" d="M408.6,210.3c0,0,0-0.2-0.1-0.5c0-0.3-0.1-0.7-0.3-1.3c-0.3-1.1-1-2.8-2.5-4.5
						c-1.5-1.7-3.7-3.3-6.6-4.6c-2.9-1.3-6.5-2-10.4-2.7c-3.9-0.8-8.4-1.6-12.4-4.3c-4-2.7-7.1-7.2-7.9-12.6
						c-0.8-5.3,0.9-11.3,5-15.5c4.1-4.2,10-6.4,14.8-10.1c1.2-1,2.3-2,3.1-3.2c0.8-1.2,1.5-2.5,1.9-4c0.8-2.8,0.7-5.8,1-8.7
						c0.1-1.4,0.3-2.9,0.8-4.3c0.4-1.4,1.2-2.7,2.1-3.7c1.9-2.1,4.6-3.3,7.2-4c2.6-0.7,5.1-1.2,7.5-1.9c2.4-0.7,4.7-1.6,6.6-2.9
						c1.9-1.3,3.5-3,4.9-4.6c1.4-1.7,2.6-3.4,3.7-5.1c2.2-3.3,4.1-6.5,6.1-9c2-2.5,4-4.5,5.8-5.8c1.8-1.3,3.5-2,4.6-2.4
						c1.1-0.4,1.8-0.4,1.8-0.4c0,0-0.6,0.1-1.7,0.5c-1.1,0.4-2.7,1.1-4.5,2.4c-1.8,1.3-3.8,3.3-5.7,5.8c-2,2.5-3.8,5.6-6,9
						c-1.1,1.7-2.3,3.4-3.7,5.1c-1.4,1.7-3,3.4-5,4.7c-1.9,1.4-4.3,2.3-6.7,3c-2.4,0.7-5,1.2-7.5,1.9c-2.5,0.7-5.1,1.8-6.9,3.9
						c-0.9,1-1.6,2.2-2,3.6c-0.4,1.3-0.6,2.7-0.8,4.2c-0.3,2.9-0.2,5.9-1,8.8c-0.4,1.5-1.1,2.9-2,4.1c-0.9,1.2-2,2.3-3.2,3.3
						c-2.4,1.9-5.1,3.4-7.7,4.9c-2.6,1.5-5,3.1-7,5.1c-4,4.1-5.7,10-4.9,15.1c0.8,5.2,3.8,9.7,7.7,12.3c3.9,2.6,8.3,3.5,12.2,4.3
						c3.9,0.8,7.6,1.4,10.5,2.8c2.9,1.3,5.2,3,6.7,4.7c1.5,1.7,2.1,3.4,2.4,4.6c0.2,0.6,0.2,1,0.2,1.3
						C408.6,210.1,408.6,210.3,408.6,210.3z"/>
				</g>
				<g>
					<path fill="#455A64" d="M488.4,120.5c0,0-0.3,0-0.8-0.2c-0.5-0.2-1.2-0.4-2-0.8c-1.7-0.8-3.8-2-6-3.9c-2.1-1.8-3.7-3.8-4.7-5.3
						c-0.5-0.8-0.9-1.4-1.1-1.9c-0.2-0.5-0.3-0.7-0.3-0.7c0.1,0,0.6,0.9,1.7,2.4c1.1,1.5,2.7,3.4,4.8,5.1c2.1,1.8,4.2,3.1,5.8,3.9
						C487.4,120,488.4,120.4,488.4,120.5z"/>
				</g>
				<g>
					<path fill="#455A64" d="M521.6,188.7c0,0-0.6-0.2-1.8-0.4c-1.1-0.2-2.8-0.5-4.9-0.6c-2.1-0.1-4.5,0-7.3,0.2
						c-2.7,0.2-5.8,0.5-8.9,0.4c-3.2-0.1-6.3-0.6-8.8-1.7c-2.6-1.1-4.6-2.7-5.9-4.3c-1.3-1.6-2-3.2-2.3-4.4c-0.1-0.6-0.2-1-0.2-1.3
						c0-0.3,0-0.5,0-0.5c0.1,0,0.1,0.6,0.4,1.7c0.3,1.1,1,2.6,2.4,4.2c1.3,1.5,3.3,3.1,5.8,4.1c2.5,1,5.5,1.5,8.7,1.6
						c3.2,0.1,6.2-0.2,8.9-0.4c2.7-0.2,5.2-0.2,7.3-0.1c2.1,0.1,3.8,0.5,4.9,0.8c0.6,0.2,1,0.3,1.3,0.4
						C521.5,188.6,521.6,188.7,521.6,188.7z"/>
				</g>
				<g>
					<path fill="#455A64" d="M580.6,234.2c0,0-0.1,0.1-0.3,0.1c-0.2,0.1-0.5,0.2-0.9,0.3c-0.8,0.2-2.1,0.3-3.6-0.2
						c-1.5-0.5-3.2-1.4-4.8-3c-1.6-1.6-2.8-3.9-3.9-6.5c-1.1-2.6-2-5.5-3.8-8.2c-0.8-1.4-2-2.6-3.2-3.9c-1.3-1.2-2.7-2.3-4.2-3.2
						c-6.3-3.8-14.5-5.3-23-4.8c-8.5,0.4-16.4,2.1-23.8,2.6c-7.4,0.7-14.1-0.2-19.4-2c-5.3-1.8-9-4.7-11.1-7c-0.6-0.6-1-1.1-1.3-1.6
						c-0.4-0.5-0.7-0.9-0.9-1.2c-0.2-0.3-0.4-0.6-0.5-0.8c-0.1-0.2-0.2-0.3-0.1-0.3c0,0,0.1,0.1,0.2,0.3c0.1,0.2,0.3,0.4,0.5,0.8
						c0.2,0.3,0.5,0.8,0.9,1.2c0.4,0.5,0.8,1,1.4,1.5c2.1,2.2,5.8,5,11.1,6.8c5.3,1.8,11.9,2.6,19.3,1.9c7.3-0.5,15.3-2.2,23.8-2.7
						c8.5-0.5,16.8,1.1,23.2,5c1.6,0.9,3,2.1,4.3,3.3c1.2,1.3,2.4,2.5,3.2,4c1.8,2.8,2.7,5.8,3.8,8.3c1,2.6,2.2,4.8,3.7,6.4
						c1.5,1.6,3.2,2.6,4.6,3c1.5,0.5,2.7,0.4,3.5,0.3C580.2,234.3,580.6,234.1,580.6,234.2z"/>
				</g>
			</g>
			<g>
				<g>
					<g>
						<g>
							<g>
								<g>
									<g>
										<g>
											<g>
												<g>
													<g>
														<g>
															<g>
																<g>
																	<g>
																		<path fill="#FFBE9D" d="M423.3,120.5c-3.9-0.1-7.2,2.8-7.6,6.6l0,0l-8.1,84.2c-1.4,11.8,14.1,37.2,26.8,38.6l0,0
																			c12.8,1.4,14.1-4.8,15.7-16c2.8-18.7,3.7-25.8,3.7-25.7c0,0,16.5-0.6,22.6-21.2c3-10.3,4.8-27.5,5.7-41.7
																			c0.9-12.7-5.5-29.4-18.2-29.7L423.3,120.5z"/>
																	</g>
																</g>
															</g>
														</g>
													</g>
												</g>
											</g>
											<g>
												<g>
													<g>
														<g>
															<g>
																<g>
																	<g>
																		<g>
																			<path fill="#263238" d="M476.6,156.6c-0.1,1.4-1.5,2.5-3,2.4c-1.5-0.1-2.6-1.4-2.5-2.8c0.1-1.4,1.5-2.5,3-2.4
																				C475.6,153.9,476.7,155.2,476.6,156.6z"/>
																		</g>
																	</g>
																</g>
															</g>
														</g>
													</g>
												</g>
												<g>
													<g>
														<g>
															<g>
																<g>
																	<g>
																		<g>
																			<g>
																				<path fill="#263238" d="M477.7,151.1c-0.3,0.4-2.5-1-5.4-0.8c-2.9,0.2-5,1.8-5.3,1.5c-0.2-0.1,0.1-0.8,1-1.6
																					c0.9-0.7,2.4-1.5,4.2-1.6c1.8-0.1,3.4,0.4,4.3,1.1C477.5,150.4,477.9,151,477.7,151.1z"/>
																			</g>
																		</g>
																	</g>
																</g>
															</g>
														</g>
													</g>
												</g>
											</g>
											<g>
												<g>
													<g>
														<g>
															<g>
																<g>
																	<g>
																		<g>
																			<g>
																				<path fill="#263238" d="M450.9,158.1c-0.3,0.3-2.4-1.2-5.3-1.3c-2.9-0.1-5.1,1.3-5.4,1
																					c-0.2-0.2,0.2-0.8,1.2-1.5c0.9-0.7,2.5-1.3,4.4-1.2c1.8,0.1,3.3,0.8,4.2,1.5C450.7,157.3,451,158,450.9,158.1z"
																					/>
																			</g>
																		</g>
																	</g>
																</g>
															</g>
														</g>
													</g>
												</g>
											</g>
											<g>
												<g>
													<g>
														<g>
															<g>
																<g>
																	<g>
																		<g>
																			<path fill="#263238" d="M456.3,173.6c0-0.2,1.9-0.2,4.8-0.2c0.8,0,1.5,0,1.7-0.5c0.2-0.5,0-1.4-0.2-2.3
																				c-0.5-1.9-0.9-3.9-1.5-5.9c-2-8.5-3.3-15.4-3-15.4c0.3-0.1,2.2,6.7,4.2,15.2c0.5,2.1,0.9,4.1,1.4,6
																				c0.2,0.9,0.5,1.9,0,3c-0.3,0.5-0.9,0.9-1.4,0.9c-0.5,0.1-0.9,0-1.3,0C458.1,174,456.3,173.8,456.3,173.6z"/>
																		</g>
																	</g>
																</g>
															</g>
														</g>
													</g>
												</g>
											</g>
											<g>
												<g>
													<g>
														<g>
															<g>
																<g>
																	<g>
																		<path fill="#EB996E" d="M453.8,208.3c0,0-14.3-1-27.2-11.2c0,0,5.2,15.4,26.6,16.2L453.8,208.3z"/>
																	</g>
																</g>
															</g>
														</g>
													</g>
												</g>
											</g>
										</g>
									</g>
								</g>
								<g>
									<g>
										<g>
											<g>
												<g>
													<g>
														<g>
															<path fill="#263238" d="M451.3,153.1c-0.5,0.7-3.2-0.3-6.7-0.7c-3.4-0.4-6.4-0.1-6.7-0.9c-0.1-0.4,0.5-1,1.8-1.5
																c1.3-0.5,3.2-0.8,5.2-0.6c2.1,0.3,3.8,1,4.9,1.8C451,152,451.5,152.8,451.3,153.1z"/>
														</g>
													</g>
												</g>
											</g>
										</g>
									</g>
								</g>
								<g>
									<g>
										<g>
											<g>
												<g>
													<g>
														<g>
															<path fill="#263238" d="M477.3,147.2c-0.5,0.7-2.5,0.1-5,0.2c-2.4,0-4.5,0.7-5,0c-0.2-0.3,0.1-1,0.9-1.7
																c0.9-0.7,2.3-1.3,4-1.3c1.7,0,3.1,0.5,4,1.1C477.2,146.2,477.5,146.9,477.3,147.2z"/>
														</g>
													</g>
												</g>
											</g>
										</g>
									</g>
								</g>
							</g>
						</g>
					</g>
				</g>
				<path fill="#EB996E" d="M449.2,178.9c1.3-0.9,3-1.2,4.6-1c0.8,0.1,1.6,0.5,2.1,1.1c0.7,0.8,0.8,2,0.7,3.1c0,0.6-0.1,1.3-0.3,1.9
					c-0.2,0.6-0.6,1.2-1.2,1.4c-0.6,0.3-1.3,0.2-2,0.1c-1.1-0.2-2.2-0.5-3.1-1.1c-0.9-0.6-1.6-1.6-1.7-2.7c-0.1-1.1,0.5-2.3,1.5-2.7
					"/>
				<g>
					<path fill="#263238" d="M457.1,185.3c-0.2,0.1-0.6-0.6-1.3-1.4c-0.7-0.9-1.8-2-3.2-2.8c-1.4-0.8-2.9-1.2-4.1-1.3
						c-1.1-0.2-1.9-0.2-1.9-0.4c0-0.2,0.7-0.6,1.9-0.7c1.2-0.1,3.1,0.1,4.8,1.1c1.7,1,2.9,2.4,3.4,3.6
						C457.3,184.5,457.3,185.3,457.1,185.3z"/>
				</g>
			</g>
			<path fill="#263238" d="M406.5,205.6c6.9-1.4,12.3-7.4,14.7-14c2.4-6.7,2.3-14,1.6-21c-0.1-0.9-0.2-1.9-1-2.5
				c-1.1-0.8-2.6-0.1-3.7,0.5c-4.4,2.7-8.6,5.6-12.6,8.8c-3.7,3-7.4,6.4-8.8,11c-2.2,7,2.4,15.3,9.5,17.2"/>
			<g>
				<path fill="#FFBE9D" d="M566.2,203.9l-32.8-52.7l-9.1-18.5c0,0-2.9-3.8-5.9-7.1c-4.9-5.4-9.8-1.2-9.8-1.2s-0.7-2.1-3.3-2
					c-3.1,0-4.5,2.3-4.5,2.3s-1.3-1.5-5.1-1.7c-0.8,0-1.6,0.3-2.4,0.8c-1.2-1.1-3.5-2.6-5.6-1.8c-1.7,0.6-11.9,8.4-14.4,12.3
					c-1.2,1.9,1.1,4.4,4.2,3.3c1.4-0.5,2.7-0.9,3.7-1.5c1.7-1,2.5-2,2.5-2s-2.6,4.5,0,5.3c1.1,0.3,3.3,0.1,4.8-1.2
					c1-0.8,2.1-1.9,3.2-2.9c0,0.1-0.1,0.1-0.1,0.2c-1.4,2.1,2.3,5.2,4.1,3.9c0.9-0.6,1.7-1.3,2.4-1.9c4.2,3-1.6,6.9-4.1,6.7
					c-3.8-0.3-8.2-0.3-11.3,0c-2.1,0.2-4,0.7-5.2,1.9c-1.4,1.4,0.1,4.4,2,4.7c3.6,0.6,8.2,1.4,12.9,2.6c5.6,1.4,20.3,6.2,20.3,6.2
					l1.4,1.2l19.9,48.6l-34.1,7.2l-7.6,43.2l61.6-16.7C568,235.6,574.6,217.1,566.2,203.9z"/>
				<g>
					<path fill="#EB996E" d="M512.9,159.3c0,0-0.3,0-0.8-0.2c-0.6-0.2-1.3-0.4-2.2-0.6c-2-0.6-4.7-1.4-8.1-2.4
						c-1.7-0.5-3.6-1.1-5.6-1.7c-2-0.6-4.2-1.3-6.4-1.8c-2.3-0.6-4.7-1.2-7.2-1.5c-1.2-0.2-2.6-0.1-3.9-0.7
						c-0.3-0.2-0.6-0.4-0.9-0.7c-0.1-0.2-0.2-0.3-0.3-0.5l-0.1-0.5c-0.1-0.7-0.1-1.4,0.1-2.1c0.2-0.7,0.8-1.3,1.4-1.6
						c0.6-0.3,1.3-0.5,1.9-0.8c1.3-0.4,2.7-0.5,4-0.5c2.6,0,5,0.4,7.4,0.3c1.2,0,2.3-0.1,3.4-0.3c1.1-0.2,2.1-0.5,3.1-0.7
						c2-0.5,4-0.9,5.8-0.7c1.8,0.2,3.4,0.7,4.7,1.2c1.3,0.5,2.4,1.1,3.3,1.6c0.9,0.5,1.5,0.9,2,1.2c0.4,0.3,0.7,0.4,0.7,0.5
						s-0.3-0.1-0.7-0.4c-0.5-0.3-1.2-0.6-2-1.1c-0.9-0.5-2-1-3.3-1.5c-1.3-0.5-2.9-1-4.6-1.1c-1.8-0.2-3.7,0.2-5.7,0.8
						c-1,0.3-2.1,0.6-3.2,0.8c-1.1,0.2-2.3,0.3-3.5,0.4c-2.4,0.1-4.9-0.2-7.4-0.3c-1.3,0-2.6,0.1-3.8,0.5c-1.2,0.4-2.6,0.8-3,2.1
						c-0.2,0.6-0.2,1.3-0.1,1.9l0.1,0.5c0,0.1,0.1,0.2,0.2,0.3c0.2,0.2,0.4,0.4,0.7,0.5c1.1,0.6,2.5,0.5,3.8,0.7
						c2.6,0.3,5,0.9,7.3,1.5c2.3,0.6,4.4,1.3,6.4,1.9c2,0.6,3.9,1.2,5.6,1.8c3.4,1.1,6.1,1.9,8.1,2.6c0.9,0.3,1.6,0.5,2.2,0.7
						C512.7,159.2,512.9,159.3,512.9,159.3z"/>
				</g>
				<g>
					<path fill="#EB996E" d="M487.7,122c0.1,0.1-1.5,1-3.9,2.8c-1.2,0.9-2.5,2-3.9,3.4c-1.4,1.4-2.9,3-4.6,4.4
						c-0.8,0.7-1.7,1.5-1.8,2.5c-0.1,0.5-0.1,1,0.2,1.3c0.2,0.4,0.6,0.7,1,0.8c0.9,0.3,1.8,0.2,2.6,0.1c0.8-0.2,1.6-0.4,2.3-0.7
						c2.7-1.1,4-2.6,4.1-2.5c0,0-0.3,0.4-0.9,0.9c-0.6,0.5-1.6,1.3-3,1.9c-0.7,0.3-1.5,0.6-2.4,0.7c-0.9,0.2-1.9,0.3-2.9,0
						c-0.5-0.2-1-0.5-1.3-1c-0.3-0.5-0.4-1.1-0.2-1.7c0.2-1.2,1.2-2,2-2.8c1.7-1.5,3.2-3,4.6-4.4c1.4-1.4,2.8-2.5,4-3.3
						c1.2-0.9,2.2-1.5,3-1.9C487.2,122.2,487.6,121.9,487.7,122z"/>
				</g>
				<g>
					<path fill="#EB996E" d="M500.2,126.1c0,0-0.4,0.5-1.2,1.4c-0.8,0.9-1.9,2.1-3.3,3.6c-1.4,1.5-3.1,3.3-4.9,5.3
						c-0.9,1-2.1,2-3.5,2.6c-0.7,0.3-1.5,0.6-2.3,0.6c-0.8,0-1.7-0.3-2.3-0.9c-0.3-0.3-0.5-0.8-0.5-1.2c0-0.4,0-0.9,0.1-1.3
						c0.2-0.8,0.6-1.5,1.1-2.2l0,0l0,0c1.8-1.9,3.4-3.6,4.9-5.3c1.5-1.6,2.9-2.9,4.1-4c0.6-0.5,1.1-1.1,1.7-1.4
						c0.6-0.3,1.2-0.3,1.6-0.4c0.9-0.1,1.4,0,1.4,0.1c0,0-0.5,0-1.3,0.1c-0.4,0.1-1,0.1-1.5,0.4c-0.5,0.3-1,0.8-1.6,1.4
						c-1.1,1.1-2.6,2.5-4,4.1c-1.4,1.6-3.1,3.4-4.8,5.3l0,0c-0.4,0.6-0.8,1.3-1,2c-0.1,0.4-0.1,0.7-0.1,1.1c0.1,0.4,0.2,0.7,0.4,1
						c0.5,0.5,1.2,0.7,1.9,0.8c0.7,0,1.4-0.2,2.1-0.5c1.3-0.6,2.4-1.5,3.3-2.5c1.9-2,3.6-3.7,5-5.2c1.4-1.4,2.5-2.6,3.4-3.5
						c0.4-0.4,0.7-0.7,0.9-0.9C500,126.2,500.2,126.1,500.2,126.1z"/>
				</g>
				<g>
					<path fill="#EB996E" d="M515.5,130.9c0.1,0,0,0.3-0.4,0.6c-0.3,0.3-1,0.5-1.7,0.4c-0.7-0.1-1.2-0.6-1.4-0.9
						c-0.2-0.4-0.2-0.7-0.2-0.7c0.1,0,0.2,0.2,0.5,0.5c0.3,0.3,0.7,0.6,1.2,0.7c0.5,0.1,1,0,1.4-0.2
						C515.2,131.1,515.4,130.9,515.5,130.9z"/>
				</g>
				<g>
					<path fill="#EB996E" d="M516.7,135.5c-0.1,0.1-0.9-0.7-1.5-1.8c-0.7-1.1-1-2.1-0.8-2.2c0.1-0.1,0.6,0.8,1.3,1.9
						C516.3,134.6,516.8,135.4,516.7,135.5z"/>
				</g>
				<g>
					<path fill="#EB996E" d="M518.9,153.4c-0.1,0-0.5-0.7-0.9-2.1c-0.5-1.3-0.8-3.3-0.8-5.5c0-2.2,0.5-4.1,1-5.4
						c0.5-1.3,1-2.1,1-2.1c0.2,0.1-1.4,3.2-1.4,7.5C517.6,150.1,519.1,153.4,518.9,153.4z"/>
				</g>
				<g>
					<path fill="#EB996E" d="M545.8,222.7c-0.1,0-0.2-1.1-0.7-2.7c-0.3-0.8-0.7-1.8-1.2-2.7c-0.6-1-1.2-2-2.1-3
						c-0.9-1-1.8-1.8-2.7-2.5c-0.9-0.7-1.8-1.2-2.6-1.5c-1.5-0.7-2.6-1-2.6-1.1c0,0,0.3,0,0.8,0.1c0.5,0.1,1.2,0.3,2,0.6
						c0.8,0.3,1.7,0.8,2.7,1.5c0.9,0.7,1.9,1.5,2.8,2.5c0.9,1,1.6,2.1,2.1,3.1c0.5,1,0.9,2,1.1,2.9c0.2,0.8,0.3,1.5,0.4,2
						C545.9,222.4,545.9,222.7,545.8,222.7z"/>
				</g>
			</g>
			<g>
				<path fill="#FFBE9D" d="M431.4,319c-4.4-0.9-8.3,1.1-8.3,1.1c-4.5-2-9.9,1.4-9.9,1.4c-1.6-0.8-11.3,5.6-11.3,5.6l-12.1,5.7
					l-64.5-47.9l18.3-19l-25.6-26.7l-30,30.9c-3.7,3.9-5.6,9.1-6,14.5c-0.8,11.7,5.9,22.7,16.4,28l76,39c0,0,8.1-0.3,17.3-2.7
					c6.6-1.7,17.8-6.7,17.8-6.7s0,0.3,2,4.2c3.6,7,8.9-0.6,8.9-0.6s1.1,2.5,2.1,3.4c4.6,4.4,7.7-1.5,7.7-1.5s1.4,2.4,5.5,0.6
					c4.1-1.8-0.6-14.1-0.6-14.1s1.4,2.7,4-0.7C441.6,330.3,435.8,319.9,431.4,319z"/>
				<g>
					<path fill="#EB996E" d="M422.3,320.7c0,0,0.3-0.2,0.8-0.3c0.6-0.1,1.4-0.2,2.4,0.1c1,0.3,2.1,0.8,3.2,1.7
						c0.5,0.4,1.1,0.9,1.6,1.4c0.5,0.6,0.9,1.3,1.3,2c1.4,2.8,2.4,5.5,3,7.4c0.3,1,0.5,1.8,0.6,2.3c0.1,0.6,0.2,0.9,0.1,0.9
						c-0.1,0-0.4-1.2-1.1-3.1c-0.7-1.9-1.7-4.5-3.1-7.3c-0.3-0.7-0.7-1.3-1.2-1.9c-0.5-0.5-1-1-1.5-1.4c-1-0.8-2.1-1.4-3-1.7
						C423.6,320.2,422.3,320.8,422.3,320.7z"/>
				</g>
				<g>
					<path fill="#EB996E" d="M430.1,347.8c0,0-0.2-0.4-0.6-1.1c-0.4-0.8-0.9-1.8-1.4-3.1c-1.2-2.6-2.9-6.1-4.6-10.2
						c-0.8-2-1.6-4-2.6-5.5c-1-1.5-2.4-2.5-3.7-3.1c-1.3-0.6-2.4-0.7-3.2-0.6c-0.8,0.1-1.2,0.3-1.2,0.3c0,0,0.1-0.1,0.3-0.2
						c0.2-0.1,0.5-0.2,0.9-0.3c0.8-0.2,2-0.1,3.4,0.4c1.3,0.5,2.8,1.6,4,3.2c1.1,1.6,1.9,3.5,2.7,5.5c1.7,4,3.3,7.6,4.4,10.2
						c0.6,1.3,1,2.4,1.3,3.1C430,347.4,430.1,347.8,430.1,347.8z"/>
				</g>
				<g>
					<path fill="#EB996E" d="M400.5,332.4c0,0,0.4-0.2,1-0.6c0.8-0.4,1.7-0.8,2.9-1.4c0.6-0.3,1.3-0.6,2-0.9
						c0.8-0.3,1.7-0.5,2.6-0.4c0.9,0.1,1.9,0.4,2.7,1c0.8,0.6,1.4,1.5,2,2.4c0.5,0.9,1,1.8,1.4,2.7c0.4,0.9,0.9,1.7,1.3,2.5
						c0.9,1.6,1.7,2.9,2.3,4.2c0.6,1.2,1,2.2,1.3,2.9c0.3,0.7,0.4,1.1,0.3,1.1c-0.1,0-0.6-1.6-1.9-3.9c-0.6-1.2-1.5-2.5-2.4-4.1
						c-0.4-0.8-0.9-1.6-1.3-2.5c-0.4-0.9-0.9-1.8-1.4-2.6c-0.5-0.9-1.1-1.7-1.8-2.2c-0.7-0.6-1.6-0.9-2.5-1c-0.8-0.1-1.7,0-2.4,0.3
						c-0.7,0.3-1.4,0.6-2,0.9c-1.2,0.5-2.2,0.9-3,1.2C400.9,332.3,400.5,332.4,400.5,332.4z"/>
				</g>
				<g>
					<path fill="#EB996E" d="M401.9,327.1c0,0-0.3,0.2-0.9,0.6c-0.6,0.3-1.4,0.8-2.5,1.3c-2.1,1.1-5,2.6-8.3,4.3
						c-3.3,1.6-6.2,3.1-8.4,4.1c-1.1,0.5-2,0.9-2.6,1.2c-0.6,0.3-1,0.4-1,0.4c0,0,0.3-0.2,0.9-0.6c0.6-0.3,1.4-0.8,2.5-1.3
						c2.1-1.1,5.1-2.6,8.3-4.3c3.3-1.6,6.2-3.1,8.4-4.1c1.1-0.5,2-0.9,2.6-1.2C401.5,327.2,401.8,327,401.9,327.1z"/>
				</g>
				<g>
					<path fill="#EB996E" d="M326.1,284.9c0,0.2-3.4-0.8-7.6-0.2c-4.2,0.5-7.3,2.2-7.4,2c0-0.1,0.7-0.5,2-1.1
						c1.3-0.6,3.2-1.2,5.3-1.4c2.1-0.3,4.1-0.1,5.5,0.1C325.3,284.6,326.1,284.9,326.1,284.9z"/>
				</g>
			</g>
			<g>
				<path fill="#263238" d="M468.6,111.7c-16-0.2-32,1.5-47.5,5c-3.6,0.8-7.4,1.9-9.9,4.7c-2.6,2.9-3,7.1-3.4,11
					c-0.4,4.8-0.8,9.5-1.2,14.3c-0.7,1.2-1.5,2.3-2.3,3.4c-3.8,4.9-8.5,9-12,14.2c-3.4,5.2-5.3,12-2.5,17.5c1.7,3.3,4.8,5.7,7.1,8.7
					c3.9,5,5.1,11.5,7.4,17.4c2.3,5.9,6.3,12,12.6,13.2c3,0.6,6.1-0.1,9,0.4c4.5,0.7,8.2,3.6,11.8,6.4c3.6,2.8,7.4,5.6,11.9,6.1
					c4.5,0.4,9.6-2.6,9.7-7.1c-3.3,1.9-7.7,1.8-10.9-0.3c-2.6-1.7-4.3-4.5-6.6-6.7c-5.5-5.4-14.4-7.1-18.3-13.7
					c-3-5.3-1.8-11.9-0.5-17.8c1.2-5.1,2.4-10.7,0.9-15.7c0.1-0.8,0.2-1.6,0.2-2.4c0-5.3-2-10.9,0.4-15.6
					c3.2-6.2,12.6-6.9,15.9-13.1c1.9-3.6,1.2-8.1,3.3-11.6c2-3.3,5.9-4.8,9.6-5.6c3.7-0.8,7.6-1.2,10.9-3.1
					C467.7,119.3,470.1,115.2,468.6,111.7z"/>
				<g>
					<path fill="#263238" d="M480.7,219c0,0,0,0.1-0.2,0.2c-0.1,0.2-0.3,0.4-0.5,0.7c-0.4,0.6-1.2,1.4-2.3,2.3
						c-1.1,0.9-2.6,1.8-4.6,2.4c-1.9,0.7-4.3,1.1-6.8,0.8c-2.5-0.2-5.3-1.2-7.7-3.1c-2.4-1.8-4.5-4.3-7.2-6.2
						c-1.3-0.9-2.9-1.7-4.6-1.9c-1.7-0.2-3.4,0.2-5.1,0.9c-1.7,0.7-3.4,1.5-5.3,1.8c-1.9,0.3-3.9-0.1-5.7-1c-1.8-0.9-3.3-2-4.8-3.2
						c-1.5-1.2-2.9-2.3-4.2-3.7c-1.3-1.3-2.4-2.8-3-4.5c-0.7-1.7-0.7-3.5-0.3-5.2c0.3-1.7,0.9-3.2,1.5-4.7c0.6-1.5,1.1-2.9,1.5-4.3
						c0.9-2.8,1.5-5.5,1.8-8c0.8-5,0.8-9.1,0.6-11.9c-0.1-1.4-0.2-2.5-0.2-3.2c0-0.3-0.1-0.6-0.1-0.8c0-0.2,0-0.3,0-0.3
						c0,0,0,0.1,0.1,0.3c0,0.2,0.1,0.5,0.1,0.8c0.1,0.7,0.2,1.8,0.3,3.2c0.2,2.8,0.3,7-0.5,12c-0.4,2.5-0.9,5.2-1.8,8.1
						c-0.4,1.4-0.9,2.9-1.5,4.4c-0.6,1.5-1.2,3-1.5,4.6c-0.3,1.6-0.3,3.3,0.3,4.9c0.6,1.6,1.7,3.1,2.9,4.3c1.2,1.3,2.7,2.5,4.2,3.6
						c1.5,1.1,3,2.3,4.7,3.1c1.7,0.8,3.6,1.3,5.4,1c1.8-0.3,3.5-1.1,5.2-1.8c1.7-0.7,3.5-1.2,5.3-0.9c1.8,0.2,3.4,1,4.8,2
						c2.7,2,4.8,4.4,7.2,6.2c2.3,1.9,4.9,2.9,7.4,3.1c2.5,0.3,4.8-0.1,6.7-0.7c1.9-0.6,3.4-1.5,4.5-2.3
						C479.9,220.4,480.7,218.9,480.7,219z"/>
				</g>
				<g>
					<path fill="#455A64" d="M380.8,187.2c0,0-0.3-0.4-0.8-1.1c-0.5-0.8-1.1-2-1.4-3.6c-0.4-1.7-0.4-3.8,0.1-6.2
						c0.5-2.4,1.6-5,3.5-7.4c1.8-2.4,4.3-4.7,7.2-6.8c2.9-2.1,6.1-4.1,9.4-6.4c3.2-2.3,6.5-5,8.9-8.6c1.2-1.8,2.1-3.8,2.7-6
						c0.6-2.1,1.1-4.4,1.6-6.6c0.5-2.3,1.1-4.5,2-6.6c0.9-2.1,2.2-4,3.9-5.4c1.7-1.4,3.7-2.5,5.7-3.1c2-0.7,4.1-1,6.1-1.2
						c4-0.3,7.9,0.1,11.4,0.4c3.5,0.3,6.9,0.5,9.9,0.1c3-0.3,5.6-1.2,7.7-2.3c2.1-1.1,3.7-2.5,4.7-3.8c1.1-1.3,1.6-2.5,1.9-3.3
						c0.3-0.8,0.4-1.3,0.4-1.3c0,0-0.1,0.5-0.3,1.3c-0.3,0.9-0.8,2.1-1.9,3.4c-1,1.4-2.6,2.8-4.8,3.9c-2.1,1.2-4.8,2.1-7.8,2.4
						c-3,0.4-6.4,0.2-9.9-0.1c-3.6-0.2-7.4-0.7-11.3-0.3c-2,0.2-4,0.5-6,1.2c-2,0.6-3.9,1.6-5.5,3c-1.6,1.4-2.9,3.2-3.8,5.3
						c-0.9,2-1.5,4.2-2,6.5c-0.5,2.2-1,4.5-1.6,6.7c-0.7,2.2-1.5,4.3-2.8,6.1c-2.4,3.7-5.8,6.4-9,8.8c-3.3,2.3-6.5,4.3-9.4,6.4
						c-2.9,2.1-5.3,4.3-7.2,6.7c-1.9,2.4-2.9,4.9-3.5,7.3c-0.5,2.3-0.5,4.4-0.2,6.1C379.5,185.7,380.9,187.2,380.8,187.2z"/>
				</g>
				<g>
					<path fill="#455A64" d="M383.8,192.4c0,0-1.2-0.9-3.1-2.9c-0.9-1-2-2.4-2.7-4.2c-0.3-0.9-0.6-2-0.5-3.1
						c0.1-1.1,0.6-2.3,1.3-3.3c1.6-2,4.3-3.1,7.1-3.6c1.4-0.3,2.9-0.5,4.4-0.9c1.5-0.4,3-0.9,4.3-1.8c1.3-0.9,2.3-2.2,3.1-3.7
						c0.8-1.5,1.3-3.1,1.9-4.8c0.6-1.7,1.2-3.4,2-5c0.8-1.6,2.1-3.1,3.8-4.2c1.6-1,3.4-1.6,5.2-2c1.8-0.5,3.5-0.8,5.2-1.4
						c3.3-1,6-3.3,7.9-5.8c2-2.5,3.5-5.2,4.9-7.7c1.4-2.5,2.9-4.8,4.5-6.7c1.6-1.9,3.4-3.3,5.1-4.2c1.7-0.9,3.4-1.3,4.8-1.4
						c1.4-0.1,2.5,0.1,3.2,0.3c0.7,0.2,1,0.4,1,0.4c0,0-0.4-0.1-1.1-0.3c-0.7-0.2-1.8-0.3-3.1-0.2c-1.3,0.2-3,0.6-4.7,1.5
						c-1.7,0.9-3.4,2.3-5,4.2c-1.6,1.9-3,4.1-4.4,6.6c-1.4,2.5-2.9,5.2-4.9,7.8c-1,1.3-2.2,2.5-3.5,3.6c-1.3,1.1-2.9,1.9-4.6,2.5
						c-1.7,0.6-3.5,1-5.2,1.4c-1.7,0.5-3.5,1-5.1,2c-1.6,1-2.7,2.4-3.6,4c-0.8,1.6-1.4,3.3-2,4.9c-0.6,1.7-1.1,3.3-2,4.8
						c-0.8,1.5-1.9,2.9-3.3,3.8c-1.4,0.9-2.9,1.5-4.4,1.8c-1.5,0.4-3,0.6-4.4,0.9c-2.8,0.6-5.4,1.6-6.9,3.5c-0.7,0.9-1.2,2-1.3,3.1
						c-0.1,1.1,0.1,2.1,0.4,3c0.7,1.8,1.7,3.2,2.6,4.2c0.9,1,1.6,1.8,2.1,2.3c0.2,0.2,0.4,0.4,0.6,0.6
						C383.7,192.4,383.8,192.4,383.8,192.4z"/>
				</g>
			</g>
		</g>
		<g>
			<path fill="#EB996E" d="M506.9,127.8c0,0-0.2,0.3-0.5,0.8c-0.4,0.5-0.9,1.2-1.6,2c-1.4,1.6-3.3,3.8-5.6,6.1
				c-1.1,1.1-2.2,2.4-3.7,2.8c-0.7,0.2-1.5,0.2-2.1,0c-0.6-0.3-1.1-0.8-1.4-1.2c-0.5-1-0.4-2-0.4-2.5c0.1-0.6,0.2-0.9,0.2-0.9
				c0,0,0,0.3,0,0.9c0,0.6,0,1.5,0.5,2.3c0.3,0.4,0.7,0.8,1.2,1c0.5,0.2,1.2,0.2,1.8,0c1.3-0.4,2.3-1.6,3.5-2.7
				c2.3-2.3,4.3-4.5,5.7-6C505.9,128.8,506.8,127.8,506.9,127.8z"/>
		</g>
		<g>
			<path fill="#EB996E" d="M514.5,127.9c0,0-0.2,0.3-0.6,0.8c-0.4,0.5-1,1.2-1.8,2c-0.8,0.9-1.7,1.8-2.7,2.9c-0.5,0.5-1,1.1-1.6,1.7
				c-0.6,0.6-1.2,1.2-1.9,1.7c-0.7,0.5-1.6,0.9-2.4,1c-0.9,0.1-1.8-0.3-2.3-1c-0.2-0.3-0.4-0.8-0.4-1.2c0-0.4,0.2-0.8,0.3-1.1
				c0.4-0.6,0.7-1.1,1.1-1.5c0.7-0.9,1.2-1.6,1.6-2.1c0.4-0.5,0.6-0.8,0.6-0.7c0,0-0.1,0.3-0.5,0.9c-0.3,0.5-0.8,1.3-1.5,2.2
				c-0.3,0.5-0.7,1-1,1.5c-0.3,0.5-0.4,1.2,0,1.7c0.4,0.5,1.1,0.8,1.8,0.8c0.7-0.1,1.5-0.4,2.2-0.9c0.7-0.5,1.3-1.1,1.8-1.7
				c0.6-0.6,1.1-1.1,1.6-1.7c1-1,1.9-2,2.8-2.8c0.8-0.8,1.4-1.4,1.9-1.9S514.5,127.8,514.5,127.9z"/>
		</g>
	</g>
</g>
<g id="Plants">
	<g>
		<linearGradient id="SVGID_4_" gradientUnits="userSpaceOnUse" x1="618.9112" y1="432.3388" x2="639.4959" y2="432.3388">
			<stop  offset="0" style="stop-color:#6BBD2F"/>
			<stop  offset="0.2324" style="stop-color:#7FC332"/>
			<stop  offset="0.7071" style="stop-color:#B4D33A"/>
			<stop  offset="1" style="stop-color:#D7DD3F"/>
		</linearGradient>
		<path fill="url(#SVGID_4_)" d="M618.9,434c1.7-3.7,5.3-6.5,9.4-7.2c4-0.7,8.4,0.7,11.2,3.6c-1.9,3.5-5.4,5.8-9.2,7.1
			C625.9,439,621.1,437.2,618.9,434"/>
		<g>
			<path fill="#263238" d="M611.8,435.6c0-0.1,1.1-0.5,2.9-0.9c1.8-0.4,4.3-0.9,7.1-1.4c2.8-0.5,5.3-0.8,7.2-1c1.8-0.2,3-0.3,3-0.2
				c0,0.1-1.1,0.3-2.9,0.6c-2,0.3-4.4,0.7-7.1,1.2c-2.8,0.5-5.3,0.9-7.1,1.2C612.9,435.4,611.8,435.7,611.8,435.6z"/>
		</g>
	</g>
	<g>
		<path fill="#0E9648" d="M261.5,370.7c4.2,3.5,6.6,9.2,6,14.6c-0.6,5.5-4.1,10.5-9,13C254.8,389,253.4,378.8,261.5,370.7"/>
		<g>
			<path fill="#0E9648" d="M275.4,377.9c0.4,7.1,4.5,13.9,10.7,17.5c6.1,3.6,14.1,3.8,20.5,0.7C299.5,385,290.1,375.7,275.4,377.9"
				/>
			<g>
				<path fill="#263238" d="M243.5,343.1c0,0,0.2,0.2,0.5,0.5c0.3,0.4,0.7,0.9,1.2,1.5c1.1,1.3,2.6,3.2,4.6,5.5
					c3.9,4.6,9.4,10.9,15.9,17.4c3.3,3.3,6.4,6.3,9.4,8.9c3,2.6,5.8,4.9,8.2,6.8c2.4,1.8,4.4,3.2,5.9,4c1.4,0.9,2.3,1.2,2.3,1.3
					c0,0-0.2-0.1-0.6-0.2c-0.4-0.2-1-0.4-1.8-0.9c-1.5-0.8-3.6-2.1-6-3.9c-2.4-1.8-5.2-4.1-8.3-6.7c-3-2.6-6.2-5.7-9.5-8.9
					c-6.5-6.5-12-12.9-15.8-17.5c-1.9-2.3-3.4-4.3-4.4-5.6c-0.5-0.6-0.9-1.2-1.2-1.6C243.6,343.3,243.5,343.1,243.5,343.1z"/>
			</g>
		</g>
		<g>
			<path fill="#263238" d="M260.7,384.9c-0.1,0,0.2-1.4,0.5-3.7c0.3-2.3,0.5-5.4,0.1-8.9c-0.4-3.5-1.2-6.5-1.9-8.7
				c-0.7-2.2-1.4-3.5-1.3-3.5c0,0,0.2,0.3,0.5,0.9c0.3,0.6,0.7,1.4,1.1,2.5c0.8,2.1,1.7,5.3,2.1,8.8c0.4,3.5,0.1,6.7-0.3,9
				c-0.2,1.1-0.4,2.1-0.6,2.7C260.9,384.6,260.7,384.9,260.7,384.9z"/>
		</g>
	</g>
	<g>
		<linearGradient id="SVGID_5_" gradientUnits="userSpaceOnUse" x1="698.5698" y1="177.2798" x2="712.3041" y2="168.3607">
			<stop  offset="0" style="stop-color:#6BBD2F"/>
			<stop  offset="0.2324" style="stop-color:#7FC332"/>
			<stop  offset="0.7071" style="stop-color:#B4D33A"/>
			<stop  offset="1" style="stop-color:#D7DD3F"/>
		</linearGradient>
		<path fill="url(#SVGID_5_)" d="M702,182.5c-2.5-3.3-3.2-7.8-1.9-11.7c1.3-3.9,4.6-7,8.5-8.2c2.1,3.4,2.5,7.5,1.9,11.5
			C709.7,178.8,705.9,182.2,702,182.5"/>
		<g>
			<path fill="#263238" d="M700.1,189.6c-0.1,0,0.1-1.2,0.6-3c0.5-1.8,1.2-4.3,2.1-6.9c0.9-2.7,1.8-5.1,2.5-6.8
				c0.7-1.7,1.2-2.8,1.2-2.7c0.1,0-0.3,1.1-0.9,2.9c-0.7,1.9-1.5,4.3-2.4,6.8c-0.9,2.7-1.7,5.1-2.3,6.9
				C700.5,188.5,700.2,189.6,700.1,189.6z"/>
		</g>
	</g>
	<g>
		<g>
			<g>
				<path fill="#0E9648" d="M657.9,256.9c-2.1-7.6-0.1-16.2,5-22.3c5.1-6,13.3-9.3,21.2-8.5c1.4,7.6-1,15.3-4.9,21.9
					C674.5,255.8,665.1,259.1,657.9,256.9"/>
			</g>
			<g>
				<path fill="#263238" d="M628.4,286.5c0,0,0.1-0.2,0.4-0.5c0.3-0.4,0.8-0.9,1.3-1.5c1.1-1.3,2.8-3.1,4.9-5.3
					c4.2-4.4,10.1-10.4,16.6-17c6.5-6.6,12.5-12.5,16.8-16.8c2.1-2.1,3.9-3.8,5.1-5c0.6-0.6,1.1-1,1.4-1.4c0.3-0.3,0.5-0.5,0.5-0.4
					s-0.1,0.2-0.4,0.5c-0.3,0.4-0.8,0.8-1.3,1.4c-1.2,1.3-2.9,3-5,5.2c-4.3,4.4-10.2,10.3-16.7,16.9c-6.5,6.6-12.4,12.5-16.7,16.9
					c-2.1,2.1-3.8,3.9-5,5.1c-0.6,0.6-1,1-1.4,1.4C628.6,286.4,628.4,286.5,628.4,286.5z"/>
			</g>
		</g>
		<g>
			<path fill="#E8505B" d="M644.3,259.9c-4.3-2.2-7.4-6.7-8-11.5c-0.6-4.8,1.3-9.9,4.9-13.1c4,2.5,6.6,6.8,7.9,11.3
				C650.6,251.9,648.3,257.5,644.3,259.9"/>
			<g>
				<path fill="#0E9648" d="M644.3,259.9c-4.3-2.2-7.4-6.7-8-11.5c-0.6-4.8,1.3-9.9,4.9-13.1c4,2.5,6.6,6.8,7.9,11.3
					C650.6,251.9,648.3,257.5,644.3,259.9"/>
			</g>
			<g>
				<path fill="#263238" d="M645.9,268.4c0,0-0.1-0.3-0.3-0.9c-0.2-0.6-0.4-1.5-0.6-2.6c-0.4-2.2-0.9-5.2-1.3-8.5
					c-0.4-3.3-0.7-6.4-0.8-8.6c-0.2-2.2-0.2-3.6-0.1-3.6c0.1,0,0.3,1.3,0.5,3.5c0.3,2.3,0.6,5.3,1,8.5c0.4,3.3,0.8,6.3,1.1,8.5
					C645.7,267.1,645.9,268.4,645.9,268.4z"/>
			</g>
		</g>
	</g>
	<g>
		<path fill="#E8505B" d="M457,375.8c3-7.2,9.9-12.6,17.6-14c7.7-1.4,16,1.3,21.4,7C484.6,377.5,471.4,383.5,457,375.8"/>
		<g>
			<path fill="#0E9648" d="M457,375.8c3-7.2,9.9-12.6,17.6-14c7.7-1.4,16,1.3,21.4,7C484.6,377.5,471.4,383.5,457,375.8"/>
		</g>
		<g>
			<path fill="#263238" d="M450.6,379.3c0,0,0.3-0.3,0.9-0.7c0.6-0.4,1.5-1,2.6-1.7c2.3-1.3,5.5-2.9,9.3-4.2c3.8-1.3,7.4-1.9,10-2.2
				c1.3-0.1,2.4-0.2,3.1-0.2c0.7,0,1.1,0,1.1,0c0,0.1-1.6,0.2-4.2,0.6c-2.6,0.4-6.1,1.1-9.9,2.3c-3.8,1.2-7,2.8-9.3,4
				C452,378.5,450.7,379.4,450.6,379.3z"/>
		</g>
	</g>
	<g>
		<path fill="#E8505B" d="M193.4,245.5c5.5-2.5,12.2-2.2,17.3,1c5.1,3.2,8.5,9,8.7,15C208.4,260.7,197.7,257.3,193.4,245.5"/>
		<g>
			<path fill="#0E9648" d="M193.4,245.5c5.5-2.5,12.2-2.2,17.3,1c5.1,3.2,8.5,9,8.7,15C208.4,260.7,197.7,257.3,193.4,245.5"/>
		</g>
		<g>
			<path fill="#263238" d="M187.9,244.2c0,0,0.3,0,0.9,0c0.6,0.1,1.4,0.2,2.4,0.4c2,0.4,4.7,1.2,7.5,2.4c2.8,1.3,5.2,2.7,6.9,3.9
				c0.8,0.6,1.5,1.1,1.9,1.5c0.4,0.4,0.6,0.6,0.6,0.6c-0.1,0.1-1-0.7-2.7-1.8c-1.7-1.1-4.1-2.5-6.9-3.8c-2.8-1.2-5.5-2-7.4-2.5
				C189.2,244.5,187.9,244.3,187.9,244.2z"/>
		</g>
	</g>
	<g>
		<linearGradient id="SVGID_6_" gradientUnits="userSpaceOnUse" x1="551.6506" y1="354.4163" x2="572.64" y2="354.4163">
			<stop  offset="0" style="stop-color:#6BBD2F"/>
			<stop  offset="0.2324" style="stop-color:#7FC332"/>
			<stop  offset="0.7071" style="stop-color:#B4D33A"/>
			<stop  offset="1" style="stop-color:#D7DD3F"/>
		</linearGradient>
		<path fill="url(#SVGID_6_)" d="M551.8,363.6c-0.6-5.4,1.6-11,5.7-14.5c4.1-3.5,10-4.7,15.2-3.2C568.9,355.1,563,363.2,551.8,363.6
			"/>
		<g>
			<path fill="#263238" d="M549.1,367.9c-0.1,0,0.4-1.1,1.2-2.7c0.9-1.6,2.3-3.7,4.1-5.7c1.9-2.1,3.8-3.7,5.3-4.7
				c1.5-1.1,2.5-1.6,2.5-1.5c0,0.1-0.9,0.7-2.3,1.8c-1.4,1.1-3.3,2.8-5.1,4.8c-1.8,2-3.3,4.1-4.2,5.6
				C549.7,366.9,549.2,367.9,549.1,367.9z"/>
		</g>
	</g>
	<g>
		<path fill="#E8505B" d="M630.5,311.6c-1.6-5.1-0.5-11.1,2.9-15.3c3.4-4.2,9-6.5,14.3-6C645.7,300.1,641.4,309.2,630.5,311.6"/>
		<g>
			<path fill="#0E9648" d="M630.5,311.6c-1.6-5.1-0.5-11.1,2.9-15.3c3.4-4.2,9-6.5,14.3-6C645.7,300.1,641.4,309.2,630.5,311.6"/>
		</g>
		<g>
			<path fill="#263238" d="M628.7,316.3c-0.1,0,0.2-1.1,0.7-2.8c0.6-1.7,1.6-4,3-6.4c1.4-2.4,3-4.3,4.3-5.7c1.3-1.3,2.1-2,2.2-2
				c0.1,0.1-0.7,0.9-1.9,2.2c-1.2,1.4-2.7,3.3-4.1,5.7c-1.4,2.3-2.4,4.6-3.1,6.3C629.1,315.3,628.8,316.4,628.7,316.3z"/>
		</g>
	</g>
	<g>
		<linearGradient id="SVGID_7_" gradientUnits="userSpaceOnUse" x1="37.2822" y1="234.227" x2="62.8361" y2="234.227">
			<stop  offset="0" style="stop-color:#6BBD2F"/>
			<stop  offset="0.2324" style="stop-color:#7FC332"/>
			<stop  offset="0.7071" style="stop-color:#B4D33A"/>
			<stop  offset="1" style="stop-color:#D7DD3F"/>
		</linearGradient>
		<path fill="url(#SVGID_7_)" d="M37.3,240.1c1.2-5.3,5.1-9.8,10.2-11.7c5-1.9,11-1.1,15.4,2C56.2,237.8,48,243.5,37.3,240.1"/>
		<g>
			<path fill="#263238" d="M33.4,243.3c0,0,0.7-0.9,2.1-2.1c1.4-1.2,3.4-2.7,5.8-4c2.4-1.3,4.8-2.2,6.5-2.7c1.7-0.5,2.9-0.7,2.9-0.6
				c0,0.1-1.1,0.4-2.8,1c-1.7,0.6-4,1.5-6.4,2.8c-2.4,1.3-4.4,2.8-5.8,3.9C34.3,242.6,33.4,243.4,33.4,243.3z"/>
		</g>
	</g>
</g>
<g id="Speech_Bubble">
</g>
</svg>
