<?xml version="1.0" encoding="utf-8"?>
<!-- Generator: Adobe Illustrator 18.1.1, SVG Export Plug-In . SVG Version: 6.00 Build 0)  -->
<svg version="1.1" id="Layer_1" xmlns="http://www.w3.org/2000/svg" xmlns:xlink="http://www.w3.org/1999/xlink" x="0px" y="0px"
	 viewBox="0 0 300 300" enable-background="new 0 0 300 300" xml:space="preserve">
<linearGradient id="SVGID_1_" gradientUnits="userSpaceOnUse" x1="23.6223" y1="272.9832" x2="276.2569" y2="29.0168">
	<stop  offset="0" style="stop-color:#D22030"/>
	<stop  offset="0.1355" style="stop-color:#D42434"/>
	<stop  offset="0.3595" style="stop-color:#D92F40"/>
	<stop  offset="0.6444" style="stop-color:#E13E55"/>
	<stop  offset="0.9761" style="stop-color:#EE5371"/>
	<stop  offset="1" style="stop-color:#F05474"/>
</linearGradient>
<linearGradient id="SVGID_2_" gradientUnits="userSpaceOnUse" x1="5.4615" y1="151" x2="294.4177" y2="151">
	<stop  offset="0" style="stop-color:#D22030"/>
	<stop  offset="0.1481" style="stop-color:#D32232"/>
	<stop  offset="0.3261" style="stop-color:#D62839"/>
	<stop  offset="0.5197" style="stop-color:#DB3345"/>
	<stop  offset="0.7243" style="stop-color:#E13F56"/>
	<stop  offset="0.9354" style="stop-color:#EB4F6C"/>
	<stop  offset="1" style="stop-color:#F05474"/>
</linearGradient>
<path fill="url(#SVGID_1_)" stroke="url(#SVGID_2_)" stroke-miterlimit="10" d="M226.2,295.2H73.7C36.4,295.2,6,264.7,6,227.5V74.5
	C6,37.3,36.4,6.8,73.7,6.8h152.6c37.2,0,67.7,30.5,67.7,67.7v152.9C293.9,264.7,263.5,295.2,226.2,295.2z"/>
<path fill="#FFFFFF" d="M107.8,250.8l-1.5-0.4c-1.1-0.3-2-1.1-2.5-2.2c-1.5-3.9-4.1-15.4,0.9-42.7c4.9-26.6,10-43.5,12.3-50.6
	c0.8-2.4,0.9-5,0.3-7.5c-2.6-11.1-7.7-43.1,19.3-44.8c32.6-2,2.7,47.6,4.7,62.3c2,14.7,10.3,21.8,28,16.9s38.5-38.5,27.5-73.1
	s-59.4-44.2-87.4-18.9c-26.1,23.6-18.7,53.2-10.8,66c1.1,1.7,1.5,3.7,1.1,5.7l-2.3,14c-0.3,1.9-2.5,2.9-4.1,1.8
	c-9.9-6.6-36.3-29.8-17.7-80.2c0,0,18.7-51.4,90.5-41.3c70,9.9,68.4,90.5,51.1,112.1c-0.9,1.1-1.8,2.3-2.7,3.4
	c-7,9.8-41.2,52.5-80.1,17.4c-0.3-0.2-0.7-0.1-0.8,0.2c-1.3,5.6-9.7,40.8-21.6,59.9C111.3,250.7,109.5,251.3,107.8,250.8z"/>
</svg>
