<?xml version="1.0" encoding="utf-8"?>
<!-- Generator: Adobe Illustrator 18.1.1, SVG Export Plug-In . SVG Version: 6.00 Build 0)  -->
<svg version="1.1" id="Layer_1" xmlns="http://www.w3.org/2000/svg" xmlns:xlink="http://www.w3.org/1999/xlink" x="0px" y="0px"
	 viewBox="0 0 500 500" enable-background="new 0 0 500 500" xml:space="preserve">
<g>
	
		<linearGradient id="SVGID_1_" gradientUnits="userSpaceOnUse" x1="114.9632" y1="-244.5894" x2="539.0511" y2="179.4985" gradientTransform="matrix(0 1 -1 0 217.4666 -77.0927)">
		<stop  offset="0" style="stop-color:#47C8F5"/>
		<stop  offset="1" style="stop-color:#4E77BB"/>
	</linearGradient>
	<path fill="url(#SVGID_1_)" d="M6.4,386V113.8C6.4,54.7,54.8,6.3,113.9,6.3h272.2c59.1,0,107.5,48.4,107.5,107.5V386
		c0,59.1-48.4,107.5-107.5,107.5H113.9C54.8,493.5,6.4,445.2,6.4,386z"/>
	<path fill="#FFFFFF" d="M384.6,166.4c-8.4,3.8-17.8,6.1-26.9,7.7c4.3-0.7,10.7-8.5,13.2-11.7c3.9-4.8,7.1-10.3,8.9-16.3
		c0.2-0.5,0.4-1-0.1-1.4c-0.6-0.2-1-0.1-1.4,0.1c-10.2,5.4-20.7,9.4-31.9,12.2c-0.9,0.2-1.6,0-2.2-0.6c-0.9-1-1.8-2-2.8-2.8
		c-4.7-4-9.7-7.1-15.4-9.5c-7.5-3-15.6-4.3-23.7-3.8c-7.8,0.5-15.5,2.7-22.5,6.3c-7,3.6-13.2,8.7-18.1,14.8
		c-5.1,6.3-8.9,13.8-10.8,21.7c-1.9,7.6-1.7,15.2-0.6,22.9c0.2,1.3,0.1,1.5-1.1,1.3c-43.8-6.5-80-22.2-109.5-55.7
		c-1.3-1.5-2-1.5-3,0.1c-12.9,19.3-6.6,50.3,9.5,65.6c2.1,2,4.4,4.1,6.7,5.9c-0.9,0.2-11.6-1-21.1-5.9c-1.3-0.8-1.9-0.3-2,1.1
		c-0.1,2.1,0.1,4,0.3,6.3c2.5,19.6,16,37.7,34.6,44.7c2.2,0.9,4.6,1.7,7,2.1c-4.2,0.9-8.6,1.6-20.7,0.6c-1.5-0.3-2.1,0.5-1.5,1.9
		c9.1,24.8,28.8,32.2,43.5,36.5c2,0.3,3.9,0.3,5.9,0.8c-0.1,0.2-0.2,0.2-0.4,0.3c-4.9,7.5-21.8,13-29.7,15.8
		c-14.4,5-30,7.3-45.2,5.8c-2.4-0.4-2.9-0.3-3.6,0c-0.7,0.4-0.1,1,0.7,1.6c3.1,2,6.2,3.8,9.4,5.6c9.6,5.1,19.7,9.2,30.2,12.1
		c54.2,15,115.3,4,156.1-36.5c32-31.8,43.2-75.6,43.2-119.5c0-1.7,2-2.7,3.2-3.6c8.3-6.3,15-13.7,21.2-22.1c1.4-1.9,1.4-3.5,1.4-4.2
		c0-0.1,0-0.2,0-0.2C385.7,165.7,385.7,165.9,384.6,166.4z"/>
</g>
</svg>
